Nunito-ExtraLight.ufo
<glyph name="exclam" format="2">
  <advance width="211"/>
  <unicode hex="0021"/>
  <outline>
    <contour>
      <point x="106" y="158" type="curve" smooth="yes"/>
      <point x="114" y="158"/>
      <point x="120" y="164"/>
      <point x="120" y="177" type="curve" smooth="yes"/>
      <point x="131" y="684" type="line" smooth="yes"/>
      <point x="131" y="701"/>
      <point x="122" y="711"/>
      <point x="106" y="711" type="curve" smooth="yes"/>
      <point x="89" y="711"/>
      <point x="80" y="701"/>
      <point x="80" y="684" type="curve" smooth="yes"/>
      <point x="91" y="177" type="line" smooth="yes"/>
      <point x="91" y="164"/>
      <point x="98" y="158"/>
    </contour>
    <contour>
      <point x="106" y="-3" type="curve" smooth="yes"/>
      <point x="128" y="-3"/>
      <point x="143" y="13"/>
      <point x="143" y="35" type="curve" smooth="yes"/>
      <point x="143" y="57"/>
      <point x="128" y="73"/>
      <point x="106" y="73" type="curve" smooth="yes"/>
      <point x="84" y="73"/>
      <point x="68" y="57"/>
      <point x="68" y="35" type="curve" smooth="yes"/>
      <point x="68" y="13"/>
      <point x="84" y="-3"/>
    </contour>
  </outline>
</glyph>
<glyph name="parenleft" format="2">
  <advance width="281"/>
  <unicode hex="0028"/>
  <outline>
    <contour>
      <point x="203" y="-174" type="curve" smooth="yes"/>
      <point x="214" y="-195"/>
      <point x="249" y="-185"/>
      <point x="237" y="-157" type="curve" smooth="yes"/>
      <point x="178" y="-19"/>
      <point x="148" y="122"/>
      <point x="148" y="263" type="curve" smooth="yes"/>
      <point x="148" y="404"/>
      <point x="178" y="545"/>
      <point x="237" y="683" type="curve" smooth="yes"/>
      <point x="248" y="710"/>
      <point x="214" y="723"/>
      <point x="203" y="700" type="curve" smooth="yes"/>
      <point x="137" y="556"/>
      <point x="104" y="413"/>
      <point x="104" y="263" type="curve" smooth="yes"/>
      <point x="104" y="113"/>
      <point x="137" y="-30"/>
    </contour>
  </outline>
</glyph>
<glyph name="one" format="2">
  <advance width="600"/>
  <unicode hex="0031"/>
  <outline>
    <contour>
      <point x="154" y="0" type="curve" smooth="yes"/>
      <point x="478" y="0" type="line" smooth="yes"/>
      <point x="492" y="0"/>
      <point x="500" y="7"/>
      <point x="500" y="20" type="curve" smooth="yes"/>
      <point x="500" y="32"/>
      <point x="492" y="39"/>
      <point x="478" y="39" type="curve" smooth="yes"/>
      <point x="342" y="39" type="line"/>
      <point x="342" y="689" type="line" smooth="yes"/>
      <point x="342" y="703"/>
      <point x="333" y="711"/>
      <point x="322" y="711" type="curve" smooth="yes"/>
      <point x="313" y="711"/>
      <point x="308" y="709"/>
      <point x="299" y="703" type="curve" smooth="yes"/>
      <point x="161" y="604" type="line" smooth="yes"/>
      <point x="135" y="586"/>
      <point x="159" y="554"/>
      <point x="183" y="571" type="curve" smooth="yes"/>
      <point x="327" y="673" type="line"/>
      <point x="300" y="673" type="line"/>
      <point x="300" y="39" type="line"/>
      <point x="154" y="39" type="line" smooth="yes"/>
      <point x="140" y="39"/>
      <point x="132" y="32"/>
      <point x="132" y="20" type="curve" smooth="yes"/>
      <point x="132" y="8"/>
      <point x="140" y="0"/>
    </contour>
  </outline>
</glyph>
<glyph name="five" format="2">
  <advance width="600"/>
  <unicode hex="0035"/>
  <outline>
    <contour>
      <point x="323" y="-8" type="curve" smooth="yes"/>
      <point x="460" y="-8"/>
      <point x="545" y="84"/>
      <point x="545" y="212" type="curve" smooth="yes"/>
      <point x="545" y="345"/>
      <point x="463" y="435"/>
      <point x="332" y="435" type="curve" smooth="yes"/>
      <point x="249" y="435"/>
      <point x="181" y="398"/>
      <point x="145" y="336" type="curve"/>
      <point x="159" y="336" type="line"/>
      <point x="159" y="666" type="line"/>
      <point x="488" y="666" type="line" smooth="yes"/>
      <point x="502" y="666"/>
      <point x="510" y="673"/>
      <point x="510" y="686" type="curve" smooth="yes"/>
      <point x="510" y="698"/>
      <point x="502" y="705"/>
      <point x="488" y="705" type="curve" smooth="yes"/>
      <point x="139" y="705" type="line" smooth="yes"/>
      <point x="125" y="705"/>
      <point x="117" y="697"/>
      <point x="117" y="683" type="curve" smooth="yes"/>
      <point x="117" y="316" type="line" smooth="yes"/>
      <point x="117" y="302"/>
      <point x="126" y="293"/>
      <point x="139" y="293" type="curve" smooth="yes"/>
      <point x="151" y="293"/>
      <point x="157" y="298"/>
      <point x="163" y="309" type="curve" smooth="yes"/>
      <point x="204" y="367"/>
      <point x="259" y="394"/>
      <point x="330" y="394" type="curve" smooth="yes"/>
      <point x="437" y="394"/>
      <point x="501" y="316"/>
      <point x="501" y="208" type="curve" smooth="yes"/>
      <point x="501" y="104"/>
      <point x="433" y="33"/>
      <point x="323" y="33" type="curve" smooth="yes"/>
      <point x="252" y="33"/>
      <point x="185" y="55"/>
      <point x="127" y="104" type="curve" smooth="yes"/>
      <point x="102" y="125"/>
      <point x="82" y="89"/>
      <point x="100" y="73" type="curve" smooth="yes"/>
      <point x="161" y="18"/>
      <point x="241" y="-8"/>
    </contour>
  </outline>
</glyph>
<glyph name="six" format="2">
  <advance width="600"/>
  <unicode hex="0036"/>
  <outline>
    <contour>
      <point x="323" y="-8" type="curve" smooth="yes"/>
      <point x="449" y="-8"/>
      <point x="539" y="85"/>
      <point x="539" y="214" type="curve" smooth="yes"/>
      <point x="539" y="343"/>
      <point x="451" y="434"/>
      <point x="323" y="434" type="curve" smooth="yes"/>
      <point x="208" y="434"/>
      <point x="121" y="355"/>
      <point x="111" y="230" type="curve"/>
      <point x="117" y="230" type="line"/>
      <point x="117" y="340" type="line" smooth="yes"/>
      <point x="117" y="560"/>
      <point x="199" y="672"/>
      <point x="342" y="672" type="curve" smooth="yes"/>
      <point x="398" y="672"/>
      <point x="456" y="650"/>
      <point x="501" y="601" type="curve" smooth="yes"/>
      <point x="524" y="576"/>
      <point x="547" y="610"/>
      <point x="529" y="630" type="curve" smooth="yes"/>
      <point x="482" y="683"/>
      <point x="407" y="713"/>
      <point x="343" y="713" type="curve" smooth="yes"/>
      <point x="174" y="713"/>
      <point x="74" y="578"/>
      <point x="74" y="331" type="curve" smooth="yes"/>
      <point x="74" y="117"/>
      <point x="163" y="-8"/>
    </contour>
    <contour>
      <point x="319" y="33" type="curve" smooth="yes"/>
      <point x="215" y="33"/>
      <point x="143" y="107"/>
      <point x="143" y="213" type="curve" smooth="yes"/>
      <point x="143" y="319"/>
      <point x="215" y="393"/>
      <point x="319" y="393" type="curve" smooth="yes"/>
      <point x="423" y="393"/>
      <point x="495" y="319"/>
      <point x="495" y="213" type="curve" smooth="yes"/>
      <point x="495" y="107"/>
      <point x="423" y="33"/>
    </contour>
  </outline>
</glyph>
<glyph name="less" format="2">
  <advance width="600"/>
  <unicode hex="003C"/>
  <outline>
    <contour>
      <point x="525" y="46" type="line" smooth="yes"/>
      <point x="552" y="33"/>
      <point x="567" y="70"/>
      <point x="542" y="82" type="curve" smooth="yes"/>
      <point x="84" y="298" type="line"/>
      <point x="84" y="276" type="line"/>
      <point x="542" y="492" type="line" smooth="yes"/>
      <point x="567" y="504"/>
      <point x="552" y="541"/>
      <point x="525" y="528" type="curve" smooth="yes"/>
      <point x="77" y="315" type="line" smooth="yes"/>
      <point x="63" y="308"/>
      <point x="56" y="299"/>
      <point x="56" y="287" type="curve" smooth="yes"/>
      <point x="56" y="275"/>
      <point x="63" y="266"/>
      <point x="77" y="259" type="curve" smooth="yes"/>
    </contour>
  </outline>
</glyph>
<glyph name="equal" format="2">
  <advance width="600"/>
  <unicode hex="003D"/>
  <outline>
    <contour>
      <point x="71" y="367" type="curve" smooth="yes"/>
      <point x="529" y="367" type="line" smooth="yes"/>
      <point x="542" y="367"/>
      <point x="550" y="374"/>
      <point x="550" y="387" type="curve" smooth="yes"/>
      <point x="550" y="399"/>
      <point x="542" y="406"/>
      <point x="529" y="406" type="curve" smooth="yes"/>
      <point x="71" y="406" type="line" smooth="yes"/>
      <point x="58" y="406"/>
      <point x="50" y="399"/>
      <point x="50" y="387" type="curve" smooth="yes"/>
      <point x="50" y="375"/>
      <point x="58" y="367"/>
    </contour>
    <contour>
      <point x="71" y="168" type="curve" smooth="yes"/>
      <point x="529" y="168" type="line" smooth="yes"/>
      <point x="542" y="168"/>
      <point x="550" y="175"/>
      <point x="550" y="188" type="curve" smooth="yes"/>
      <point x="550" y="200"/>
      <point x="542" y="207"/>
      <point x="529" y="207" type="curve" smooth="yes"/>
      <point x="71" y="207" type="line" smooth="yes"/>
      <point x="58" y="207"/>
      <point x="50" y="200"/>
      <point x="50" y="188" type="curve" smooth="yes"/>
      <point x="50" y="176"/>
      <point x="58" y="168"/>
    </contour>
  </outline>
</glyph>
<glyph name="question" format="2">
  <advance width="429"/>
  <unicode hex="003F"/>
  <outline>
    <contour>
      <point x="196" y="159" type="curve" smooth="yes"/>
      <point x="206" y="159"/>
      <point x="212" y="167"/>
      <point x="213" y="181" type="curve" smooth="yes"/>
      <point x="218" y="245"/>
      <point x="243" y="296"/>
      <point x="306" y="371" type="curve" smooth="yes"/>
      <point x="373" y="451"/>
      <point x="397" y="498"/>
      <point x="397" y="563" type="curve" smooth="yes"/>
      <point x="397" y="653"/>
      <point x="327" y="713"/>
      <point x="221" y="713" type="curve" smooth="yes"/>
      <point x="142" y="713"/>
      <point x="68" y="682"/>
      <point x="18" y="637" type="curve" smooth="yes"/>
      <point x="-10" y="612"/>
      <point x="13" y="578"/>
      <point x="44" y="605" type="curve" smooth="yes"/>
      <point x="95" y="649"/>
      <point x="152" y="672"/>
      <point x="222" y="672" type="curve" smooth="yes"/>
      <point x="303" y="672"/>
      <point x="353" y="630"/>
      <point x="353" y="563" type="curve" smooth="yes"/>
      <point x="353" y="508"/>
      <point x="333" y="465"/>
      <point x="275" y="396" type="curve" smooth="yes"/>
      <point x="205" y="312"/>
      <point x="181" y="254"/>
      <point x="181" y="179" type="curve" smooth="yes"/>
      <point x="181" y="166"/>
      <point x="187" y="159"/>
    </contour>
    <contour>
      <point x="196" y="-3" type="curve" smooth="yes"/>
      <point x="218" y="-3"/>
      <point x="233" y="13"/>
      <point x="233" y="35" type="curve" smooth="yes"/>
      <point x="233" y="57"/>
      <point x="218" y="73"/>
      <point x="196" y="73" type="curve" smooth="yes"/>
      <point x="174" y="73"/>
      <point x="158" y="57"/>
      <point x="158" y="35" type="curve" smooth="yes"/>
      <point x="158" y="13"/>
      <point x="174" y="-3"/>
    </contour>
  </outline>
</glyph>
<glyph name="D" format="2">
  <advance width="725"/>
  <unicode hex="0044"/>
  <anchor x="363" y="0" name="bottom"/>
  <anchor x="173" y="358" name="center"/>
  <anchor x="362" y="705" name="top"/>
  <outline>
    <contour>
      <point x="121" y="0" type="curve" smooth="yes"/>
      <point x="313" y="0" type="line" smooth="yes"/>
      <point x="534" y="0"/>
      <point x="658" y="123"/>
      <point x="658" y="353" type="curve" smooth="yes"/>
      <point x="658" y="583"/>
      <point x="534" y="705"/>
      <point x="313" y="705" type="curve" smooth="yes"/>
      <point x="121" y="705" type="line" smooth="yes"/>
      <point x="105" y="705"/>
      <point x="96" y="696"/>
      <point x="96" y="680" type="curve" smooth="yes"/>
      <point x="96" y="25" type="line" smooth="yes"/>
      <point x="96" y="9"/>
      <point x="105" y="0"/>
    </contour>
    <contour>
      <point x="138" y="39" type="line"/>
      <point x="138" y="666" type="line"/>
      <point x="309" y="666" type="line" smooth="yes"/>
      <point x="512" y="666"/>
      <point x="613" y="561"/>
      <point x="613" y="353" type="curve" smooth="yes"/>
      <point x="613" y="145"/>
      <point x="512" y="39"/>
      <point x="309" y="39" type="curve" smooth="yes"/>
    </contour>
  </outline>
</glyph>
<glyph name="E" format="2">
  <advance width="570"/>
  <unicode hex="0045"/>
  <anchor x="320" y="0" name="bottom"/>
  <anchor x="490" y="0" name="ogonek"/>
  <anchor x="320" y="705" name="top"/>
  <anchor x="27" y="705" name="topleft"/>
  <outline>
    <contour>
      <point x="121" y="0" type="curve" smooth="yes"/>
      <point x="505" y="0" type="line" smooth="yes"/>
      <point x="518" y="0"/>
      <point x="526" y="7"/>
      <point x="526" y="20" type="curve" smooth="yes"/>
      <point x="526" y="32"/>
      <point x="518" y="39"/>
      <point x="505" y="39" type="curve" smooth="yes"/>
      <point x="138" y="39" type="line"/>
      <point x="138" y="338" type="line"/>
      <point x="485" y="338" type="line" smooth="yes"/>
      <point x="498" y="338"/>
      <point x="506" y="345"/>
      <point x="506" y="358" type="curve" smooth="yes"/>
      <point x="506" y="370"/>
      <point x="498" y="377"/>
      <point x="485" y="377" type="curve" smooth="yes"/>
      <point x="138" y="377" type="line"/>
      <point x="138" y="666" type="line"/>
      <point x="505" y="666" type="line" smooth="yes"/>
      <point x="518" y="666"/>
      <point x="526" y="673"/>
      <point x="526" y="686" type="curve" smooth="yes"/>
      <point x="526" y="698"/>
      <point x="518" y="705"/>
      <point x="505" y="705" type="curve" smooth="yes"/>
      <point x="121" y="705" type="line" smooth="yes"/>
      <point x="105" y="705"/>
      <point x="96" y="696"/>
      <point x="96" y="680" type="curve" smooth="yes"/>
      <point x="96" y="25" type="line" smooth="yes"/>
      <point x="96" y="9"/>
      <point x="105" y="0"/>
    </contour>
  </outline>
</glyph>
<glyph name="F" format="2">
  <advance width="536"/>
  <unicode hex="0046"/>
  <anchor x="293" y="0" name="bottom"/>
  <anchor x="293" y="705" name="top"/>
  <outline>
    <contour>
      <point x="121" y="-6" type="curve" smooth="yes"/>
      <point x="132" y="-6"/>
      <point x="138" y="3"/>
      <point x="138" y="19" type="curve" smooth="yes"/>
      <point x="138" y="338" type="line"/>
      <point x="475" y="338" type="line" smooth="yes"/>
      <point x="488" y="338"/>
      <point x="496" y="345"/>
      <point x="496" y="358" type="curve" smooth="yes"/>
      <point x="496" y="370"/>
      <point x="488" y="377"/>
      <point x="475" y="377" type="curve" smooth="yes"/>
      <point x="138" y="377" type="line"/>
      <point x="138" y="666" type="line"/>
      <point x="495" y="666" type="line" smooth="yes"/>
      <point x="508" y="666"/>
      <point x="516" y="673"/>
      <point x="516" y="686" type="curve" smooth="yes"/>
      <point x="516" y="698"/>
      <point x="508" y="705"/>
      <point x="495" y="705" type="curve" smooth="yes"/>
      <point x="121" y="705" type="line" smooth="yes"/>
      <point x="105" y="705"/>
      <point x="96" y="696"/>
      <point x="96" y="680" type="curve" smooth="yes"/>
      <point x="96" y="19" type="line" smooth="yes"/>
      <point x="96" y="3"/>
      <point x="105" y="-6"/>
    </contour>
  </outline>
</glyph>
<glyph name="G" format="2">
  <advance width="718"/>
  <unicode hex="0047"/>
  <anchor x="390" y="0" name="bottom"/>
  <anchor x="383" y="705" name="top"/>
  <outline>
    <contour>
      <point x="402" y="-8" type="curve" smooth="yes"/>
      <point x="476" y="-8"/>
      <point x="565" y="10"/>
      <point x="617" y="34" type="curve" smooth="yes"/>
      <point x="625" y="38"/>
      <point x="628" y="46"/>
      <point x="628" y="57" type="curve" smooth="yes"/>
      <point x="628" y="334" type="line" smooth="yes"/>
      <point x="628" y="347"/>
      <point x="620" y="355"/>
      <point x="607" y="355" type="curve" smooth="yes"/>
      <point x="415" y="355" type="line" smooth="yes"/>
      <point x="402" y="355"/>
      <point x="394" y="348"/>
      <point x="394" y="336" type="curve" smooth="yes"/>
      <point x="394" y="324"/>
      <point x="402" y="316"/>
      <point x="415" y="316" type="curve" smooth="yes"/>
      <point x="588" y="316" type="line"/>
      <point x="588" y="35" type="line"/>
      <point x="600" y="73" type="line"/>
      <point x="543" y="47"/>
      <point x="475" y="33"/>
      <point x="401" y="33" type="curve" smooth="yes"/>
      <point x="208" y="33"/>
      <point x="112" y="145"/>
      <point x="112" y="353" type="curve" smooth="yes"/>
      <point x="112" y="555"/>
      <point x="208" y="672"/>
      <point x="380" y="672" type="curve" smooth="yes"/>
      <point x="462" y="672"/>
      <point x="533" y="650"/>
      <point x="590" y="595" type="curve" smooth="yes"/>
      <point x="611" y="575"/>
      <point x="635" y="608"/>
      <point x="616" y="627" type="curve" smooth="yes"/>
      <point x="558" y="686"/>
      <point x="474" y="713"/>
      <point x="381" y="713" type="curve" smooth="yes"/>
      <point x="183" y="713"/>
      <point x="67" y="576"/>
      <point x="67" y="353" type="curve" smooth="yes"/>
      <point x="67" y="124"/>
      <point x="183" y="-8"/>
    </contour>
  </outline>
</glyph>
<glyph name="J" format="2">
  <advance width="297"/>
  <unicode hex="004A"/>
  <anchor x="181" y="0" name="bottom"/>
  <anchor x="180" y="705" name="top"/>
  <outline>
    <contour>
      <point x="12" y="-5" type="curve" smooth="yes"/>
      <point x="44" y="-2" type="line" smooth="yes"/>
      <point x="145" y="7"/>
      <point x="201" y="70"/>
      <point x="201" y="177" type="curve" smooth="yes"/>
      <point x="201" y="689" type="line" smooth="yes"/>
      <point x="201" y="703"/>
      <point x="193" y="711"/>
      <point x="180" y="711" type="curve" smooth="yes"/>
      <point x="167" y="711"/>
      <point x="159" y="703"/>
      <point x="159" y="689" type="curve" smooth="yes"/>
      <point x="159" y="179" type="line" smooth="yes"/>
      <point x="159" y="96"/>
      <point x="116" y="43"/>
      <point x="41" y="36" type="curve" smooth="yes"/>
      <point x="8" y="33" type="line" smooth="yes"/>
      <point x="-5" y="32"/>
      <point x="-11" y="23"/>
      <point x="-11" y="15" type="curve" smooth="yes"/>
      <point x="-11" y="4"/>
      <point x="-3" y="-6"/>
    </contour>
  </outline>
</glyph>
<glyph name="L" format="2">
  <advance width="527"/>
  <unicode hex="004C"/>
  <anchor x="305" y="0" name="bottom"/>
  <anchor x="161" y="387" name="center"/>
  <anchor x="384" y="386" name="dot"/>
  <anchor x="117" y="705" name="top"/>
  <anchor x="260" y="705" name="topright"/>
  <outline>
    <contour>
      <point x="118" y="0" type="curve" smooth="yes"/>
      <point x="498" y="0" type="line" smooth="yes"/>
      <point x="512" y="0"/>
      <point x="520" y="7"/>
      <point x="520" y="20" type="curve" smooth="yes"/>
      <point x="520" y="32"/>
      <point x="512" y="39"/>
      <point x="498" y="39" type="curve" smooth="yes"/>
      <point x="138" y="39" type="line"/>
      <point x="138" y="689" type="line" smooth="yes"/>
      <point x="138" y="703"/>
      <point x="130" y="711"/>
      <point x="117" y="711" type="curve" smooth="yes"/>
      <point x="104" y="711"/>
      <point x="96" y="703"/>
      <point x="96" y="689" type="curve" smooth="yes"/>
      <point x="96" y="22" type="line" smooth="yes"/>
      <point x="96" y="8"/>
      <point x="104" y="0"/>
    </contour>
  </outline>
</glyph>
<glyph name="M" format="2">
  <advance width="844"/>
  <unicode hex="004D"/>
  <anchor x="422" y="0" name="bottom"/>
  <anchor x="422" y="705" name="top"/>
  <outline>
    <contour>
      <point x="118" y="-6" type="curve" smooth="yes"/>
      <point x="130" y="-6"/>
      <point x="137" y="2"/>
      <point x="137" y="16" type="curve" smooth="yes"/>
      <point x="137" y="666" type="line"/>
      <point x="112" y="666" type="line"/>
      <point x="401" y="120" type="line" smooth="yes"/>
      <point x="406" y="110"/>
      <point x="412" y="104"/>
      <point x="424" y="104" type="curve" smooth="yes"/>
      <point x="436" y="104"/>
      <point x="440" y="109"/>
      <point x="446" y="120" type="curve" smooth="yes"/>
      <point x="731" y="665" type="line"/>
      <point x="707" y="665" type="line"/>
      <point x="707" y="16" type="line" smooth="yes"/>
      <point x="707" y="2"/>
      <point x="714" y="-6"/>
      <point x="727" y="-6" type="curve" smooth="yes"/>
      <point x="739" y="-6"/>
      <point x="746" y="2"/>
      <point x="746" y="16" type="curve" smooth="yes"/>
      <point x="746" y="689" type="line" smooth="yes"/>
      <point x="746" y="703"/>
      <point x="739" y="711"/>
      <point x="728" y="711" type="curve" smooth="yes"/>
      <point x="716" y="711"/>
      <point x="711" y="706"/>
      <point x="705" y="695" type="curve" smooth="yes"/>
      <point x="409" y="127" type="line"/>
      <point x="437" y="127" type="line"/>
      <point x="139" y="695" type="line" smooth="yes"/>
      <point x="133" y="706"/>
      <point x="128" y="711"/>
      <point x="116" y="711" type="curve" smooth="yes"/>
      <point x="105" y="711"/>
      <point x="98" y="703"/>
      <point x="98" y="689" type="curve" smooth="yes"/>
      <point x="98" y="16" type="line" smooth="yes"/>
      <point x="98" y="2"/>
      <point x="106" y="-6"/>
    </contour>
  </outline>
</glyph>
<glyph name="P" format="2">
  <advance width="616"/>
  <unicode hex="0050"/>
  <anchor x="316" y="0" name="bottom"/>
  <anchor x="316" y="705" name="top"/>
  <outline>
    <contour>
      <point x="117" y="-6" type="curve" smooth="yes"/>
      <point x="131" y="-6"/>
      <point x="138" y="2"/>
      <point x="138" y="16" type="curve" smooth="yes"/>
      <point x="138" y="297" type="line"/>
      <point x="351" y="297" type="line" smooth="yes"/>
      <point x="499" y="297"/>
      <point x="580" y="370"/>
      <point x="580" y="501" type="curve" smooth="yes"/>
      <point x="580" y="632"/>
      <point x="499" y="705"/>
      <point x="351" y="705" type="curve" smooth="yes"/>
      <point x="118" y="705" type="line" smooth="yes"/>
      <point x="104" y="705"/>
      <point x="96" y="697"/>
      <point x="96" y="683" type="curve" smooth="yes"/>
      <point x="96" y="16" type="line" smooth="yes"/>
      <point x="96" y="2"/>
      <point x="104" y="-6"/>
    </contour>
    <contour>
      <point x="138" y="336" type="line"/>
      <point x="138" y="666" type="line"/>
      <point x="350" y="666" type="line" smooth="yes"/>
      <point x="474" y="666"/>
      <point x="536" y="609"/>
      <point x="536" y="501" type="curve" smooth="yes"/>
      <point x="536" y="393"/>
      <point x="474" y="336"/>
      <point x="350" y="336" type="curve" smooth="yes"/>
    </contour>
  </outline>
</glyph>
<glyph name="S" format="2">
  <advance width="600"/>
  <unicode hex="0053"/>
  <anchor x="310" y="0" name="bottom"/>
  <anchor x="304" y="705" name="top"/>
  <outline>
    <contour>
      <point x="310" y="-8" type="curve" smooth="yes"/>
      <point x="462" y="-8"/>
      <point x="555" y="69"/>
      <point x="555" y="180" type="curve" smooth="yes"/>
      <point x="555" y="275"/>
      <point x="491" y="325"/>
      <point x="355" y="353" type="curve" smooth="yes"/>
      <point x="256" y="373" type="line" smooth="yes"/>
      <point x="155" y="393"/>
      <point x="112" y="435"/>
      <point x="112" y="513" type="curve" smooth="yes"/>
      <point x="112" y="609"/>
      <point x="190" y="672"/>
      <point x="308" y="672" type="curve" smooth="yes"/>
      <point x="385" y="672"/>
      <point x="448" y="650"/>
      <point x="505" y="599" type="curve" smooth="yes"/>
      <point x="529" y="577"/>
      <point x="552" y="612"/>
      <point x="529" y="633" type="curve" smooth="yes"/>
      <point x="469" y="688"/>
      <point x="396" y="713"/>
      <point x="308" y="713" type="curve" smooth="yes"/>
      <point x="167" y="713"/>
      <point x="68" y="632"/>
      <point x="68" y="513" type="curve" smooth="yes"/>
      <point x="68" y="413"/>
      <point x="129" y="356"/>
      <point x="254" y="331" type="curve" smooth="yes"/>
      <point x="353" y="311" type="line" smooth="yes"/>
      <point x="465" y="288"/>
      <point x="511" y="251"/>
      <point x="511" y="179" type="curve" smooth="yes"/>
      <point x="511" y="91"/>
      <point x="443" y="33"/>
      <point x="310" y="33" type="curve" smooth="yes"/>
      <point x="214" y="33"/>
      <point x="149" y="54"/>
      <point x="86" y="104" type="curve" smooth="yes"/>
      <point x="61" y="124"/>
      <point x="37" y="89"/>
      <point x="62" y="69" type="curve" smooth="yes"/>
      <point x="124" y="19"/>
      <point x="209" y="-8"/>
    </contour>
  </outline>
</glyph>
<glyph name="T" format="2">
  <advance width="586"/>
  <unicode hex="0054"/>
  <anchor x="293" y="0" name="bottom"/>
  <anchor x="293" y="358" name="center"/>
  <anchor x="293" y="705" name="top"/>
  <outline>
    <contour>
      <point x="293" y="-6" type="curve" smooth="yes"/>
      <point x="307" y="-6"/>
      <point x="314" y="2"/>
      <point x="314" y="16" type="curve" smooth="yes"/>
      <point x="314" y="666" type="line"/>
      <point x="567" y="666" type="line" smooth="yes"/>
      <point x="581" y="666"/>
      <point x="589" y="673"/>
      <point x="589" y="686" type="curve" smooth="yes"/>
      <point x="589" y="698"/>
      <point x="581" y="705"/>
      <point x="567" y="705" type="curve" smooth="yes"/>
      <point x="19" y="705" type="line" smooth="yes"/>
      <point x="5" y="705"/>
      <point x="-3" y="698"/>
      <point x="-3" y="686" type="curve" smooth="yes"/>
      <point x="-3" y="674"/>
      <point x="5" y="666"/>
      <point x="19" y="666" type="curve" smooth="yes"/>
      <point x="272" y="666" type="line"/>
      <point x="272" y="16" type="line" smooth="yes"/>
      <point x="272" y="2"/>
      <point x="280" y="-6"/>
    </contour>
  </outline>
</glyph>
<glyph name="U" format="2">
  <advance width="720"/>
  <unicode hex="0055"/>
  <anchor x="360" y="0" name="bottom"/>
  <anchor x="417" y="0" name="ogonek"/>
  <anchor x="360" y="705" name="top"/>
  <anchor x="588" y="705" name="topright"/>
  <outline>
    <contour>
      <point x="360" y="-8" type="curve" smooth="yes"/>
      <point x="536" y="-8"/>
      <point x="629" y="90"/>
      <point x="629" y="271" type="curve" smooth="yes"/>
      <point x="629" y="689" type="line" smooth="yes"/>
      <point x="629" y="703"/>
      <point x="621" y="711"/>
      <point x="608" y="711" type="curve" smooth="yes"/>
      <point x="595" y="711"/>
      <point x="587" y="703"/>
      <point x="587" y="689" type="curve" smooth="yes"/>
      <point x="587" y="277" type="line" smooth="yes"/>
      <point x="587" y="113"/>
      <point x="510" y="33"/>
      <point x="360" y="33" type="curve" smooth="yes"/>
      <point x="210" y="33"/>
      <point x="133" y="113"/>
      <point x="133" y="277" type="curve" smooth="yes"/>
      <point x="133" y="689" type="line" smooth="yes"/>
      <point x="133" y="703"/>
      <point x="125" y="711"/>
      <point x="112" y="711" type="curve" smooth="yes"/>
      <point x="99" y="711"/>
      <point x="91" y="703"/>
      <point x="91" y="689" type="curve" smooth="yes"/>
      <point x="91" y="271" type="line" smooth="yes"/>
      <point x="91" y="90"/>
      <point x="184" y="-8"/>
    </contour>
  </outline>
</glyph>
<glyph name="V" format="2">
  <advance width="667"/>
  <unicode hex="0056"/>
  <anchor x="334" y="0" name="bottom"/>
  <anchor x="333" y="705" name="top"/>
  <outline>
    <contour>
      <point x="334" y="-6" type="curve" smooth="yes"/>
      <point x="349" y="-6"/>
      <point x="357" y="2"/>
      <point x="363" y="17" type="curve" smooth="yes"/>
      <point x="650" y="685" type="line" smooth="yes"/>
      <point x="656" y="700"/>
      <point x="649" y="711"/>
      <point x="634" y="711" type="curve" smooth="yes"/>
      <point x="622" y="711"/>
      <point x="615" y="705"/>
      <point x="610" y="694" type="curve" smooth="yes"/>
      <point x="323" y="24" type="line"/>
      <point x="346" y="24" type="line"/>
      <point x="58" y="694" type="line" smooth="yes"/>
      <point x="53" y="705"/>
      <point x="47" y="711"/>
      <point x="35" y="711" type="curve" smooth="yes"/>
      <point x="21" y="711"/>
      <point x="10" y="702"/>
      <point x="17" y="685" type="curve" smooth="yes"/>
      <point x="304" y="17" type="line" smooth="yes"/>
      <point x="310" y="2"/>
      <point x="319" y="-6"/>
    </contour>
  </outline>
</glyph>
<glyph name="W" format="2">
  <advance width="1091"/>
  <unicode hex="0057"/>
  <anchor x="546" y="0" name="bottom"/>
  <anchor x="545" y="705" name="top"/>
  <outline>
    <contour>
      <point x="303" y="-6" type="curve" smooth="yes"/>
      <point x="317" y="-6"/>
      <point x="323" y="2"/>
      <point x="329" y="18" type="curve" smooth="yes"/>
      <point x="555" y="671" type="line"/>
      <point x="535" y="671" type="line"/>
      <point x="760" y="18" type="line" smooth="yes"/>
      <point x="766" y="2"/>
      <point x="773" y="-6"/>
      <point x="788" y="-6" type="curve" smooth="yes"/>
      <point x="802" y="-6"/>
      <point x="809" y="2"/>
      <point x="815" y="18" type="curve" smooth="yes"/>
      <point x="1046" y="685" type="line" smooth="yes"/>
      <point x="1052" y="701"/>
      <point x="1044" y="711"/>
      <point x="1030" y="711" type="curve" smooth="yes"/>
      <point x="1017" y="711"/>
      <point x="1009" y="704"/>
      <point x="1005" y="691" type="curve" smooth="yes"/>
      <point x="773" y="19" type="line"/>
      <point x="801" y="19" type="line"/>
      <point x="570" y="687" type="line" smooth="yes"/>
      <point x="564" y="703"/>
      <point x="558" y="711"/>
      <point x="545" y="711" type="curve" smooth="yes"/>
      <point x="532" y="711"/>
      <point x="525" y="703"/>
      <point x="519" y="687" type="curve" smooth="yes"/>
      <point x="288" y="19" type="line"/>
      <point x="318" y="19" type="line"/>
      <point x="87" y="691" type="line" smooth="yes"/>
      <point x="82" y="705"/>
      <point x="75" y="711"/>
      <point x="63" y="711" type="curve" smooth="yes"/>
      <point x="48" y="711"/>
      <point x="40" y="700"/>
      <point x="45" y="685" type="curve" smooth="yes"/>
      <point x="276" y="18" type="line" smooth="yes"/>
      <point x="282" y="2"/>
      <point x="289" y="-6"/>
    </contour>
  </outline>
</glyph>
<glyph name="Z" format="2">
  <advance width="575"/>
  <unicode hex="005A"/>
  <anchor x="301" y="0" name="bottom"/>
  <anchor x="300" y="705" name="top"/>
  <outline>
    <contour>
      <point x="69" y="0" type="curve" smooth="yes"/>
      <point x="535" y="0" type="line" smooth="yes"/>
      <point x="550" y="0"/>
      <point x="558" y="7"/>
      <point x="558" y="20" type="curve" smooth="yes"/>
      <point x="558" y="32"/>
      <point x="550" y="39"/>
      <point x="535" y="39" type="curve" smooth="yes"/>
      <point x="85" y="39" type="line"/>
      <point x="85" y="16" type="line"/>
      <point x="532" y="661" type="line" smooth="yes"/>
      <point x="549" y="686"/>
      <point x="540" y="705"/>
      <point x="518" y="705" type="curve" smooth="yes"/>
      <point x="66" y="705" type="line" smooth="yes"/>
      <point x="51" y="705"/>
      <point x="43" y="698"/>
      <point x="43" y="686" type="curve" smooth="yes"/>
      <point x="43" y="674"/>
      <point x="51" y="666"/>
      <point x="66" y="666" type="curve" smooth="yes"/>
      <point x="502" y="666" type="line"/>
      <point x="502" y="689" type="line"/>
      <point x="55" y="44" type="line" smooth="yes"/>
      <point x="38" y="20"/>
      <point x="48" y="0"/>
    </contour>
  </outline>
</glyph>
<glyph name="bracketleft" format="2">
  <advance width="281"/>
  <unicode hex="005B"/>
  <outline>
    <contour>
      <point x="132" y="-180" type="curve" smooth="yes"/>
      <point x="263" y="-180" type="line" smooth="yes"/>
      <point x="274" y="-180"/>
      <point x="283" y="-172"/>
      <point x="283" y="-162" type="curve" smooth="yes"/>
      <point x="283" y="-152"/>
      <point x="274" y="-143"/>
      <point x="263" y="-143" type="curve" smooth="yes"/>
      <point x="154" y="-143" type="line"/>
      <point x="154" y="668" type="line"/>
      <point x="263" y="668" type="line" smooth="yes"/>
      <point x="274" y="668"/>
      <point x="283" y="676"/>
      <point x="283" y="687" type="curve" smooth="yes"/>
      <point x="283" y="697"/>
      <point x="274" y="705"/>
      <point x="263" y="705" type="curve" smooth="yes"/>
      <point x="132" y="705" type="line" smooth="yes"/>
      <point x="121" y="705"/>
      <point x="112" y="696"/>
      <point x="112" y="685" type="curve" smooth="yes"/>
      <point x="112" y="-160" type="line" smooth="yes"/>
      <point x="112" y="-171"/>
      <point x="121" y="-180"/>
    </contour>
  </outline>
</glyph>
<glyph name="bracketright" format="2">
  <advance width="281"/>
  <unicode hex="005D"/>
  <outline>
    <contour>
      <point x="18" y="-180" type="curve" smooth="yes"/>
      <point x="149" y="-180" type="line" smooth="yes"/>
      <point x="160" y="-180"/>
      <point x="169" y="-171"/>
      <point x="169" y="-160" type="curve" smooth="yes"/>
      <point x="169" y="685" type="line" smooth="yes"/>
      <point x="169" y="696"/>
      <point x="160" y="705"/>
      <point x="149" y="705" type="curve" smooth="yes"/>
      <point x="18" y="705" type="line" smooth="yes"/>
      <point x="7" y="705"/>
      <point x="-2" y="697"/>
      <point x="-2" y="687" type="curve" smooth="yes"/>
      <point x="-2" y="676"/>
      <point x="7" y="668"/>
      <point x="18" y="668" type="curve" smooth="yes"/>
      <point x="127" y="668" type="line"/>
      <point x="127" y="-143" type="line"/>
      <point x="18" y="-143" type="line" smooth="yes"/>
      <point x="7" y="-143"/>
      <point x="-2" y="-152"/>
      <point x="-2" y="-162" type="curve" smooth="yes"/>
      <point x="-2" y="-172"/>
      <point x="7" y="-180"/>
    </contour>
  </outline>
</glyph>
<glyph name="asciicircum" format="2">
  <advance width="600"/>
  <unicode hex="005E"/>
  <outline>
    <contour>
      <point x="77" y="134" type="curve" smooth="yes"/>
      <point x="87" y="134"/>
      <point x="92" y="139"/>
      <point x="97" y="149" type="curve" smooth="yes"/>
      <point x="311" y="599" type="line"/>
      <point x="289" y="599" type="line"/>
      <point x="503" y="149" type="line" smooth="yes"/>
      <point x="507" y="140"/>
      <point x="513" y="134"/>
      <point x="523" y="134" type="curve" smooth="yes"/>
      <point x="541" y="134"/>
      <point x="546" y="146"/>
      <point x="538" y="164" type="curve" smooth="yes"/>
      <point x="322" y="620" type="line" smooth="yes"/>
      <point x="317" y="630"/>
      <point x="310" y="634"/>
      <point x="300" y="634" type="curve" smooth="yes"/>
      <point x="290" y="634"/>
      <point x="283" y="630"/>
      <point x="278" y="620" type="curve" smooth="yes"/>
      <point x="62" y="164" type="line" smooth="yes"/>
      <point x="54" y="146"/>
      <point x="60" y="134"/>
    </contour>
  </outline>
</glyph>
<glyph name="underscore" format="2">
  <advance width="500"/>
  <unicode hex="005F"/>
  <outline>
    <contour>
      <point x="34" y="-33" type="curve" smooth="yes"/>
      <point x="466" y="-33" type="line" smooth="yes"/>
      <point x="477" y="-33"/>
      <point x="486" y="-26"/>
      <point x="486" y="-17" type="curve" smooth="yes"/>
      <point x="486" y="-8"/>
      <point x="477" y="0"/>
      <point x="466" y="0" type="curve" smooth="yes"/>
      <point x="34" y="0" type="line" smooth="yes"/>
      <point x="23" y="0"/>
      <point x="14" y="-8"/>
      <point x="14" y="-17" type="curve" smooth="yes"/>
      <point x="14" y="-26"/>
      <point x="23" y="-33"/>
    </contour>
  </outline>
</glyph>
<glyph name="b" format="2">
  <advance width="568"/>
  <unicode hex="0062"/>
  <anchor x="310" y="0" name="bottom"/>
  <anchor x="300" y="705" name="top"/>
  <outline>
    <contour>
      <point x="300" y="-8" type="curve" smooth="yes"/>
      <point x="431" y="-8"/>
      <point x="515" y="89"/>
      <point x="515" y="242" type="curve" smooth="yes"/>
      <point x="515" y="395"/>
      <point x="432" y="492"/>
      <point x="300" y="492" type="curve" smooth="yes"/>
      <point x="207" y="492"/>
      <point x="138" y="440"/>
      <point x="116" y="358" type="curve"/>
      <point x="127" y="358" type="line"/>
      <point x="127" y="689" type="line" smooth="yes"/>
      <point x="127" y="703"/>
      <point x="119" y="711"/>
      <point x="106" y="711" type="curve" smooth="yes"/>
      <point x="93" y="711"/>
      <point x="85" y="703"/>
      <point x="85" y="689" type="curve" smooth="yes"/>
      <point x="85" y="16" type="line" smooth="yes"/>
      <point x="85" y="2"/>
      <point x="93" y="-6"/>
      <point x="106" y="-6" type="curve" smooth="yes"/>
      <point x="119" y="-6"/>
      <point x="127" y="2"/>
      <point x="127" y="16" type="curve" smooth="yes"/>
      <point x="127" y="126" type="line"/>
      <point x="116" y="126" type="line"/>
      <point x="138" y="44"/>
      <point x="207" y="-8"/>
    </contour>
    <contour>
      <point x="299" y="31" type="curve" smooth="yes"/>
      <point x="193" y="31"/>
      <point x="126" y="109"/>
      <point x="126" y="242" type="curve" smooth="yes"/>
      <point x="126" y="375"/>
      <point x="193" y="453"/>
      <point x="299" y="453" type="curve" smooth="yes"/>
      <point x="405" y="453"/>
      <point x="472" y="375"/>
      <point x="472" y="242" type="curve" smooth="yes"/>
      <point x="472" y="109"/>
      <point x="405" y="31"/>
    </contour>
  </outline>
</glyph>
<glyph name="n" format="2">
  <advance width="553"/>
  <unicode hex="006E"/>
  <anchor x="277" y="0" name="bottom"/>
  <anchor x="277" y="484" name="top"/>
  <outline>
    <contour>
      <point x="106" y="-6" type="curve" smooth="yes"/>
      <point x="120" y="-6"/>
      <point x="127" y="2"/>
      <point x="127" y="16" type="curve" smooth="yes"/>
      <point x="127" y="278" type="line" smooth="yes"/>
      <point x="127" y="384"/>
      <point x="194" y="453"/>
      <point x="297" y="453" type="curve" smooth="yes"/>
      <point x="389" y="453"/>
      <point x="428" y="406"/>
      <point x="428" y="304" type="curve" smooth="yes"/>
      <point x="428" y="16" type="line" smooth="yes"/>
      <point x="428" y="2"/>
      <point x="436" y="-6"/>
      <point x="449" y="-6" type="curve" smooth="yes"/>
      <point x="462" y="-6"/>
      <point x="470" y="2"/>
      <point x="470" y="16" type="curve" smooth="yes"/>
      <point x="470" y="308" type="line" smooth="yes"/>
      <point x="470" y="432"/>
      <point x="413" y="492"/>
      <point x="297" y="492" type="curve" smooth="yes"/>
      <point x="212" y="492"/>
      <point x="141" y="450"/>
      <point x="115" y="366" type="curve"/>
      <point x="126" y="366" type="line"/>
      <point x="126" y="468" type="line" smooth="yes"/>
      <point x="126" y="482"/>
      <point x="119" y="490"/>
      <point x="106" y="490" type="curve" smooth="yes"/>
      <point x="93" y="490"/>
      <point x="85" y="482"/>
      <point x="85" y="468" type="curve" smooth="yes"/>
      <point x="85" y="16" type="line" smooth="yes"/>
      <point x="85" y="2"/>
      <point x="93" y="-6"/>
    </contour>
  </outline>
</glyph>
<glyph name="t" format="2">
  <advance width="320"/>
  <unicode hex="0074"/>
  <anchor x="203" y="0" name="bottom"/>
  <anchor x="151" y="272" name="center"/>
  <anchor x="124" y="635" name="top"/>
  <anchor x="225" y="705" name="topright"/>
  <outline>
    <contour>
      <point x="255" y="-8" type="curve" smooth="yes"/>
      <point x="276" y="-8"/>
      <point x="304" y="-2"/>
      <point x="318" y="3" type="curve" smooth="yes"/>
      <point x="327" y="6"/>
      <point x="330" y="14"/>
      <point x="330" y="21" type="curve" smooth="yes"/>
      <point x="330" y="33"/>
      <point x="323" y="40"/>
      <point x="315" y="40" type="curve" smooth="yes"/>
      <point x="303" y="40"/>
      <point x="286" y="31"/>
      <point x="258" y="31" type="curve" smooth="yes"/>
      <point x="177" y="31"/>
      <point x="145" y="78"/>
      <point x="145" y="165" type="curve" smooth="yes"/>
      <point x="145" y="448" type="line"/>
      <point x="288" y="448" type="line" smooth="yes"/>
      <point x="302" y="448"/>
      <point x="310" y="455"/>
      <point x="310" y="466" type="curve" smooth="yes"/>
      <point x="310" y="477"/>
      <point x="302" y="484"/>
      <point x="288" y="484" type="curve" smooth="yes"/>
      <point x="145" y="484" type="line"/>
      <point x="145" y="619" type="line" smooth="yes"/>
      <point x="145" y="633"/>
      <point x="137" y="641"/>
      <point x="124" y="641" type="curve" smooth="yes"/>
      <point x="111" y="641"/>
      <point x="103" y="633"/>
      <point x="103" y="619" type="curve" smooth="yes"/>
      <point x="103" y="484" type="line"/>
      <point x="22" y="484" type="line" smooth="yes"/>
      <point x="8" y="484"/>
      <point x="0" y="477"/>
      <point x="0" y="466" type="curve" smooth="yes"/>
      <point x="0" y="455"/>
      <point x="8" y="448"/>
      <point x="22" y="448" type="curve" smooth="yes"/>
      <point x="103" y="448" type="line"/>
      <point x="103" y="156" type="line" smooth="yes"/>
      <point x="103" y="52"/>
      <point x="154" y="-8"/>
    </contour>
  </outline>
</glyph>
<glyph name="u" format="2">
  <advance width="545"/>
  <unicode hex="0075"/>
  <anchor x="273" y="0" name="bottom"/>
  <anchor x="460" y="0" name="ogonek"/>
  <anchor x="273" y="485" name="top"/>
  <anchor x="420" y="484" name="topright"/>
  <outline>
    <contour>
      <point x="254" y="-8" type="curve" smooth="yes"/>
      <point x="337" y="-8"/>
      <point x="406" y="37"/>
      <point x="431" y="121" type="curve"/>
      <point x="419" y="121" type="line"/>
      <point x="419" y="16" type="line" smooth="yes"/>
      <point x="419" y="2"/>
      <point x="427" y="-6"/>
      <point x="440" y="-6" type="curve" smooth="yes"/>
      <point x="453" y="-6"/>
      <point x="460" y="2"/>
      <point x="460" y="16" type="curve" smooth="yes"/>
      <point x="460" y="468" type="line" smooth="yes"/>
      <point x="460" y="482"/>
      <point x="452" y="490"/>
      <point x="439" y="490" type="curve" smooth="yes"/>
      <point x="426" y="490"/>
      <point x="418" y="482"/>
      <point x="418" y="468" type="curve" smooth="yes"/>
      <point x="418" y="207" type="line" smooth="yes"/>
      <point x="418" y="101"/>
      <point x="351" y="31"/>
      <point x="254" y="31" type="curve" smooth="yes"/>
      <point x="165" y="31"/>
      <point x="125" y="79"/>
      <point x="125" y="181" type="curve" smooth="yes"/>
      <point x="125" y="468" type="line" smooth="yes"/>
      <point x="125" y="482"/>
      <point x="117" y="490"/>
      <point x="104" y="490" type="curve" smooth="yes"/>
      <point x="91" y="490"/>
      <point x="83" y="482"/>
      <point x="83" y="468" type="curve" smooth="yes"/>
      <point x="83" y="177" type="line" smooth="yes"/>
      <point x="83" y="56"/>
      <point x="139" y="-8"/>
    </contour>
  </outline>
</glyph>
<glyph name="w" format="2">
  <advance width="830"/>
  <unicode hex="0077"/>
  <anchor x="415" y="0" name="bottom"/>
  <anchor x="415" y="484" name="top"/>
  <outline>
    <contour>
      <point x="235" y="-6" type="curve" smooth="yes"/>
      <point x="249" y="-6"/>
      <point x="261" y="2"/>
      <point x="267" y="19" type="curve" smooth="yes"/>
      <point x="432" y="477" type="line"/>
      <point x="401" y="477" type="line"/>
      <point x="563" y="19" type="line" smooth="yes"/>
      <point x="569" y="2"/>
      <point x="581" y="-6"/>
      <point x="595" y="-6" type="curve" smooth="yes"/>
      <point x="608" y="-6"/>
      <point x="620" y="2"/>
      <point x="626" y="19" type="curve" smooth="yes"/>
      <point x="781" y="455" type="line" smooth="yes"/>
      <point x="787" y="473"/>
      <point x="784" y="490"/>
      <point x="765" y="490" type="curve" smooth="yes"/>
      <point x="752" y="490"/>
      <point x="747" y="486"/>
      <point x="742" y="472" type="curve" smooth="yes"/>
      <point x="581" y="13" type="line"/>
      <point x="607" y="13" type="line"/>
      <point x="449" y="465" type="line" smooth="yes"/>
      <point x="443" y="482"/>
      <point x="431" y="490"/>
      <point x="416" y="490" type="curve" smooth="yes"/>
      <point x="401" y="490"/>
      <point x="389" y="482"/>
      <point x="383" y="465" type="curve" smooth="yes"/>
      <point x="221" y="13" type="line"/>
      <point x="247" y="13" type="line"/>
      <point x="90" y="472" type="line" smooth="yes"/>
      <point x="86" y="485"/>
      <point x="80" y="490"/>
      <point x="68" y="490" type="curve" smooth="yes"/>
      <point x="54" y="490"/>
      <point x="42" y="479"/>
      <point x="50" y="455" type="curve" smooth="yes"/>
      <point x="203" y="19" type="line" smooth="yes"/>
      <point x="209" y="2"/>
      <point x="221" y="-6"/>
    </contour>
  </outline>
</glyph>
<glyph name="braceleft" format="2">
  <advance width="318"/>
  <unicode hex="007B"/>
  <outline>
    <contour>
      <point x="231" y="-180" type="curve" smooth="yes"/>
      <point x="300" y="-180" type="line" smooth="yes"/>
      <point x="311" y="-180"/>
      <point x="320" y="-172"/>
      <point x="320" y="-162" type="curve" smooth="yes"/>
      <point x="320" y="-152"/>
      <point x="311" y="-143"/>
      <point x="300" y="-143" type="curve" smooth="yes"/>
      <point x="236" y="-143" type="line" smooth="yes"/>
      <point x="206" y="-143"/>
      <point x="191" y="-128"/>
      <point x="191" y="-97" type="curve" smooth="yes"/>
      <point x="191" y="165" type="line" smooth="yes"/>
      <point x="191" y="224"/>
      <point x="156" y="265"/>
      <point x="105" y="265" type="curve"/>
      <point x="105" y="261" type="line"/>
      <point x="156" y="261"/>
      <point x="191" y="302"/>
      <point x="191" y="361" type="curve" smooth="yes"/>
      <point x="191" y="622" type="line" smooth="yes"/>
      <point x="191" y="653"/>
      <point x="206" y="668"/>
      <point x="236" y="668" type="curve" smooth="yes"/>
      <point x="300" y="668" type="line" smooth="yes"/>
      <point x="311" y="668"/>
      <point x="320" y="676"/>
      <point x="320" y="687" type="curve" smooth="yes"/>
      <point x="320" y="697"/>
      <point x="311" y="705"/>
      <point x="300" y="705" type="curve" smooth="yes"/>
      <point x="231" y="705" type="line" smooth="yes"/>
      <point x="177" y="705"/>
      <point x="149" y="676"/>
      <point x="149" y="620" type="curve" smooth="yes"/>
      <point x="149" y="364" type="line" smooth="yes"/>
      <point x="149" y="308"/>
      <point x="128" y="283"/>
      <point x="67" y="282" type="curve" smooth="yes"/>
      <point x="56" y="282"/>
      <point x="48" y="273"/>
      <point x="48" y="263" type="curve" smooth="yes"/>
      <point x="48" y="253"/>
      <point x="56" y="244"/>
      <point x="67" y="244" type="curve" smooth="yes"/>
      <point x="128" y="243"/>
      <point x="149" y="218"/>
      <point x="149" y="162" type="curve" smooth="yes"/>
      <point x="149" y="-95" type="line" smooth="yes"/>
      <point x="149" y="-151"/>
      <point x="177" y="-180"/>
    </contour>
  </outline>
</glyph>
<glyph name="bar" format="2">
  <advance width="244"/>
  <unicode hex="007C"/>
  <outline>
    <contour>
      <point x="122" y="-186" type="curve" smooth="yes"/>
      <point x="136" y="-186"/>
      <point x="143" y="-178"/>
      <point x="143" y="-164" type="curve" smooth="yes"/>
      <point x="143" y="689" type="line" smooth="yes"/>
      <point x="143" y="703"/>
      <point x="135" y="711"/>
      <point x="122" y="711" type="curve" smooth="yes"/>
      <point x="109" y="711"/>
      <point x="101" y="703"/>
      <point x="101" y="689" type="curve" smooth="yes"/>
      <point x="101" y="-164" type="line" smooth="yes"/>
      <point x="101" y="-178"/>
      <point x="109" y="-186"/>
    </contour>
  </outline>
</glyph>
<glyph name="exclamdown" format="2">
  <advance width="211"/>
  <unicode hex="00A1"/>
  <outline>
    <contour>
      <point x="106" y="-186" type="curve" smooth="yes"/>
      <point x="122" y="-186"/>
      <point x="131" y="-176"/>
      <point x="131" y="-159" type="curve" smooth="yes"/>
      <point x="120" y="310" type="line" smooth="yes"/>
      <point x="120" y="323"/>
      <point x="114" y="329"/>
      <point x="106" y="329" type="curve" smooth="yes"/>
      <point x="98" y="329"/>
      <point x="91" y="323"/>
      <point x="91" y="310" type="curve" smooth="yes"/>
      <point x="80" y="-159" type="line" smooth="yes"/>
      <point x="80" y="-176"/>
      <point x="89" y="-186"/>
    </contour>
    <contour>
      <point x="106" y="411" type="curve" smooth="yes"/>
      <point x="128" y="411"/>
      <point x="143" y="427"/>
      <point x="143" y="449" type="curve" smooth="yes"/>
      <point x="143" y="471"/>
      <point x="128" y="487"/>
      <point x="106" y="487" type="curve" smooth="yes"/>
      <point x="84" y="487"/>
      <point x="68" y="471"/>
      <point x="68" y="449" type="curve" smooth="yes"/>
      <point x="68" y="427"/>
      <point x="84" y="411"/>
    </contour>
  </outline>
</glyph>
<glyph name="cent" format="2">
  <advance width="600"/>
  <unicode hex="00A2"/>
  <outline>
    <contour>
      <point x="316" y="-121" type="curve" smooth="yes"/>
      <point x="328" y="-121"/>
      <point x="336" y="-112"/>
      <point x="336" y="-100" type="curve" smooth="yes"/>
      <point x="336" y="8" type="line"/>
      <point x="325" y="-7" type="line"/>
      <point x="378" y="-7"/>
      <point x="438" y="13"/>
      <point x="477" y="48" type="curve"/>
      <point x="496" y="62"/>
      <point x="481" y="98"/>
      <point x="448" y="73" type="curve" smooth="yes"/>
      <point x="412" y="46"/>
      <point x="368" y="33"/>
      <point x="322" y="33" type="curve" smooth="yes"/>
      <point x="211" y="33"/>
      <point x="142" y="113"/>
      <point x="142" y="242" type="curve" smooth="yes"/>
      <point x="142" y="368"/>
      <point x="213" y="451"/>
      <point x="323" y="451" type="curve" smooth="yes"/>
      <point x="368" y="451"/>
      <point x="412" y="438"/>
      <point x="447" y="410" type="curve" smooth="yes"/>
      <point x="477" y="387"/>
      <point x="497" y="419"/>
      <point x="477" y="436" type="curve" smooth="yes"/>
      <point x="440" y="470"/>
      <point x="380" y="490"/>
      <point x="327" y="490" type="curve"/>
      <point x="336" y="468" type="line"/>
      <point x="336" y="589" type="line" smooth="yes"/>
      <point x="336" y="601"/>
      <point x="327" y="610"/>
      <point x="316" y="610" type="curve" smooth="yes"/>
      <point x="305" y="610"/>
      <point x="296" y="601"/>
      <point x="296" y="589" type="curve" smooth="yes"/>
      <point x="296" y="468" type="line"/>
      <point x="305" y="490" type="line"/>
      <point x="181" y="480"/>
      <point x="99" y="379"/>
      <point x="99" y="243" type="curve" smooth="yes"/>
      <point x="99" y="102"/>
      <point x="184" y="-1"/>
      <point x="306" y="-6" type="curve"/>
      <point x="296" y="8" type="line"/>
      <point x="296" y="-100" type="line" smooth="yes"/>
      <point x="296" y="-112"/>
      <point x="305" y="-121"/>
    </contour>
  </outline>
</glyph>
<glyph name="sterling" format="2">
  <advance width="600"/>
  <unicode hex="00A3"/>
  <outline>
    <contour>
      <point x="65" y="0" type="curve" smooth="yes"/>
      <point x="531" y="0" type="line" smooth="yes"/>
      <point x="542" y="0"/>
      <point x="551" y="9"/>
      <point x="551" y="20" type="curve" smooth="yes"/>
      <point x="551" y="31"/>
      <point x="542" y="39"/>
      <point x="531" y="39" type="curve" smooth="yes"/>
      <point x="204" y="39" type="line"/>
      <point x="204" y="335" type="line"/>
      <point x="382" y="335" type="line" smooth="yes"/>
      <point x="393" y="335"/>
      <point x="402" y="343"/>
      <point x="402" y="353" type="curve" smooth="yes"/>
      <point x="402" y="363"/>
      <point x="393" y="371"/>
      <point x="382" y="371" type="curve" smooth="yes"/>
      <point x="199" y="371" type="line"/>
      <point x="204" y="366" type="line"/>
      <point x="204" y="524" type="line" smooth="yes"/>
      <point x="204" y="622"/>
      <point x="255" y="672"/>
      <point x="353" y="672" type="curve" smooth="yes"/>
      <point x="419" y="672"/>
      <point x="472" y="654"/>
      <point x="519" y="609" type="curve" smooth="yes"/>
      <point x="539" y="589"/>
      <point x="569" y="620"/>
      <point x="547" y="641" type="curve" smooth="yes"/>
      <point x="499" y="687"/>
      <point x="428" y="713"/>
      <point x="360" y="713" type="curve" smooth="yes"/>
      <point x="229" y="713"/>
      <point x="162" y="646"/>
      <point x="162" y="522" type="curve" smooth="yes"/>
      <point x="162" y="366" type="line"/>
      <point x="169" y="371" type="line"/>
      <point x="65" y="371" type="line" smooth="yes"/>
      <point x="54" y="371"/>
      <point x="45" y="363"/>
      <point x="45" y="353" type="curve" smooth="yes"/>
      <point x="45" y="343"/>
      <point x="54" y="335"/>
      <point x="65" y="335" type="curve" smooth="yes"/>
      <point x="169" y="335" type="line"/>
      <point x="162" y="344" type="line"/>
      <point x="162" y="30" type="line"/>
      <point x="169" y="39" type="line"/>
      <point x="65" y="39" type="line" smooth="yes"/>
      <point x="54" y="39"/>
      <point x="45" y="31"/>
      <point x="45" y="20" type="curve" smooth="yes"/>
      <point x="45" y="9"/>
      <point x="54" y="0"/>
    </contour>
  </outline>
</glyph>
<glyph name="brokenbar" format="2">
  <advance width="244"/>
  <unicode hex="00A6"/>
  <outline>
    <contour>
      <point x="122" y="366" type="curve" smooth="yes"/>
      <point x="136" y="366"/>
      <point x="143" y="374"/>
      <point x="143" y="388" type="curve" smooth="yes"/>
      <point x="143" y="689" type="line" smooth="yes"/>
      <point x="143" y="703"/>
      <point x="135" y="711"/>
      <point x="122" y="711" type="curve" smooth="yes"/>
      <point x="109" y="711"/>
      <point x="101" y="703"/>
      <point x="101" y="689" type="curve" smooth="yes"/>
      <point x="101" y="388" type="line" smooth="yes"/>
      <point x="101" y="374"/>
      <point x="109" y="366"/>
    </contour>
    <contour>
      <point x="122" y="-186" type="curve" smooth="yes"/>
      <point x="136" y="-186"/>
      <point x="143" y="-178"/>
      <point x="143" y="-164" type="curve" smooth="yes"/>
      <point x="143" y="137" type="line" smooth="yes"/>
      <point x="143" y="151"/>
      <point x="135" y="159"/>
      <point x="122" y="159" type="curve" smooth="yes"/>
      <point x="109" y="159"/>
      <point x="101" y="151"/>
      <point x="101" y="137" type="curve" smooth="yes"/>
      <point x="101" y="-164" type="line" smooth="yes"/>
      <point x="101" y="-178"/>
      <point x="109" y="-186"/>
    </contour>
  </outline>
</glyph>
<glyph name="section" format="2">
  <advance width="523"/>
  <unicode hex="00A7"/>
  <outline>
    <contour>
      <point x="234" y="-188" type="curve" smooth="yes"/>
      <point x="348" y="-188"/>
      <point x="435" y="-123"/>
      <point x="435" y="-14" type="curve" smooth="yes"/>
      <point x="435" y="27"/>
      <point x="425" y="51"/>
      <point x="418" y="64" type="curve"/>
      <point x="413" y="50" type="line"/>
      <point x="447" y="78"/>
      <point x="475" y="132"/>
      <point x="475" y="181" type="curve" smooth="yes"/>
      <point x="475" y="254"/>
      <point x="444" y="300"/>
      <point x="331" y="355" type="curve" smooth="yes"/>
      <point x="236" y="401" type="line" smooth="yes"/>
      <point x="157" y="439"/>
      <point x="132" y="479"/>
      <point x="132" y="539" type="curve" smooth="yes"/>
      <point x="132" y="625"/>
      <point x="196" y="673"/>
      <point x="280" y="673" type="curve" smooth="yes"/>
      <point x="335" y="673"/>
      <point x="392" y="655"/>
      <point x="429" y="625" type="curve" smooth="yes"/>
      <point x="453" y="605"/>
      <point x="475" y="638"/>
      <point x="454" y="656" type="curve" smooth="yes"/>
      <point x="413" y="692"/>
      <point x="351" y="712"/>
      <point x="283" y="712" type="curve" smooth="yes"/>
      <point x="175" y="712"/>
      <point x="88" y="647"/>
      <point x="88" y="538" type="curve" smooth="yes"/>
      <point x="88" y="497"/>
      <point x="98" y="473"/>
      <point x="105" y="460" type="curve"/>
      <point x="110" y="474" type="line"/>
      <point x="76" y="446"/>
      <point x="48" y="392"/>
      <point x="48" y="343" type="curve" smooth="yes"/>
      <point x="48" y="270"/>
      <point x="79" y="224"/>
      <point x="192" y="169" type="curve" smooth="yes"/>
      <point x="287" y="123" type="line" smooth="yes"/>
      <point x="366" y="85"/>
      <point x="391" y="45"/>
      <point x="391" y="-15" type="curve" smooth="yes"/>
      <point x="391" y="-101"/>
      <point x="327" y="-149"/>
      <point x="237" y="-149" type="curve" smooth="yes"/>
      <point x="178" y="-149"/>
      <point x="122" y="-132"/>
      <point x="82" y="-101" type="curve" smooth="yes"/>
      <point x="58" y="-82"/>
      <point x="40" y="-117"/>
      <point x="56" y="-131" type="curve" smooth="yes"/>
      <point x="96" y="-167"/>
      <point x="159" y="-188"/>
    </contour>
    <contour>
      <point x="89" y="345" type="curve" smooth="yes"/>
      <point x="89" y="385"/>
      <point x="105" y="420"/>
      <point x="134" y="444" type="curve"/>
      <point x="115" y="445" type="line"/>
      <point x="135" y="416"/>
      <point x="171" y="385"/>
      <point x="233" y="355" type="curve" smooth="yes"/>
      <point x="314" y="316" type="line" smooth="yes"/>
      <point x="408" y="271"/>
      <point x="434" y="233"/>
      <point x="434" y="179" type="curve" smooth="yes"/>
      <point x="434" y="139"/>
      <point x="418" y="104"/>
      <point x="389" y="80" type="curve"/>
      <point x="408" y="79" type="line"/>
      <point x="388" y="108"/>
      <point x="352" y="139"/>
      <point x="290" y="169" type="curve" smooth="yes"/>
      <point x="209" y="208" type="line" smooth="yes"/>
      <point x="115" y="253"/>
      <point x="89" y="291"/>
    </contour>
  </outline>
</glyph>
<glyph name="copyright" format="2">
  <advance width="815"/>
  <unicode hex="00A9"/>
  <outline>
    <contour>
      <point x="408" y="-8" type="curve" smooth="yes"/>
      <point x="612" y="-8"/>
      <point x="768" y="149"/>
      <point x="768" y="353" type="curve" smooth="yes"/>
      <point x="768" y="557"/>
      <point x="612" y="713"/>
      <point x="408" y="713" type="curve" smooth="yes"/>
      <point x="203" y="713"/>
      <point x="47" y="557"/>
      <point x="47" y="353" type="curve" smooth="yes"/>
      <point x="47" y="149"/>
      <point x="204" y="-8"/>
    </contour>
    <contour>
      <point x="408" y="28" type="curve" smooth="yes"/>
      <point x="225" y="28"/>
      <point x="84" y="169"/>
      <point x="84" y="353" type="curve" smooth="yes"/>
      <point x="84" y="537"/>
      <point x="225" y="677"/>
      <point x="408" y="677" type="curve" smooth="yes"/>
      <point x="590" y="677"/>
      <point x="731" y="537"/>
      <point x="731" y="353" type="curve" smooth="yes"/>
      <point x="731" y="169"/>
      <point x="590" y="28"/>
    </contour>
    <contour>
      <point x="417" y="137" type="curve" smooth="yes"/>
      <point x="465" y="137"/>
      <point x="516" y="156"/>
      <point x="552" y="188" type="curve" smooth="yes"/>
      <point x="569" y="203"/>
      <point x="550" y="235"/>
      <point x="526" y="215" type="curve" smooth="yes"/>
      <point x="490" y="186"/>
      <point x="451" y="175"/>
      <point x="416" y="175" type="curve" smooth="yes"/>
      <point x="317" y="175"/>
      <point x="258" y="245"/>
      <point x="258" y="355" type="curve" smooth="yes"/>
      <point x="258" y="466"/>
      <point x="317" y="530"/>
      <point x="416" y="530" type="curve" smooth="yes"/>
      <point x="450" y="530"/>
      <point x="489" y="520"/>
      <point x="525" y="492" type="curve" smooth="yes"/>
      <point x="550" y="473"/>
      <point x="569" y="501"/>
      <point x="552" y="517" type="curve" smooth="yes"/>
      <point x="518" y="548"/>
      <point x="467" y="568"/>
      <point x="417" y="568" type="curve" smooth="yes"/>
      <point x="292" y="568"/>
      <point x="217" y="487"/>
      <point x="217" y="356" type="curve" smooth="yes"/>
      <point x="217" y="225"/>
      <point x="292" y="137"/>
    </contour>
  </outline>
</glyph>
<glyph name="micro" format="2">
  <advance width="600"/>
  <unicode hex="00B5"/>
  <outline>
    <contour>
      <point x="133" y="-186" type="curve" smooth="yes"/>
      <point x="147" y="-186"/>
      <point x="154" y="-179"/>
      <point x="154" y="-164" type="curve" smooth="yes"/>
      <point x="150" y="81" type="line"/>
      <point x="133" y="81" type="line"/>
      <point x="160" y="12"/>
      <point x="215" y="-8"/>
      <point x="283" y="-8" type="curve" smooth="yes"/>
      <point x="366" y="-8"/>
      <point x="435" y="37"/>
      <point x="460" y="121" type="curve"/>
      <point x="448" y="121" type="line"/>
      <point x="448" y="16" type="line" smooth="yes"/>
      <point x="448" y="2"/>
      <point x="456" y="-6"/>
      <point x="469" y="-6" type="curve" smooth="yes"/>
      <point x="482" y="-6"/>
      <point x="489" y="2"/>
      <point x="489" y="16" type="curve" smooth="yes"/>
      <point x="489" y="468" type="line" smooth="yes"/>
      <point x="489" y="482"/>
      <point x="481" y="490"/>
      <point x="468" y="490" type="curve" smooth="yes"/>
      <point x="455" y="490"/>
      <point x="447" y="482"/>
      <point x="447" y="468" type="curve" smooth="yes"/>
      <point x="447" y="207" type="line" smooth="yes"/>
      <point x="447" y="101"/>
      <point x="380" y="33"/>
      <point x="283" y="33" type="curve" smooth="yes"/>
      <point x="194" y="33"/>
      <point x="154" y="79"/>
      <point x="154" y="181" type="curve" smooth="yes"/>
      <point x="154" y="468" type="line" smooth="yes"/>
      <point x="154" y="482"/>
      <point x="146" y="490"/>
      <point x="133" y="490" type="curve" smooth="yes"/>
      <point x="120" y="490"/>
      <point x="112" y="482"/>
      <point x="112" y="468" type="curve" smooth="yes"/>
      <point x="112" y="-164" type="line" smooth="yes"/>
      <point x="112" y="-178"/>
      <point x="120" y="-186"/>
    </contour>
  </outline>
</glyph>
<glyph name="questiondown" format="2">
  <advance width="429"/>
  <unicode hex="00BF"/>
  <outline>
    <contour>
      <point x="208" y="-188" type="curve" smooth="yes"/>
      <point x="296" y="-188"/>
      <point x="366" y="-156"/>
      <point x="416" y="-112" type="curve" smooth="yes"/>
      <point x="444" y="-87"/>
      <point x="421" y="-53"/>
      <point x="390" y="-80" type="curve" smooth="yes"/>
      <point x="339" y="-125"/>
      <point x="277" y="-147"/>
      <point x="207" y="-147" type="curve" smooth="yes"/>
      <point x="126" y="-147"/>
      <point x="76" y="-106"/>
      <point x="76" y="-43" type="curve" smooth="yes"/>
      <point x="76" y="3"/>
      <point x="93" y="43"/>
      <point x="154" y="107" type="curve" smooth="yes"/>
      <point x="229" y="186"/>
      <point x="248" y="235"/>
      <point x="248" y="307" type="curve" smooth="yes"/>
      <point x="248" y="320"/>
      <point x="242" y="327"/>
      <point x="233" y="327" type="curve" smooth="yes"/>
      <point x="223" y="327"/>
      <point x="217" y="319"/>
      <point x="216" y="305" type="curve" smooth="yes"/>
      <point x="209" y="238"/>
      <point x="187" y="199"/>
      <point x="123" y="131" type="curve" smooth="yes"/>
      <point x="52" y="55"/>
      <point x="32" y="11"/>
      <point x="32" y="-45" type="curve" smooth="yes"/>
      <point x="32" y="-131"/>
      <point x="102" y="-188"/>
    </contour>
    <contour>
      <point x="233" y="411" type="curve" smooth="yes"/>
      <point x="255" y="411"/>
      <point x="270" y="427"/>
      <point x="270" y="449" type="curve" smooth="yes"/>
      <point x="270" y="471"/>
      <point x="255" y="487"/>
      <point x="233" y="487" type="curve" smooth="yes"/>
      <point x="211" y="487"/>
      <point x="195" y="471"/>
      <point x="195" y="449" type="curve" smooth="yes"/>
      <point x="195" y="427"/>
      <point x="211" y="411"/>
    </contour>
  </outline>
</glyph>
<glyph name="multiply" format="2">
  <advance width="600"/>
  <unicode hex="00D7"/>
  <outline>
    <contour>
      <point x="106" y="62" type="curve" smooth="yes"/>
      <point x="300" y="256" type="line"/>
      <point x="494" y="62" type="line" smooth="yes"/>
      <point x="514" y="42"/>
      <point x="542" y="69"/>
      <point x="522" y="89" type="curve" smooth="yes"/>
      <point x="328" y="284" type="line"/>
      <point x="524" y="480" type="line" smooth="yes"/>
      <point x="544" y="500"/>
      <point x="516" y="529"/>
      <point x="496" y="509" type="curve" smooth="yes"/>
      <point x="300" y="312" type="line"/>
      <point x="103" y="509" type="line" smooth="yes"/>
      <point x="82" y="530"/>
      <point x="55" y="501"/>
      <point x="75" y="481" type="curve" smooth="yes"/>
      <point x="272" y="284" type="line"/>
      <point x="78" y="89" type="line" smooth="yes"/>
      <point x="58" y="69"/>
      <point x="87" y="43"/>
    </contour>
  </outline>
</glyph>
<glyph name="eth" format="2">
  <advance width="541"/>
  <unicode hex="00F0"/>
  <outline>
    <contour>
      <point x="269" y="-8" type="curve" smooth="yes"/>
      <point x="413" y="-8"/>
      <point x="488" y="90"/>
      <point x="488" y="281" type="curve" smooth="yes"/>
      <point x="488" y="442"/>
      <point x="431" y="560"/>
      <point x="320" y="637" type="curve"/>
      <point x="317" y="627" type="line"/>
      <point x="422" y="671" type="line" smooth="yes"/>
      <point x="450" y="683"/>
      <point x="434" y="715"/>
      <point x="408" y="704" type="curve" smooth="yes"/>
      <point x="284" y="652" type="line"/>
      <point x="299" y="651" type="line"/>
      <point x="262" y="674"/>
      <point x="223" y="691"/>
      <point x="176" y="706" type="curve" smooth="yes"/>
      <point x="147" y="715"/>
      <point x="135" y="682"/>
      <point x="165" y="673" type="curve" smooth="yes"/>
      <point x="200" y="662"/>
      <point x="231" y="649"/>
      <point x="260" y="632" type="curve"/>
      <point x="260" y="642" type="line"/>
      <point x="134" y="589" type="line" smooth="yes"/>
      <point x="106" y="577"/>
      <point x="122" y="545"/>
      <point x="148" y="556" type="curve" smooth="yes"/>
      <point x="305" y="622" type="line"/>
      <point x="280" y="620" type="line"/>
      <point x="392" y="549"/>
      <point x="447" y="434"/>
      <point x="446" y="286" type="curve"/>
      <point x="465" y="286" type="line"/>
      <point x="440" y="399"/>
      <point x="374" y="454"/>
      <point x="272" y="454" type="curve" smooth="yes"/>
      <point x="140" y="454"/>
      <point x="53" y="363"/>
      <point x="53" y="223" type="curve" smooth="yes"/>
      <point x="53" y="83"/>
      <point x="138" y="-8"/>
    </contour>
    <contour>
      <point x="268" y="31" type="curve" smooth="yes"/>
      <point x="160" y="31"/>
      <point x="96" y="101"/>
      <point x="96" y="223" type="curve" smooth="yes"/>
      <point x="96" y="342"/>
      <point x="162" y="415"/>
      <point x="269" y="415" type="curve" smooth="yes"/>
      <point x="376" y="415"/>
      <point x="442" y="342"/>
      <point x="442" y="223" type="curve" smooth="yes"/>
      <point x="442" y="104"/>
      <point x="375" y="31"/>
    </contour>
  </outline>
</glyph>
<glyph name="divide" format="2">
  <advance width="600"/>
  <unicode hex="00F7"/>
  <outline>
    <contour>
      <point x="71" y="267" type="curve" smooth="yes"/>
      <point x="529" y="267" type="line" smooth="yes"/>
      <point x="542" y="267"/>
      <point x="550" y="274"/>
      <point x="550" y="287" type="curve" smooth="yes"/>
      <point x="550" y="299"/>
      <point x="542" y="306"/>
      <point x="529" y="306" type="curve" smooth="yes"/>
      <point x="71" y="306" type="line" smooth="yes"/>
      <point x="58" y="306"/>
      <point x="50" y="299"/>
      <point x="50" y="287" type="curve" smooth="yes"/>
      <point x="50" y="275"/>
      <point x="58" y="267"/>
    </contour>
    <contour>
      <point x="294" y="51" type="curve" smooth="yes"/>
      <point x="317" y="51"/>
      <point x="329" y="64"/>
      <point x="329" y="86" type="curve" smooth="yes"/>
      <point x="329" y="108"/>
      <point x="316" y="121"/>
      <point x="294" y="121" type="curve" smooth="yes"/>
      <point x="272" y="121"/>
      <point x="259" y="108"/>
      <point x="259" y="86" type="curve" smooth="yes"/>
      <point x="259" y="64"/>
      <point x="272" y="51"/>
    </contour>
    <contour>
      <point x="294" y="452" type="curve" smooth="yes"/>
      <point x="317" y="452"/>
      <point x="329" y="465"/>
      <point x="329" y="487" type="curve" smooth="yes"/>
      <point x="329" y="509"/>
      <point x="316" y="522"/>
      <point x="294" y="522" type="curve" smooth="yes"/>
      <point x="272" y="522"/>
      <point x="259" y="509"/>
      <point x="259" y="487" type="curve" smooth="yes"/>
      <point x="259" y="465"/>
      <point x="272" y="452"/>
    </contour>
  </outline>
</glyph>
<glyph name="iogonek" format="2">
  <advance width="212"/>
  <unicode hex="012F"/>
  <outline>
    <contour>
      <point x="110" y="-190" type="curve" smooth="yes"/>
      <point x="129" y="-190"/>
      <point x="146" y="-188"/>
      <point x="165" y="-181" type="curve" smooth="yes"/>
      <point x="183" y="-174"/>
      <point x="181" y="-138"/>
      <point x="154" y="-147" type="curve" smooth="yes"/>
      <point x="142" y="-151"/>
      <point x="130" y="-154"/>
      <point x="115" y="-154" type="curve" smooth="yes"/>
      <point x="82" y="-154"/>
      <point x="55" y="-136"/>
      <point x="55" y="-94" type="curve" smooth="yes"/>
      <point x="55" y="-59"/>
      <point x="73" y="-34"/>
      <point x="116" y="-3" type="curve" smooth="yes"/>
      <point x="122" y="1"/>
      <point x="127" y="9"/>
      <point x="127" y="19" type="curve" smooth="yes"/>
      <point x="127" y="465" type="line" smooth="yes"/>
      <point x="127" y="479"/>
      <point x="119" y="487"/>
      <point x="106" y="487" type="curve" smooth="yes"/>
      <point x="93" y="487"/>
      <point x="85" y="479"/>
      <point x="85" y="465" type="curve" smooth="yes"/>
      <point x="85" y="19" type="line"/>
      <point x="85" y="14"/>
      <point x="87" y="8"/>
      <point x="88" y="5" type="curve"/>
      <point x="97" y="26" type="line"/>
      <point x="46" y="-4"/>
      <point x="16" y="-51"/>
      <point x="16" y="-98" type="curve" smooth="yes"/>
      <point x="16" y="-154"/>
      <point x="55" y="-190"/>
    </contour>
    <contour>
      <point x="106" y="616" type="curve" smooth="yes"/>
      <point x="129" y="616"/>
      <point x="141" y="629"/>
      <point x="141" y="651" type="curve" smooth="yes"/>
      <point x="141" y="673"/>
      <point x="128" y="685"/>
      <point x="106" y="685" type="curve" smooth="yes"/>
      <point x="84" y="685"/>
      <point x="71" y="673"/>
      <point x="71" y="651" type="curve" smooth="yes"/>
      <point x="71" y="629"/>
      <point x="84" y="616"/>
    </contour>
  </outline>
</glyph>
<glyph name="idotless" format="2">
  <advance width="212"/>
  <unicode hex="0131"/>
  <anchor x="106" y="0" name="bottom"/>
  <anchor x="127" y="0" name="ogonek"/>
  <anchor x="106" y="484" name="top"/>
  <outline>
    <contour>
      <point x="106" y="-3" type="curve" smooth="yes"/>
      <point x="120" y="-3"/>
      <point x="127" y="5"/>
      <point x="127" y="19" type="curve" smooth="yes"/>
      <point x="127" y="465" type="line" smooth="yes"/>
      <point x="127" y="479"/>
      <point x="119" y="487"/>
      <point x="106" y="487" type="curve" smooth="yes"/>
      <point x="93" y="487"/>
      <point x="85" y="479"/>
      <point x="85" y="465" type="curve" smooth="yes"/>
      <point x="85" y="19" type="line" smooth="yes"/>
      <point x="85" y="5"/>
      <point x="93" y="-3"/>
    </contour>
  </outline>
</glyph>
<glyph name="Eng" format="2">
  <advance width="732"/>
  <unicode hex="014A"/>
  <anchor x="366" y="0" name="bottom"/>
  <anchor x="366" y="705" name="top"/>
  <outline>
    <contour>
      <point x="470" y="-192" type="curve" smooth="yes"/>
      <point x="571" y="-192"/>
      <point x="636" y="-138"/>
      <point x="636" y="-21" type="curve" smooth="yes"/>
      <point x="636" y="689" type="line" smooth="yes"/>
      <point x="636" y="703"/>
      <point x="629" y="711"/>
      <point x="617" y="711" type="curve" smooth="yes"/>
      <point x="605" y="711"/>
      <point x="597" y="703"/>
      <point x="597" y="689" type="curve" smooth="yes"/>
      <point x="597" y="42" type="line"/>
      <point x="619" y="42" type="line"/>
      <point x="137" y="697" type="line" smooth="yes"/>
      <point x="130" y="707"/>
      <point x="126" y="711"/>
      <point x="114" y="711" type="curve" smooth="yes"/>
      <point x="103" y="711"/>
      <point x="96" y="703"/>
      <point x="96" y="688" type="curve" smooth="yes"/>
      <point x="96" y="16" type="line" smooth="yes"/>
      <point x="96" y="2"/>
      <point x="104" y="-6"/>
      <point x="116" y="-6" type="curve" smooth="yes"/>
      <point x="128" y="-6"/>
      <point x="135" y="2"/>
      <point x="135" y="16" type="curve" smooth="yes"/>
      <point x="135" y="663" type="line"/>
      <point x="114" y="663" type="line"/>
      <point x="602" y="0" type="line"/>
      <point x="597" y="25" type="line"/>
      <point x="597" y="-22" type="line" smooth="yes"/>
      <point x="597" y="-114"/>
      <point x="552" y="-151"/>
      <point x="467" y="-154" type="curve" smooth="yes"/>
      <point x="438" y="-155"/>
      <point x="441" y="-192"/>
    </contour>
  </outline>
</glyph>
<glyph name="eng" format="2">
  <advance width="553"/>
  <unicode hex="014B"/>
  <outline>
    <contour>
      <point x="304" y="-192" type="curve" smooth="yes"/>
      <point x="405" y="-192"/>
      <point x="470" y="-138"/>
      <point x="470" y="-21" type="curve" smooth="yes"/>
      <point x="470" y="308" type="line" smooth="yes"/>
      <point x="470" y="432"/>
      <point x="413" y="492"/>
      <point x="297" y="492" type="curve" smooth="yes"/>
      <point x="212" y="492"/>
      <point x="141" y="450"/>
      <point x="115" y="366" type="curve"/>
      <point x="126" y="366" type="line"/>
      <point x="126" y="468" type="line" smooth="yes"/>
      <point x="126" y="482"/>
      <point x="119" y="490"/>
      <point x="106" y="490" type="curve" smooth="yes"/>
      <point x="93" y="490"/>
      <point x="85" y="482"/>
      <point x="85" y="468" type="curve" smooth="yes"/>
      <point x="85" y="16" type="line" smooth="yes"/>
      <point x="85" y="2"/>
      <point x="93" y="-6"/>
      <point x="106" y="-6" type="curve" smooth="yes"/>
      <point x="120" y="-6"/>
      <point x="127" y="2"/>
      <point x="127" y="16" type="curve" smooth="yes"/>
      <point x="127" y="278" type="line" smooth="yes"/>
      <point x="127" y="384"/>
      <point x="194" y="453"/>
      <point x="297" y="453" type="curve" smooth="yes"/>
      <point x="389" y="453"/>
      <point x="428" y="406"/>
      <point x="428" y="304" type="curve" smooth="yes"/>
      <point x="428" y="-22" type="line" smooth="yes"/>
      <point x="428" y="-114"/>
      <point x="386" y="-151"/>
      <point x="301" y="-154" type="curve" smooth="yes"/>
      <point x="272" y="-155"/>
      <point x="275" y="-192"/>
    </contour>
  </outline>
</glyph>
<glyph name="OE" format="2">
  <advance width="1038"/>
  <unicode hex="0152"/>
  <anchor x="585" y="0" name="bottom"/>
  <anchor x="585" y="705" name="top"/>
  <outline>
    <contour>
      <point x="412" y="0" type="curve" smooth="yes"/>
      <point x="973" y="0" type="line" smooth="yes"/>
      <point x="986" y="0"/>
      <point x="994" y="7"/>
      <point x="994" y="20" type="curve" smooth="yes"/>
      <point x="994" y="32"/>
      <point x="986" y="39"/>
      <point x="973" y="39" type="curve" smooth="yes"/>
      <point x="606" y="39" type="line"/>
      <point x="606" y="338" type="line"/>
      <point x="953" y="338" type="line" smooth="yes"/>
      <point x="966" y="338"/>
      <point x="974" y="345"/>
      <point x="974" y="358" type="curve" smooth="yes"/>
      <point x="974" y="370"/>
      <point x="966" y="377"/>
      <point x="953" y="377" type="curve" smooth="yes"/>
      <point x="606" y="377" type="line"/>
      <point x="606" y="666" type="line"/>
      <point x="973" y="666" type="line" smooth="yes"/>
      <point x="986" y="666"/>
      <point x="994" y="673"/>
      <point x="994" y="686" type="curve" smooth="yes"/>
      <point x="994" y="698"/>
      <point x="986" y="705"/>
      <point x="973" y="705" type="curve" smooth="yes"/>
      <point x="412" y="705" type="line" smooth="yes"/>
      <point x="191" y="705"/>
      <point x="67" y="583"/>
      <point x="67" y="353" type="curve" smooth="yes"/>
      <point x="67" y="123"/>
      <point x="191" y="0"/>
    </contour>
    <contour>
      <point x="416" y="39" type="line" smooth="yes"/>
      <point x="213" y="39"/>
      <point x="112" y="145"/>
      <point x="112" y="353" type="curve" smooth="yes"/>
      <point x="112" y="561"/>
      <point x="213" y="666"/>
      <point x="416" y="666" type="curve" smooth="yes"/>
      <point x="564" y="666" type="line"/>
      <point x="564" y="39" type="line"/>
    </contour>
  </outline>
</glyph>
<glyph name="uogonek" format="2">
  <advance width="545"/>
  <unicode hex="0173"/>
  <outline>
    <contour>
      <point x="419" y="121" type="line"/>
      <point x="419" y="18" type="line" smooth="yes"/>
      <point x="419" y="14"/>
      <point x="420" y="9"/>
      <point x="421" y="6" type="curve"/>
      <point x="432" y="27" type="line"/>
      <point x="380" y="-3"/>
      <point x="349" y="-50"/>
      <point x="349" y="-98" type="curve" smooth="yes"/>
      <point x="349" y="-154"/>
      <point x="388" y="-190"/>
      <point x="443" y="-190" type="curve" smooth="yes"/>
      <point x="462" y="-190"/>
      <point x="479" y="-188"/>
      <point x="498" y="-181" type="curve" smooth="yes"/>
      <point x="516" y="-174"/>
      <point x="514" y="-138"/>
      <point x="487" y="-147" type="curve" smooth="yes"/>
      <point x="475" y="-151"/>
      <point x="463" y="-154"/>
      <point x="448" y="-154" type="curve" smooth="yes"/>
      <point x="415" y="-154"/>
      <point x="388" y="-136"/>
      <point x="388" y="-94" type="curve" smooth="yes"/>
      <point x="388" y="-53"/>
      <point x="419" y="-23"/>
      <point x="448" y="-6" type="curve" smooth="yes"/>
      <point x="455" y="-2"/>
      <point x="460" y="5"/>
      <point x="460" y="16" type="curve" smooth="yes"/>
      <point x="460" y="468" type="line"/>
      <point x="460" y="482"/>
      <point x="452" y="490"/>
      <point x="439" y="490" type="curve" smooth="yes"/>
      <point x="426" y="490"/>
      <point x="418" y="482"/>
      <point x="418" y="468" type="curve" smooth="yes"/>
      <point x="418" y="207" type="line" smooth="yes"/>
      <point x="418" y="101"/>
      <point x="351" y="31"/>
      <point x="254" y="31" type="curve" smooth="yes"/>
      <point x="165" y="31"/>
      <point x="125" y="79"/>
      <point x="125" y="181" type="curve" smooth="yes"/>
      <point x="125" y="468" type="line" smooth="yes"/>
      <point x="125" y="482"/>
      <point x="117" y="490"/>
      <point x="104" y="490" type="curve" smooth="yes"/>
      <point x="91" y="490"/>
      <point x="83" y="482"/>
      <point x="83" y="468" type="curve" smooth="yes"/>
      <point x="83" y="177" type="line" smooth="yes"/>
      <point x="83" y="56"/>
      <point x="139" y="-8"/>
      <point x="254" y="-8" type="curve" smooth="yes"/>
      <point x="337" y="-8"/>
      <point x="406" y="37"/>
      <point x="431" y="121" type="curve"/>
    </contour>
  </outline>
</glyph>
<glyph name="Schwa" format="2">
  <advance width="751"/>
  <unicode hex="018F"/>
  <anchor x="371" y="0" name="bottom"/>
  <anchor x="371" y="705" name="top"/>
  <outline>
    <contour>
      <point x="380" y="-8" type="curve" smooth="yes"/>
      <point x="566" y="-8"/>
      <point x="684" y="129"/>
      <point x="684" y="353" type="curve" smooth="yes"/>
      <point x="684" y="577"/>
      <point x="558" y="713"/>
      <point x="355" y="713" type="curve" smooth="yes"/>
      <point x="252" y="713"/>
      <point x="165" y="684"/>
      <point x="102" y="627" type="curve" smooth="yes"/>
      <point x="80" y="607"/>
      <point x="104" y="575"/>
      <point x="126" y="594" type="curve" smooth="yes"/>
      <point x="189" y="649"/>
      <point x="257" y="672"/>
      <point x="354" y="672" type="curve" smooth="yes"/>
      <point x="535" y="672"/>
      <point x="639" y="556"/>
      <point x="639" y="353" type="curve" smooth="yes"/>
      <point x="639" y="151"/>
      <point x="541" y="33"/>
      <point x="379" y="33" type="curve" smooth="yes"/>
      <point x="199" y="33"/>
      <point x="111" y="146"/>
      <point x="111" y="353" type="curve"/>
      <point x="99" y="337" type="line"/>
      <point x="654" y="337" type="line"/>
      <point x="654" y="376" type="line"/>
      <point x="89" y="376" type="line" smooth="yes"/>
      <point x="73" y="376"/>
      <point x="67" y="368"/>
      <point x="67" y="348" type="curve" smooth="yes"/>
      <point x="67" y="132"/>
      <point x="170" y="-8"/>
    </contour>
  </outline>
</glyph>
<glyph name="uhorn" format="2">
  <advance width="545"/>
  <unicode hex="01B0"/>
  <anchor x="273" y="0" name="bottom"/>
  <anchor x="273" y="484" name="top"/>
  <outline>
    <contour>
      <point x="254" y="-8" type="curve" smooth="yes"/>
      <point x="337" y="-8"/>
      <point x="406" y="37"/>
      <point x="431" y="121" type="curve"/>
      <point x="419" y="121" type="line"/>
      <point x="419" y="16" type="line" smooth="yes"/>
      <point x="419" y="2"/>
      <point x="427" y="-6"/>
      <point x="440" y="-6" type="curve" smooth="yes"/>
      <point x="453" y="-6"/>
      <point x="460" y="2"/>
      <point x="460" y="16" type="curve" smooth="yes"/>
      <point x="460" y="448" type="line"/>
      <point x="538" y="460"/>
      <point x="580" y="511"/>
      <point x="580" y="598" type="curve" smooth="yes"/>
      <point x="580" y="615"/>
      <point x="573" y="622"/>
      <point x="560" y="622" type="curve" smooth="yes"/>
      <point x="547" y="622"/>
      <point x="540" y="614"/>
      <point x="540" y="598" type="curve" smooth="yes"/>
      <point x="540" y="525"/>
      <point x="517" y="491"/>
      <point x="439" y="485" type="curve" smooth="yes"/>
      <point x="426" y="485"/>
      <point x="418" y="477"/>
      <point x="418" y="463" type="curve" smooth="yes"/>
      <point x="418" y="207" type="line" smooth="yes"/>
      <point x="418" y="101"/>
      <point x="351" y="31"/>
      <point x="254" y="31" type="curve" smooth="yes"/>
      <point x="165" y="31"/>
      <point x="125" y="79"/>
      <point x="125" y="181" type="curve" smooth="yes"/>
      <point x="125" y="468" type="line" smooth="yes"/>
      <point x="125" y="482"/>
      <point x="117" y="490"/>
      <point x="104" y="490" type="curve" smooth="yes"/>
      <point x="91" y="490"/>
      <point x="83" y="482"/>
      <point x="83" y="468" type="curve" smooth="yes"/>
      <point x="83" y="177" type="line" smooth="yes"/>
      <point x="83" y="56"/>
      <point x="139" y="-8"/>
    </contour>
  </outline>
</glyph>
<glyph name="yhook" format="2">
  <advance width="534"/>
  <unicode hex="01B4"/>
  <outline>
    <contour>
      <point x="180" y="-186" type="curve" smooth="yes"/>
      <point x="193" y="-186"/>
      <point x="198" y="-181"/>
      <point x="204" y="-168" type="curve" smooth="yes"/>
      <point x="434" y="370" type="line" smooth="yes"/>
      <point x="461" y="433"/>
      <point x="483" y="454"/>
      <point x="527" y="454" type="curve" smooth="yes"/>
      <point x="538" y="454"/>
      <point x="547" y="452"/>
      <point x="555" y="452" type="curve" smooth="yes"/>
      <point x="566" y="452"/>
      <point x="574" y="460"/>
      <point x="574" y="471" type="curve" smooth="yes"/>
      <point x="574" y="487"/>
      <point x="558" y="492"/>
      <point x="522" y="492" type="curve" smooth="yes"/>
      <point x="462" y="492"/>
      <point x="427" y="464"/>
      <point x="401" y="402" type="curve" smooth="yes"/>
      <point x="240" y="15" type="line"/>
      <point x="264" y="15" type="line"/>
      <point x="75" y="473" type="line" smooth="yes"/>
      <point x="70" y="484"/>
      <point x="64" y="490"/>
      <point x="52" y="490" type="curve" smooth="yes"/>
      <point x="32" y="490"/>
      <point x="25" y="476"/>
      <point x="33" y="457" type="curve" smooth="yes"/>
      <point x="233" y="-13" type="line"/>
      <point x="233" y="7" type="line"/>
      <point x="164" y="-152" type="line" smooth="yes"/>
      <point x="157" y="-169"/>
      <point x="161" y="-186"/>
    </contour>
  </outline>
</glyph>
<glyph name="gstroke" format="2">
  <advance width="570"/>
  <unicode hex="01E5"/>
  <outline>
    <contour>
      <point x="290" y="-188" type="curve" smooth="yes"/>
      <point x="394" y="-188"/>
      <point x="456" y="-142"/>
      <point x="477" y="-53" type="curve"/>
      <point x="456" y="-63" type="line"/>
      <point x="544" y="-63" type="line" smooth="yes"/>
      <point x="556" y="-63"/>
      <point x="563" y="-56"/>
      <point x="563" y="-45" type="curve" smooth="yes"/>
      <point x="563" y="-34"/>
      <point x="556" y="-27"/>
      <point x="544" y="-27" type="curve" smooth="yes"/>
      <point x="477" y="-27" type="line"/>
      <point x="480" y="-38" type="line"/>
      <point x="483" y="-21"/>
      <point x="485" y="1"/>
      <point x="485" y="22" type="curve" smooth="yes"/>
      <point x="485" y="468" type="line" smooth="yes"/>
      <point x="485" y="482"/>
      <point x="477" y="490"/>
      <point x="464" y="490" type="curve" smooth="yes"/>
      <point x="451" y="490"/>
      <point x="443" y="482"/>
      <point x="443" y="468" type="curve" smooth="yes"/>
      <point x="443" y="361" type="line"/>
      <point x="454" y="361" type="line"/>
      <point x="432" y="445"/>
      <point x="367" y="492"/>
      <point x="271" y="492" type="curve" smooth="yes"/>
      <point x="141" y="492"/>
      <point x="53" y="399"/>
      <point x="53" y="262" type="curve" smooth="yes"/>
      <point x="53" y="124"/>
      <point x="141" y="31"/>
      <point x="271" y="31" type="curve" smooth="yes"/>
      <point x="367" y="31"/>
      <point x="432" y="78"/>
      <point x="454" y="163" type="curve"/>
      <point x="444" y="163" type="line"/>
      <point x="444" y="15" type="line" smooth="yes"/>
      <point x="444" y="0"/>
      <point x="442" y="-22"/>
      <point x="439" y="-38" type="curve"/>
      <point x="444" y="-27" type="line"/>
      <point x="329" y="-27" type="line" smooth="yes"/>
      <point x="317" y="-27"/>
      <point x="310" y="-34"/>
      <point x="310" y="-45" type="curve" smooth="yes"/>
      <point x="310" y="-56"/>
      <point x="317" y="-63"/>
      <point x="329" y="-63" type="curve" smooth="yes"/>
      <point x="450" y="-63" type="line"/>
      <point x="435" y="-52" type="line"/>
      <point x="416" y="-115"/>
      <point x="368" y="-148"/>
      <point x="291" y="-149" type="curve" smooth="yes"/>
      <point x="226" y="-150"/>
      <point x="176" y="-135"/>
      <point x="117" y="-93" type="curve" smooth="yes"/>
      <point x="97" y="-79"/>
      <point x="77" y="-112"/>
      <point x="95" y="-126" type="curve" smooth="yes"/>
      <point x="149" y="-169"/>
      <point x="219" y="-188"/>
    </contour>
    <contour>
      <point x="270" y="70" type="curve" smooth="yes"/>
      <point x="163" y="70"/>
      <point x="96" y="142"/>
      <point x="96" y="262" type="curve" smooth="yes"/>
      <point x="96" y="381"/>
      <point x="163" y="453"/>
      <point x="270" y="453" type="curve" smooth="yes"/>
      <point x="378" y="453"/>
      <point x="443" y="380"/>
      <point x="443" y="262" type="curve" smooth="yes"/>
      <point x="443" y="143"/>
      <point x="378" y="70"/>
    </contour>
  </outline>
</glyph>
<glyph name="jdotless" format="2">
  <advance width="215"/>
  <unicode hex="0237"/>
  <anchor x="109" y="0" name="bottom"/>
  <anchor x="109" y="484" name="top"/>
  <outline>
    <contour>
      <point x="-36" y="-192" type="curve" smooth="yes"/>
      <point x="65" y="-192"/>
      <point x="130" y="-138"/>
      <point x="130" y="-21" type="curve" smooth="yes"/>
      <point x="130" y="468" type="line" smooth="yes"/>
      <point x="130" y="482"/>
      <point x="122" y="490"/>
      <point x="109" y="490" type="curve" smooth="yes"/>
      <point x="96" y="490"/>
      <point x="88" y="482"/>
      <point x="88" y="468" type="curve" smooth="yes"/>
      <point x="88" y="-22" type="line" smooth="yes"/>
      <point x="88" y="-114"/>
      <point x="46" y="-151"/>
      <point x="-39" y="-154" type="curve" smooth="yes"/>
      <point x="-68" y="-155"/>
      <point x="-65" y="-192"/>
    </contour>
  </outline>
</glyph>
<glyph name="commaturnedmod" format="2">
  <advance width="500"/>
  <unicode hex="02BB"/>
  <anchor x="250" y="484" name="_top"/>
  <anchor x="250" y="685" name="top"/>
  <outline>
    <contour>
      <point x="251" y="567" type="curve" smooth="yes"/>
      <point x="272" y="567"/>
      <point x="287" y="583"/>
      <point x="287" y="605" type="curve" smooth="yes"/>
      <point x="287" y="627"/>
      <point x="271" y="643"/>
      <point x="247" y="643" type="curve"/>
      <point x="250" y="634" type="line"/>
      <point x="250" y="655"/>
      <point x="257" y="681"/>
      <point x="273" y="704" type="curve" smooth="yes"/>
      <point x="291" y="730"/>
      <point x="266" y="749"/>
      <point x="247" y="725" type="curve" smooth="yes"/>
      <point x="224" y="696"/>
      <point x="213" y="649"/>
      <point x="213" y="615" type="curve" smooth="yes"/>
      <point x="213" y="583"/>
      <point x="228" y="567"/>
    </contour>
  </outline>
</glyph>
<glyph name="ringhalfright" format="2">
  <advance width="500"/>
  <unicode hex="02BE"/>
  <anchor x="250" y="484" name="_top"/>
  <anchor x="250" y="685" name="top"/>
  <outline>
    <contour>
      <point x="269" y="557" type="curve" smooth="yes"/>
      <point x="316" y="566"/>
      <point x="347" y="605"/>
      <point x="347" y="650" type="curve" smooth="yes"/>
      <point x="347" y="695"/>
      <point x="316" y="734"/>
      <point x="269" y="743" type="curve" smooth="yes"/>
      <point x="253" y="746"/>
      <point x="244" y="737"/>
      <point x="244" y="726" type="curve" smooth="yes"/>
      <point x="244" y="715"/>
      <point x="252" y="711"/>
      <point x="267" y="707" type="curve" smooth="yes"/>
      <point x="292" y="700"/>
      <point x="307" y="675"/>
      <point x="307" y="650" type="curve" smooth="yes"/>
      <point x="307" y="624"/>
      <point x="292" y="600"/>
      <point x="267" y="593" type="curve" smooth="yes"/>
      <point x="252" y="589"/>
      <point x="244" y="585"/>
      <point x="244" y="573" type="curve" smooth="yes"/>
      <point x="244" y="562"/>
      <point x="253" y="554"/>
    </contour>
  </outline>
</glyph>
<glyph name="verticallinelowmod" format="2">
  <advance width="500"/>
  <unicode hex="02CC"/>
  <outline>
    <contour>
      <point x="250" y="-276" type="curve" smooth="yes"/>
      <point x="264" y="-276"/>
      <point x="271" y="-268"/>
      <point x="271" y="-254" type="curve" smooth="yes"/>
      <point x="271" y="-85" type="line" smooth="yes"/>
      <point x="271" y="-71"/>
      <point x="263" y="-63"/>
      <point x="250" y="-63" type="curve" smooth="yes"/>
      <point x="237" y="-63"/>
      <point x="229" y="-71"/>
      <point x="229" y="-85" type="curve" smooth="yes"/>
      <point x="229" y="-254" type="line" smooth="yes"/>
      <point x="229" y="-268"/>
      <point x="237" y="-276"/>
    </contour>
  </outline>
</glyph>
<glyph name="circumflexcomb" format="2">
  <unicode hex="0302"/>
  <anchor x="0" y="484" name="_top"/>
  <anchor x="0" y="685" name="top"/>
  <outline>
    <contour>
      <point x="123" y="568" type="curve" smooth="yes"/>
      <point x="30" y="738" type="line" smooth="yes"/>
      <point x="22" y="753"/>
      <point x="12" y="758"/>
      <point x="0" y="758" type="curve" smooth="yes"/>
      <point x="-12" y="758"/>
      <point x="-22" y="753"/>
      <point x="-30" y="738" type="curve" smooth="yes"/>
      <point x="-123" y="568" type="line" smooth="yes"/>
      <point x="-134" y="547"/>
      <point x="-106" y="535"/>
      <point x="-96" y="552" type="curve" smooth="yes"/>
      <point x="0" y="710" type="line"/>
      <point x="96" y="552" type="line" smooth="yes"/>
      <point x="106" y="535"/>
      <point x="134" y="547"/>
    </contour>
  </outline>
</glyph>
<glyph name="brevecomb" format="2">
  <unicode hex="0306"/>
  <anchor x="0" y="484" name="_top"/>
  <anchor x="0" y="685" name="top"/>
  <outline>
    <contour>
      <point x="0" y="547" type="curve" smooth="yes"/>
      <point x="78" y="547"/>
      <point x="133" y="608"/>
      <point x="143" y="720" type="curve" smooth="yes"/>
      <point x="144" y="732"/>
      <point x="135" y="740"/>
      <point x="126" y="740" type="curve" smooth="yes"/>
      <point x="118" y="740"/>
      <point x="111" y="734"/>
      <point x="110" y="723" type="curve" smooth="yes"/>
      <point x="103" y="630"/>
      <point x="61" y="583"/>
      <point x="0" y="583" type="curve" smooth="yes"/>
      <point x="-61" y="583"/>
      <point x="-101" y="630"/>
      <point x="-110" y="723" type="curve" smooth="yes"/>
      <point x="-111" y="734"/>
      <point x="-118" y="740"/>
      <point x="-126" y="740" type="curve" smooth="yes"/>
      <point x="-135" y="740"/>
      <point x="-144" y="732"/>
      <point x="-143" y="720" type="curve" smooth="yes"/>
      <point x="-132" y="608"/>
      <point x="-78" y="547"/>
    </contour>
  </outline>
</glyph>
<glyph name="dieresiscomb" format="2">
  <unicode hex="0308"/>
  <anchor x="0" y="484" name="_top"/>
  <anchor x="0" y="685" name="top"/>
  <outline>
    <contour>
      <point x="81" y="617" type="curve" smooth="yes"/>
      <point x="102" y="617"/>
      <point x="114" y="629"/>
      <point x="114" y="650" type="curve" smooth="yes"/>
      <point x="114" y="671"/>
      <point x="102" y="683"/>
      <point x="81" y="683" type="curve" smooth="yes"/>
      <point x="60" y="683"/>
      <point x="47" y="671"/>
      <point x="47" y="650" type="curve" smooth="yes"/>
      <point x="47" y="629"/>
      <point x="60" y="617"/>
    </contour>
    <contour>
      <point x="-80" y="617" type="curve" smooth="yes"/>
      <point x="-59" y="617"/>
      <point x="-47" y="629"/>
      <point x="-47" y="650" type="curve" smooth="yes"/>
      <point x="-47" y="671"/>
      <point x="-59" y="683"/>
      <point x="-80" y="683" type="curve" smooth="yes"/>
      <point x="-101" y="683"/>
      <point x="-114" y="671"/>
      <point x="-114" y="650" type="curve" smooth="yes"/>
      <point x="-114" y="629"/>
      <point x="-101" y="617"/>
    </contour>
  </outline>
</glyph>
<glyph name="hookabovecomb" format="2">
  <unicode hex="0309"/>
  <anchor x="0" y="484" name="_top"/>
  <anchor x="0" y="685" name="top"/>
  <outline>
    <contour>
      <point x="0" y="543" type="curve" smooth="yes"/>
      <point x="12" y="543"/>
      <point x="18" y="549"/>
      <point x="18" y="561" type="curve" smooth="yes"/>
      <point x="18" y="623"/>
      <point x="91" y="623"/>
      <point x="91" y="689" type="curve" smooth="yes"/>
      <point x="91" y="730"/>
      <point x="58" y="754"/>
      <point x="2" y="754" type="curve" smooth="yes"/>
      <point x="-22" y="754"/>
      <point x="-45" y="750"/>
      <point x="-64" y="741" type="curve" smooth="yes"/>
      <point x="-79" y="734"/>
      <point x="-81" y="725"/>
      <point x="-78" y="715" type="curve" smooth="yes"/>
      <point x="-75" y="706"/>
      <point x="-68" y="702"/>
      <point x="-53" y="708" type="curve" smooth="yes"/>
      <point x="-37" y="715"/>
      <point x="-17" y="718"/>
      <point x="-2" y="718" type="curve" smooth="yes"/>
      <point x="34" y="718"/>
      <point x="50" y="707"/>
      <point x="50" y="687" type="curve" smooth="yes"/>
      <point x="50" y="646"/>
      <point x="-18" y="636"/>
      <point x="-18" y="561" type="curve" smooth="yes"/>
      <point x="-18" y="549"/>
      <point x="-11" y="543"/>
    </contour>
  </outline>
</glyph>
<glyph name="hungarumlautcomb" format="2">
  <unicode hex="030B"/>
  <anchor x="0" y="484" name="_top"/>
  <anchor x="0" y="685" name="top"/>
  <outline>
    <contour>
      <point x="70" y="553" type="curve" smooth="yes"/>
      <point x="139" y="729" type="line" smooth="yes"/>
      <point x="151" y="759"/>
      <point x="106" y="772"/>
      <point x="95" y="736" type="curve" smooth="yes"/>
      <point x="44" y="561" type="line" smooth="yes"/>
      <point x="39" y="543"/>
      <point x="64" y="537"/>
    </contour>
    <contour>
      <point x="-39" y="553" type="curve" smooth="yes"/>
      <point x="30" y="729" type="line" smooth="yes"/>
      <point x="42" y="759"/>
      <point x="-3" y="772"/>
      <point x="-14" y="736" type="curve" smooth="yes"/>
      <point x="-65" y="561" type="line" smooth="yes"/>
      <point x="-70" y="543"/>
      <point x="-45" y="537"/>
    </contour>
  </outline>
</glyph>
<glyph name="breveinvertedcomb" format="2">
  <unicode hex="0311"/>
  <anchor x="0" y="484" name="_top"/>
  <anchor x="0" y="685" name="top"/>
  <outline>
    <contour>
      <point x="-126" y="545" type="curve" smooth="yes"/>
      <point x="-118" y="545"/>
      <point x="-111" y="551"/>
      <point x="-110" y="562" type="curve" smooth="yes"/>
      <point x="-102" y="655"/>
      <point x="-61" y="702"/>
      <point x="0" y="702" type="curve" smooth="yes"/>
      <point x="61" y="702"/>
      <point x="102" y="655"/>
      <point x="110" y="562" type="curve" smooth="yes"/>
      <point x="111" y="551"/>
      <point x="118" y="545"/>
      <point x="126" y="545" type="curve" smooth="yes"/>
      <point x="135" y="545"/>
      <point x="144" y="553"/>
      <point x="143" y="565" type="curve" smooth="yes"/>
      <point x="134" y="677"/>
      <point x="78" y="738"/>
      <point x="0" y="738" type="curve" smooth="yes"/>
      <point x="-78" y="738"/>
      <point x="-134" y="677"/>
      <point x="-143" y="565" type="curve" smooth="yes"/>
      <point x="-144" y="553"/>
      <point x="-135" y="545"/>
    </contour>
  </outline>
</glyph>
<glyph name="commaturnedabovecomb" format="2">
  <unicode hex="0312"/>
  <anchor x="0" y="484" name="_top"/>
  <anchor x="0" y="685" name="top"/>
  <outline>
    <contour>
      <point x="1" y="567" type="curve" smooth="yes"/>
      <point x="22" y="567"/>
      <point x="37" y="583"/>
      <point x="37" y="605" type="curve" smooth="yes"/>
      <point x="37" y="627"/>
      <point x="21" y="643"/>
      <point x="-3" y="643" type="curve"/>
      <point x="0" y="634" type="line"/>
      <point x="0" y="655"/>
      <point x="7" y="681"/>
      <point x="23" y="704" type="curve" smooth="yes"/>
      <point x="41" y="730"/>
      <point x="16" y="749"/>
      <point x="-3" y="725" type="curve" smooth="yes"/>
      <point x="-26" y="696"/>
      <point x="-37" y="649"/>
      <point x="-37" y="615" type="curve" smooth="yes"/>
      <point x="-37" y="583"/>
      <point x="-22" y="567"/>
    </contour>
  </outline>
</glyph>
<glyph name="dieresisbelowcomb" format="2">
  <unicode hex="0324"/>
  <anchor x="0" y="0" name="_bottom"/>
  <anchor x="0" y="-170" name="bottom"/>
  <outline>
    <contour>
      <point x="81" y="-174" type="curve" smooth="yes"/>
      <point x="102" y="-174"/>
      <point x="114" y="-162"/>
      <point x="114" y="-141" type="curve" smooth="yes"/>
      <point x="114" y="-120"/>
      <point x="102" y="-108"/>
      <point x="81" y="-108" type="curve" smooth="yes"/>
      <point x="60" y="-108"/>
      <point x="47" y="-120"/>
      <point x="47" y="-141" type="curve" smooth="yes"/>
      <point x="47" y="-162"/>
      <point x="60" y="-174"/>
    </contour>
    <contour>
      <point x="-80" y="-174" type="curve" smooth="yes"/>
      <point x="-59" y="-174"/>
      <point x="-47" y="-162"/>
      <point x="-47" y="-141" type="curve" smooth="yes"/>
      <point x="-47" y="-120"/>
      <point x="-59" y="-108"/>
      <point x="-80" y="-108" type="curve" smooth="yes"/>
      <point x="-101" y="-108"/>
      <point x="-114" y="-120"/>
      <point x="-114" y="-141" type="curve" smooth="yes"/>
      <point x="-114" y="-162"/>
      <point x="-101" y="-174"/>
    </contour>
  </outline>
</glyph>
<glyph name="strokeshortcomb" format="2">
  <unicode hex="0335"/>
  <anchor x="0" y="540" name="_stroke"/>
  <outline>
    <contour>
      <point x="-153" y="522" type="curve" smooth="yes"/>
      <point x="153" y="522" type="line" smooth="yes"/>
      <point x="166" y="522"/>
      <point x="173" y="529"/>
      <point x="173" y="540" type="curve" smooth="yes"/>
      <point x="173" y="551"/>
      <point x="166" y="558"/>
      <point x="153" y="558" type="curve" smooth="yes"/>
      <point x="-153" y="558" type="line" smooth="yes"/>
      <point x="-166" y="558"/>
      <point x="-173" y="551"/>
      <point x="-173" y="540" type="curve" smooth="yes"/>
      <point x="-173" y="529"/>
      <point x="-166" y="522"/>
    </contour>
  </outline>
</glyph>
<glyph name="slashshortcomb" format="2">
  <unicode hex="0337"/>
  <anchor x="0" y="357" name="_center"/>
  <outline>
    <contour>
      <point x="-92" y="281" type="curve" smooth="yes"/>
      <point x="110" y="399" type="line" smooth="yes"/>
      <point x="136" y="414"/>
      <point x="116" y="447"/>
      <point x="92" y="433" type="curve" smooth="yes"/>
      <point x="-110" y="315" type="line" smooth="yes"/>
      <point x="-136" y="300"/>
      <point x="-116" y="267"/>
    </contour>
  </outline>
</glyph>
<glyph name="slashlongcomb" format="2">
  <unicode hex="0338"/>
  <anchor x="0" y="245" name="_center"/>
  <outline>
    <contour>
      <point x="-134" y="-23" type="curve" smooth="yes"/>
      <point x="163" y="493" type="line" smooth="yes"/>
      <point x="177" y="517"/>
      <point x="147" y="535"/>
      <point x="134" y="513" type="curve" smooth="yes"/>
      <point x="-163" y="-3" type="line" smooth="yes"/>
      <point x="-177" y="-28"/>
      <point x="-147" y="-45"/>
    </contour>
  </outline>
</glyph>
<glyph name="Omega" format="2">
  <advance width="760"/>
  <unicode hex="03A9"/>
  <outline>
    <contour>
      <point x="60" y="0" type="curve" smooth="yes"/>
      <point x="298" y="0" type="line" smooth="yes"/>
      <point x="311" y="0"/>
      <point x="320" y="9"/>
      <point x="320" y="22" type="curve" smooth="yes"/>
      <point x="320" y="31"/>
      <point x="315" y="39"/>
      <point x="306" y="45" type="curve" smooth="yes"/>
      <point x="169" y="144"/>
      <point x="106" y="258"/>
      <point x="106" y="394" type="curve" smooth="yes"/>
      <point x="106" y="570"/>
      <point x="209" y="672"/>
      <point x="380" y="672" type="curve" smooth="yes"/>
      <point x="551" y="672"/>
      <point x="654" y="571"/>
      <point x="654" y="394" type="curve" smooth="yes"/>
      <point x="654" y="258"/>
      <point x="591" y="144"/>
      <point x="454" y="45" type="curve" smooth="yes"/>
      <point x="446" y="40"/>
      <point x="441" y="33"/>
      <point x="441" y="23" type="curve" smooth="yes"/>
      <point x="441" y="9"/>
      <point x="450" y="0"/>
      <point x="462" y="0" type="curve" smooth="yes"/>
      <point x="700" y="0" type="line" smooth="yes"/>
      <point x="713" y="0"/>
      <point x="721" y="7"/>
      <point x="721" y="19" type="curve" smooth="yes"/>
      <point x="721" y="31"/>
      <point x="713" y="38"/>
      <point x="700" y="38" type="curve" smooth="yes"/>
      <point x="475" y="38" type="line"/>
      <point x="475" y="22" type="line"/>
      <point x="627" y="119"/>
      <point x="699" y="244"/>
      <point x="699" y="394" type="curve" smooth="yes"/>
      <point x="699" y="594"/>
      <point x="575" y="713"/>
      <point x="380" y="713" type="curve" smooth="yes"/>
      <point x="185" y="713"/>
      <point x="61" y="593"/>
      <point x="61" y="394" type="curve" smooth="yes"/>
      <point x="61" y="244"/>
      <point x="133" y="119"/>
      <point x="285" y="22" type="curve"/>
      <point x="285" y="38" type="line"/>
      <point x="60" y="38" type="line" smooth="yes"/>
      <point x="47" y="38"/>
      <point x="39" y="31"/>
      <point x="39" y="19" type="curve" smooth="yes"/>
      <point x="39" y="7"/>
      <point x="47" y="0"/>
    </contour>
  </outline>
</glyph>
<glyph name="E-cy" format="2">
  <advance width="667"/>
  <unicode hex="0404"/>
  <anchor x="380" y="0" name="bottom"/>
  <anchor x="382" y="705" name="top"/>
  <outline>
    <contour>
      <point x="381" y="-8" type="curve" smooth="yes"/>
      <point x="469" y="-8"/>
      <point x="548" y="18"/>
      <point x="608" y="76" type="curve" smooth="yes"/>
      <point x="630" y="97"/>
      <point x="611" y="134"/>
      <point x="581" y="107" type="curve" smooth="yes"/>
      <point x="524" y="56"/>
      <point x="463" y="33"/>
      <point x="380" y="33" type="curve" smooth="yes"/>
      <point x="208" y="33"/>
      <point x="114" y="150"/>
      <point x="112" y="347" type="curve"/>
      <point x="92" y="338" type="line"/>
      <point x="479" y="338" type="line" smooth="yes"/>
      <point x="494" y="338"/>
      <point x="502" y="345"/>
      <point x="502" y="358" type="curve" smooth="yes"/>
      <point x="502" y="370"/>
      <point x="494" y="377"/>
      <point x="479" y="377" type="curve" smooth="yes"/>
      <point x="93" y="377" type="line"/>
      <point x="112" y="364" type="line"/>
      <point x="115" y="555"/>
      <point x="208" y="672"/>
      <point x="380" y="672" type="curve" smooth="yes"/>
      <point x="462" y="672"/>
      <point x="523" y="650"/>
      <point x="583" y="596" type="curve" smooth="yes"/>
      <point x="609" y="572"/>
      <point x="635" y="604"/>
      <point x="610" y="628" type="curve" smooth="yes"/>
      <point x="549" y="687"/>
      <point x="470" y="713"/>
      <point x="381" y="713" type="curve" smooth="yes"/>
      <point x="183" y="713"/>
      <point x="67" y="576"/>
      <point x="67" y="353" type="curve" smooth="yes"/>
      <point x="67" y="129"/>
      <point x="183" y="-8"/>
    </contour>
  </outline>
</glyph>
<glyph name="Lje-cy" format="2">
  <advance width="1126"/>
  <unicode hex="0409"/>
  <outline>
    <contour>
      <point x="598" y="0" type="curve" smooth="yes"/>
      <point x="844" y="0" type="line" smooth="yes"/>
      <point x="990" y="0"/>
      <point x="1072" y="64"/>
      <point x="1072" y="191" type="curve" smooth="yes"/>
      <point x="1072" y="318"/>
      <point x="990" y="379"/>
      <point x="844" y="379" type="curve" smooth="yes"/>
      <point x="615" y="379" type="line"/>
      <point x="615" y="680" type="line" smooth="yes"/>
      <point x="615" y="696"/>
      <point x="606" y="705"/>
      <point x="590" y="705" type="curve" smooth="yes"/>
      <point x="220" y="705" type="line" smooth="yes"/>
      <point x="204" y="705"/>
      <point x="195" y="696"/>
      <point x="195" y="680" type="curve" smooth="yes"/>
      <point x="195" y="495" type="line" smooth="yes"/>
      <point x="195" y="183"/>
      <point x="132" y="88"/>
      <point x="37" y="34" type="curve" smooth="yes"/>
      <point x="23" y="26"/>
      <point x="19" y="17"/>
      <point x="25" y="4" type="curve" smooth="yes"/>
      <point x="30" y="-8"/>
      <point x="41" y="-11"/>
      <point x="55" y="-3" type="curve" smooth="yes"/>
      <point x="174" y="63"/>
      <point x="235" y="188"/>
      <point x="235" y="485" type="curve" smooth="yes"/>
      <point x="235" y="666" type="line"/>
      <point x="573" y="666" type="line"/>
      <point x="573" y="25" type="line" smooth="yes"/>
      <point x="573" y="9"/>
      <point x="582" y="0"/>
    </contour>
    <contour>
      <point x="615" y="39" type="line"/>
      <point x="615" y="340" type="line"/>
      <point x="843" y="340" type="line" smooth="yes"/>
      <point x="966" y="340"/>
      <point x="1028" y="292"/>
      <point x="1028" y="190" type="curve" smooth="yes"/>
      <point x="1028" y="88"/>
      <point x="966" y="39"/>
      <point x="843" y="39" type="curve" smooth="yes"/>
    </contour>
  </outline>
</glyph>
<glyph name="Nje-cy" format="2">
  <advance width="1166"/>
  <unicode hex="040A"/>
  <outline>
    <contour>
      <point x="117" y="-6" type="curve" smooth="yes"/>
      <point x="131" y="-6"/>
      <point x="138" y="2"/>
      <point x="138" y="16" type="curve" smooth="yes"/>
      <point x="138" y="338" type="line"/>
      <point x="613" y="338" type="line"/>
      <point x="613" y="25" type="line" smooth="yes"/>
      <point x="613" y="9"/>
      <point x="622" y="0"/>
      <point x="638" y="0" type="curve" smooth="yes"/>
      <point x="884" y="0" type="line" smooth="yes"/>
      <point x="1030" y="0"/>
      <point x="1112" y="64"/>
      <point x="1112" y="191" type="curve" smooth="yes"/>
      <point x="1112" y="318"/>
      <point x="1030" y="379"/>
      <point x="884" y="379" type="curve" smooth="yes"/>
      <point x="655" y="379" type="line"/>
      <point x="655" y="689" type="line" smooth="yes"/>
      <point x="655" y="703"/>
      <point x="647" y="711"/>
      <point x="634" y="711" type="curve" smooth="yes"/>
      <point x="621" y="711"/>
      <point x="613" y="703"/>
      <point x="613" y="689" type="curve" smooth="yes"/>
      <point x="613" y="377" type="line"/>
      <point x="138" y="377" type="line"/>
      <point x="138" y="689" type="line" smooth="yes"/>
      <point x="138" y="703"/>
      <point x="130" y="711"/>
      <point x="117" y="711" type="curve" smooth="yes"/>
      <point x="104" y="711"/>
      <point x="96" y="703"/>
      <point x="96" y="689" type="curve" smooth="yes"/>
      <point x="96" y="16" type="line" smooth="yes"/>
      <point x="96" y="2"/>
      <point x="104" y="-6"/>
    </contour>
    <contour>
      <point x="655" y="39" type="line"/>
      <point x="655" y="340" type="line"/>
      <point x="883" y="340" type="line" smooth="yes"/>
      <point x="1006" y="340"/>
      <point x="1068" y="292"/>
      <point x="1068" y="190" type="curve" smooth="yes"/>
      <point x="1068" y="88"/>
      <point x="1006" y="39"/>
      <point x="883" y="39" type="curve" smooth="yes"/>
    </contour>
  </outline>
</glyph>
<glyph name="Tshe-cy" format="2">
  <advance width="833"/>
  <unicode hex="040B"/>
  <outline>
    <contour>
      <point x="293" y="-6" type="curve" smooth="yes"/>
      <point x="307" y="-6"/>
      <point x="314" y="2"/>
      <point x="314" y="16" type="curve" smooth="yes"/>
      <point x="314" y="341" type="line"/>
      <point x="370" y="376"/>
      <point x="435" y="388"/>
      <point x="504" y="388" type="curve" smooth="yes"/>
      <point x="652" y="388"/>
      <point x="729" y="310"/>
      <point x="729" y="140" type="curve" smooth="yes"/>
      <point x="729" y="16" type="line" smooth="yes"/>
      <point x="729" y="2"/>
      <point x="737" y="-6"/>
      <point x="750" y="-6" type="curve" smooth="yes"/>
      <point x="763" y="-6"/>
      <point x="771" y="2"/>
      <point x="771" y="16" type="curve" smooth="yes"/>
      <point x="771" y="146" type="line" smooth="yes"/>
      <point x="771" y="333"/>
      <point x="678" y="429"/>
      <point x="504" y="429" type="curve" smooth="yes"/>
      <point x="435" y="429"/>
      <point x="360" y="415"/>
      <point x="314" y="387" type="curve"/>
      <point x="314" y="666" type="line"/>
      <point x="567" y="666" type="line" smooth="yes"/>
      <point x="581" y="666"/>
      <point x="589" y="673"/>
      <point x="589" y="686" type="curve" smooth="yes"/>
      <point x="589" y="698"/>
      <point x="581" y="705"/>
      <point x="567" y="705" type="curve" smooth="yes"/>
      <point x="19" y="705" type="line" smooth="yes"/>
      <point x="5" y="705"/>
      <point x="-3" y="698"/>
      <point x="-3" y="686" type="curve" smooth="yes"/>
      <point x="-3" y="674"/>
      <point x="5" y="666"/>
      <point x="19" y="666" type="curve" smooth="yes"/>
      <point x="272" y="666" type="line"/>
      <point x="272" y="16" type="line" smooth="yes"/>
      <point x="272" y="2"/>
      <point x="280" y="-6"/>
    </contour>
  </outline>
</glyph>
<glyph name="De-cy" format="2">
  <advance width="760"/>
  <unicode hex="0414"/>
  <outline>
    <contour>
      <point x="39" y="-156" type="curve" smooth="yes"/>
      <point x="52" y="-156"/>
      <point x="59" y="-148"/>
      <point x="59" y="-134" type="curve" smooth="yes"/>
      <point x="59" y="0" type="line"/>
      <point x="697" y="0" type="line"/>
      <point x="697" y="-134" type="line" smooth="yes"/>
      <point x="697" y="-148"/>
      <point x="704" y="-156"/>
      <point x="717" y="-156" type="curve" smooth="yes"/>
      <point x="730" y="-156"/>
      <point x="737" y="-148"/>
      <point x="737" y="-134" type="curve" smooth="yes"/>
      <point x="737" y="14" type="line" smooth="yes"/>
      <point x="737" y="30"/>
      <point x="728" y="39"/>
      <point x="712" y="39" type="curve" smooth="yes"/>
      <point x="618" y="39" type="line"/>
      <point x="637" y="20" type="line"/>
      <point x="637" y="680" type="line" smooth="yes"/>
      <point x="637" y="696"/>
      <point x="628" y="705"/>
      <point x="612" y="705" type="curve" smooth="yes"/>
      <point x="222" y="705" type="line" smooth="yes"/>
      <point x="206" y="705"/>
      <point x="197" y="696"/>
      <point x="197" y="680" type="curve" smooth="yes"/>
      <point x="197" y="525" type="line" smooth="yes"/>
      <point x="197" y="281"/>
      <point x="160" y="125"/>
      <point x="81" y="32" type="curve"/>
      <point x="106" y="39" type="line"/>
      <point x="44" y="39" type="line" smooth="yes"/>
      <point x="28" y="39"/>
      <point x="19" y="30"/>
      <point x="19" y="14" type="curve" smooth="yes"/>
      <point x="19" y="-134" type="line" smooth="yes"/>
      <point x="19" y="-148"/>
      <point x="26" y="-156"/>
    </contour>
    <contour>
      <point x="134" y="39" type="line"/>
      <point x="206" y="142"/>
      <point x="237" y="289"/>
      <point x="237" y="525" type="curve" smooth="yes"/>
      <point x="237" y="666" type="line"/>
      <point x="595" y="666" type="line"/>
      <point x="595" y="39" type="line"/>
    </contour>
  </outline>
</glyph>
<glyph name="Zhe-cy" format="2">
  <advance width="928"/>
  <unicode hex="0416"/>
  <anchor x="865" y="0" name="bottomright"/>
  <anchor x="464" y="705" name="top"/>
  <outline>
    <contour>
      <point x="464" y="-6" type="curve" smooth="yes"/>
      <point x="477" y="-6"/>
      <point x="485" y="2"/>
      <point x="485" y="16" type="curve" smooth="yes"/>
      <point x="485" y="339" type="line"/>
      <point x="588" y="339" type="line" smooth="yes"/>
      <point x="667" y="339"/>
      <point x="719" y="303"/>
      <point x="764" y="210" type="curve" smooth="yes"/>
      <point x="862" y="9" type="line" smooth="yes"/>
      <point x="875" y="-17"/>
      <point x="913" y="-3"/>
      <point x="901" y="22" type="curve" smooth="yes"/>
      <point x="794" y="239" type="line" smooth="yes"/>
      <point x="753" y="322"/>
      <point x="698" y="370"/>
      <point x="623" y="376" type="curve"/>
      <point x="636" y="359" type="line"/>
      <point x="855" y="680" type="line" smooth="yes"/>
      <point x="871" y="703"/>
      <point x="836" y="723"/>
      <point x="819" y="699" type="curve" smooth="yes"/>
      <point x="590" y="363" type="line"/>
      <point x="613" y="378" type="line"/>
      <point x="485" y="378" type="line"/>
      <point x="485" y="689" type="line" smooth="yes"/>
      <point x="485" y="703"/>
      <point x="477" y="711"/>
      <point x="464" y="711" type="curve" smooth="yes"/>
      <point x="451" y="711"/>
      <point x="443" y="703"/>
      <point x="443" y="689" type="curve" smooth="yes"/>
      <point x="443" y="378" type="line"/>
      <point x="317" y="378" type="line"/>
      <point x="338" y="363" type="line"/>
      <point x="109" y="699" type="line" smooth="yes"/>
      <point x="92" y="723"/>
      <point x="57" y="703"/>
      <point x="73" y="680" type="curve" smooth="yes"/>
      <point x="292" y="359" type="line"/>
      <point x="305" y="376" type="line"/>
      <point x="230" y="370"/>
      <point x="173" y="322"/>
      <point x="132" y="239" type="curve" smooth="yes"/>
      <point x="25" y="22" type="line" smooth="yes"/>
      <point x="13" y="-3"/>
      <point x="51" y="-17"/>
      <point x="64" y="9" type="curve" smooth="yes"/>
      <point x="162" y="210" type="line" smooth="yes"/>
      <point x="206" y="301"/>
      <point x="259" y="339"/>
      <point x="340" y="339" type="curve" smooth="yes"/>
      <point x="443" y="339" type="line"/>
      <point x="443" y="16" type="line" smooth="yes"/>
      <point x="443" y="2"/>
      <point x="451" y="-6"/>
    </contour>
  </outline>
</glyph>
<glyph name="Ka-cy" format="2">
  <advance width="611"/>
  <unicode hex="041A"/>
  <anchor x="547" y="0" name="bottomright"/>
  <anchor x="307" y="353" name="center"/>
  <anchor x="316" y="705" name="top"/>
  <anchor x="138" y="705" name="topleft"/>
  <outline>
    <contour>
      <point x="117" y="-6" type="curve" smooth="yes"/>
      <point x="131" y="-6"/>
      <point x="138" y="2"/>
      <point x="138" y="16" type="curve" smooth="yes"/>
      <point x="138" y="339" type="line"/>
      <point x="271" y="339" type="line" smooth="yes"/>
      <point x="350" y="339"/>
      <point x="402" y="303"/>
      <point x="447" y="210" type="curve" smooth="yes"/>
      <point x="545" y="9" type="line" smooth="yes"/>
      <point x="558" y="-17"/>
      <point x="596" y="-3"/>
      <point x="584" y="22" type="curve" smooth="yes"/>
      <point x="477" y="239" type="line" smooth="yes"/>
      <point x="436" y="322"/>
      <point x="381" y="370"/>
      <point x="306" y="376" type="curve"/>
      <point x="319" y="359" type="line"/>
      <point x="538" y="680" type="line" smooth="yes"/>
      <point x="554" y="703"/>
      <point x="519" y="723"/>
      <point x="502" y="699" type="curve" smooth="yes"/>
      <point x="273" y="363" type="line"/>
      <point x="296" y="378" type="line"/>
      <point x="138" y="378" type="line"/>
      <point x="138" y="689" type="line" smooth="yes"/>
      <point x="138" y="703"/>
      <point x="130" y="711"/>
      <point x="117" y="711" type="curve" smooth="yes"/>
      <point x="104" y="711"/>
      <point x="96" y="703"/>
      <point x="96" y="689" type="curve" smooth="yes"/>
      <point x="96" y="16" type="line" smooth="yes"/>
      <point x="96" y="2"/>
      <point x="104" y="-6"/>
    </contour>
  </outline>
</glyph>
<glyph name="U-cy" format="2">
  <advance width="628"/>
  <unicode hex="0423"/>
  <anchor x="315" y="705" name="top"/>
  <outline>
    <contour>
      <point x="241" y="-6" type="curve" smooth="yes"/>
      <point x="251" y="-6"/>
      <point x="258" y="-2"/>
      <point x="263" y="8" type="curve" smooth="yes"/>
      <point x="610" y="680" type="line" smooth="yes"/>
      <point x="620" y="699"/>
      <point x="609" y="711"/>
      <point x="595" y="711" type="curve" smooth="yes"/>
      <point x="585" y="711"/>
      <point x="579" y="707"/>
      <point x="574" y="697" type="curve" smooth="yes"/>
      <point x="338" y="240" type="line"/>
      <point x="350" y="240" type="line"/>
      <point x="62" y="697" type="line" smooth="yes"/>
      <point x="56" y="706"/>
      <point x="49" y="711"/>
      <point x="40" y="711" type="curve" smooth="yes"/>
      <point x="26" y="711"/>
      <point x="16" y="696"/>
      <point x="27" y="678" type="curve" smooth="yes"/>
      <point x="329" y="198" type="line"/>
      <point x="329" y="223" type="line"/>
      <point x="226" y="25" type="line" smooth="yes"/>
      <point x="216" y="6"/>
      <point x="227" y="-6"/>
    </contour>
  </outline>
</glyph>
<glyph name="Yeru-cy" format="2">
  <advance width="813"/>
  <unicode hex="042B"/>
  <anchor x="407" y="705" name="top"/>
  <outline>
    <contour>
      <point x="121" y="0" type="curve" smooth="yes"/>
      <point x="337" y="0" type="line" smooth="yes"/>
      <point x="483" y="0"/>
      <point x="565" y="64"/>
      <point x="565" y="191" type="curve" smooth="yes"/>
      <point x="565" y="318"/>
      <point x="483" y="379"/>
      <point x="337" y="379" type="curve" smooth="yes"/>
      <point x="138" y="379" type="line"/>
      <point x="138" y="689" type="line" smooth="yes"/>
      <point x="138" y="703"/>
      <point x="130" y="711"/>
      <point x="117" y="711" type="curve" smooth="yes"/>
      <point x="104" y="711"/>
      <point x="96" y="703"/>
      <point x="96" y="689" type="curve" smooth="yes"/>
      <point x="96" y="25" type="line" smooth="yes"/>
      <point x="96" y="9"/>
      <point x="105" y="0"/>
    </contour>
    <contour>
      <point x="138" y="39" type="line"/>
      <point x="138" y="340" type="line"/>
      <point x="336" y="340" type="line" smooth="yes"/>
      <point x="459" y="340"/>
      <point x="521" y="292"/>
      <point x="521" y="190" type="curve" smooth="yes"/>
      <point x="521" y="88"/>
      <point x="459" y="39"/>
      <point x="336" y="39" type="curve" smooth="yes"/>
    </contour>
    <contour>
      <point x="696" y="-6" type="curve" smooth="yes"/>
      <point x="710" y="-6"/>
      <point x="717" y="2"/>
      <point x="717" y="16" type="curve" smooth="yes"/>
      <point x="717" y="689" type="line" smooth="yes"/>
      <point x="717" y="703"/>
      <point x="709" y="711"/>
      <point x="696" y="711" type="curve" smooth="yes"/>
      <point x="683" y="711"/>
      <point x="675" y="703"/>
      <point x="675" y="689" type="curve" smooth="yes"/>
      <point x="675" y="16" type="line" smooth="yes"/>
      <point x="675" y="2"/>
      <point x="683" y="-6"/>
    </contour>
  </outline>
</glyph>
<glyph name="Softsign-cy" format="2">
  <advance width="649"/>
  <unicode hex="042C"/>
  <outline>
    <contour>
      <point x="121" y="0" type="curve" smooth="yes"/>
      <point x="367" y="0" type="line" smooth="yes"/>
      <point x="513" y="0"/>
      <point x="595" y="64"/>
      <point x="595" y="191" type="curve" smooth="yes"/>
      <point x="595" y="318"/>
      <point x="513" y="379"/>
      <point x="367" y="379" type="curve" smooth="yes"/>
      <point x="138" y="379" type="line"/>
      <point x="138" y="689" type="line" smooth="yes"/>
      <point x="138" y="703"/>
      <point x="130" y="711"/>
      <point x="117" y="711" type="curve" smooth="yes"/>
      <point x="104" y="711"/>
      <point x="96" y="703"/>
      <point x="96" y="689" type="curve" smooth="yes"/>
      <point x="96" y="25" type="line" smooth="yes"/>
      <point x="96" y="9"/>
      <point x="105" y="0"/>
    </contour>
    <contour>
      <point x="138" y="39" type="line"/>
      <point x="138" y="340" type="line"/>
      <point x="366" y="340" type="line" smooth="yes"/>
      <point x="489" y="340"/>
      <point x="551" y="292"/>
      <point x="551" y="190" type="curve" smooth="yes"/>
      <point x="551" y="88"/>
      <point x="489" y="39"/>
      <point x="366" y="39" type="curve" smooth="yes"/>
    </contour>
  </outline>
</glyph>
<glyph name="be-cy" format="2">
  <advance width="544"/>
  <unicode hex="0431"/>
  <outline>
    <contour>
      <point x="272" y="-8" type="curve" smooth="yes"/>
      <point x="405" y="-8"/>
      <point x="488" y="90"/>
      <point x="488" y="242" type="curve" smooth="yes"/>
      <point x="488" y="394"/>
      <point x="405" y="492"/>
      <point x="275" y="492" type="curve" smooth="yes"/>
      <point x="188" y="492"/>
      <point x="113" y="443"/>
      <point x="88" y="354" type="curve"/>
      <point x="98" y="354" type="line"/>
      <point x="98" y="381" type="line" smooth="yes"/>
      <point x="98" y="499"/>
      <point x="154" y="588"/>
      <point x="268" y="622" type="curve" smooth="yes"/>
      <point x="437" y="673" type="line" smooth="yes"/>
      <point x="452" y="678"/>
      <point x="458" y="687"/>
      <point x="454" y="700" type="curve" smooth="yes"/>
      <point x="450" y="712"/>
      <point x="439" y="716"/>
      <point x="425" y="712" type="curve" smooth="yes"/>
      <point x="266" y="663" type="line" smooth="yes"/>
      <point x="123" y="619"/>
      <point x="56" y="530"/>
      <point x="56" y="339" type="curve" smooth="yes"/>
      <point x="56" y="262" type="line" smooth="yes"/>
      <point x="56" y="88"/>
      <point x="138" y="-8"/>
    </contour>
    <contour>
      <point x="271" y="31" type="curve" smooth="yes"/>
      <point x="163" y="31"/>
      <point x="99" y="106"/>
      <point x="99" y="252" type="curve" smooth="yes"/>
      <point x="99" y="375"/>
      <point x="165" y="453"/>
      <point x="272" y="453" type="curve" smooth="yes"/>
      <point x="379" y="453"/>
      <point x="445" y="375"/>
      <point x="445" y="242" type="curve" smooth="yes"/>
      <point x="445" y="106"/>
      <point x="379" y="31"/>
    </contour>
  </outline>
</glyph>
<glyph name="de-cy" format="2">
  <advance width="569"/>
  <unicode hex="0434"/>
  <outline>
    <contour>
      <point x="46" y="-136" type="curve" smooth="yes"/>
      <point x="58" y="-136"/>
      <point x="65" y="-128"/>
      <point x="65" y="-114" type="curve" smooth="yes"/>
      <point x="65" y="0" type="line"/>
      <point x="497" y="0" type="line"/>
      <point x="497" y="-114" type="line" smooth="yes"/>
      <point x="497" y="-128"/>
      <point x="504" y="-136"/>
      <point x="516" y="-136" type="curve" smooth="yes"/>
      <point x="528" y="-136"/>
      <point x="535" y="-128"/>
      <point x="535" y="-114" type="curve" smooth="yes"/>
      <point x="535" y="11" type="line" smooth="yes"/>
      <point x="535" y="27"/>
      <point x="526" y="36"/>
      <point x="510" y="36" type="curve" smooth="yes"/>
      <point x="442" y="36" type="line"/>
      <point x="461" y="17" type="line"/>
      <point x="461" y="459" type="line" smooth="yes"/>
      <point x="461" y="475"/>
      <point x="452" y="484"/>
      <point x="436" y="484" type="curve" smooth="yes"/>
      <point x="174" y="484" type="line" smooth="yes"/>
      <point x="158" y="484"/>
      <point x="149" y="475"/>
      <point x="149" y="459" type="curve" smooth="yes"/>
      <point x="149" y="336" type="line" smooth="yes"/>
      <point x="149" y="201"/>
      <point x="125" y="101"/>
      <point x="67" y="27" type="curve"/>
      <point x="93" y="36" type="line"/>
      <point x="52" y="36" type="line" smooth="yes"/>
      <point x="36" y="36"/>
      <point x="27" y="27"/>
      <point x="27" y="11" type="curve" smooth="yes"/>
      <point x="27" y="-114" type="line" smooth="yes"/>
      <point x="27" y="-128"/>
      <point x="34" y="-136"/>
    </contour>
    <contour>
      <point x="122" y="36" type="line"/>
      <point x="166" y="110"/>
      <point x="190" y="221"/>
      <point x="190" y="336" type="curve" smooth="yes"/>
      <point x="190" y="448" type="line"/>
      <point x="419" y="448" type="line"/>
      <point x="419" y="36" type="line"/>
    </contour>
  </outline>
</glyph>
<glyph name="zhe-cy" format="2">
  <advance width="748"/>
  <unicode hex="0436"/>
  <anchor x="695" y="0" name="bottomright"/>
  <anchor x="374" y="484" name="top"/>
  <outline>
    <contour>
      <point x="374" y="-6" type="curve" smooth="yes"/>
      <point x="387" y="-6"/>
      <point x="395" y="2"/>
      <point x="395" y="16" type="curve" smooth="yes"/>
      <point x="395" y="233" type="line"/>
      <point x="469" y="233" type="line" smooth="yes"/>
      <point x="535" y="233"/>
      <point x="562" y="214"/>
      <point x="602" y="150" type="curve" smooth="yes"/>
      <point x="692" y="5" type="line" smooth="yes"/>
      <point x="707" y="-19"/>
      <point x="740" y="1"/>
      <point x="726" y="24" type="curve" smooth="yes"/>
      <point x="644" y="156" type="line" smooth="yes"/>
      <point x="590" y="243"/>
      <point x="566" y="262"/>
      <point x="509" y="268" type="curve"/>
      <point x="528" y="256" type="line"/>
      <point x="688" y="453" type="line" smooth="yes"/>
      <point x="708" y="477"/>
      <point x="677" y="501"/>
      <point x="659" y="478" type="curve" smooth="yes"/>
      <point x="489" y="269" type="line"/>
      <point x="395" y="269" type="line"/>
      <point x="395" y="465" type="line" smooth="yes"/>
      <point x="395" y="479"/>
      <point x="387" y="487"/>
      <point x="374" y="487" type="curve" smooth="yes"/>
      <point x="361" y="487"/>
      <point x="353" y="479"/>
      <point x="353" y="465" type="curve" smooth="yes"/>
      <point x="353" y="269" type="line"/>
      <point x="259" y="269" type="line"/>
      <point x="89" y="478" type="line" smooth="yes"/>
      <point x="71" y="501"/>
      <point x="40" y="477"/>
      <point x="60" y="453" type="curve" smooth="yes"/>
      <point x="220" y="256" type="line"/>
      <point x="239" y="268" type="line"/>
      <point x="182" y="262"/>
      <point x="157" y="242"/>
      <point x="104" y="156" type="curve" smooth="yes"/>
      <point x="22" y="24" type="line" smooth="yes"/>
      <point x="8" y="1"/>
      <point x="41" y="-19"/>
      <point x="56" y="5" type="curve" smooth="yes"/>
      <point x="146" y="150" type="line" smooth="yes"/>
      <point x="186" y="216"/>
      <point x="213" y="233"/>
      <point x="279" y="233" type="curve" smooth="yes"/>
      <point x="353" y="233" type="line"/>
      <point x="353" y="16" type="line" smooth="yes"/>
      <point x="353" y="2"/>
      <point x="361" y="-6"/>
    </contour>
  </outline>
</glyph>
<glyph name="ze-cy" format="2">
  <advance width="477"/>
  <unicode hex="0437"/>
  <anchor x="237" y="0" name="bottom"/>
  <anchor x="237" y="484" name="top"/>
  <outline>
    <contour>
      <point x="231" y="-8" type="curve" smooth="yes"/>
      <point x="362" y="-8"/>
      <point x="424" y="48"/>
      <point x="424" y="132" type="curve" smooth="yes"/>
      <point x="424" y="202"/>
      <point x="367" y="252"/>
      <point x="289" y="252" type="curve"/>
      <point x="289" y="240" type="line"/>
      <point x="360" y="246"/>
      <point x="408" y="293"/>
      <point x="408" y="356" type="curve" smooth="yes"/>
      <point x="408" y="441"/>
      <point x="354" y="492"/>
      <point x="238" y="492" type="curve" smooth="yes"/>
      <point x="168" y="492"/>
      <point x="106" y="474"/>
      <point x="58" y="440" type="curve" smooth="yes"/>
      <point x="34" y="423"/>
      <point x="51" y="386"/>
      <point x="83" y="408" type="curve" smooth="yes"/>
      <point x="128" y="439"/>
      <point x="179" y="453"/>
      <point x="238" y="453" type="curve" smooth="yes"/>
      <point x="324" y="453"/>
      <point x="365" y="414"/>
      <point x="365" y="356" type="curve" smooth="yes"/>
      <point x="365" y="298"/>
      <point x="320" y="264"/>
      <point x="253" y="264" type="curve" smooth="yes"/>
      <point x="176" y="264" type="line" smooth="yes"/>
      <point x="162" y="264"/>
      <point x="154" y="257"/>
      <point x="154" y="246" type="curve" smooth="yes"/>
      <point x="154" y="235"/>
      <point x="162" y="228"/>
      <point x="176" y="228" type="curve" smooth="yes"/>
      <point x="261" y="228" type="line" smooth="yes"/>
      <point x="337" y="228"/>
      <point x="380" y="194"/>
      <point x="380" y="132" type="curve" smooth="yes"/>
      <point x="380" y="68"/>
      <point x="338" y="31"/>
      <point x="231" y="31" type="curve" smooth="yes"/>
      <point x="172" y="31"/>
      <point x="116" y="46"/>
      <point x="73" y="80" type="curve" smooth="yes"/>
      <point x="45" y="102"/>
      <point x="23" y="68"/>
      <point x="47" y="48" type="curve" smooth="yes"/>
      <point x="89" y="12"/>
      <point x="161" y="-8"/>
    </contour>
  </outline>
</glyph>
<glyph name="ka-cy" format="2">
  <advance width="497"/>
  <unicode hex="043A"/>
  <anchor x="444" y="0" name="bottomright"/>
  <anchor x="240" y="243" name="center"/>
  <anchor x="275" y="484" name="top"/>
  <outline>
    <contour>
      <point x="109" y="-6" type="curve" smooth="yes"/>
      <point x="122" y="-6"/>
      <point x="130" y="2"/>
      <point x="130" y="16" type="curve" smooth="yes"/>
      <point x="130" y="233" type="line"/>
      <point x="218" y="233" type="line" smooth="yes"/>
      <point x="284" y="233"/>
      <point x="311" y="214"/>
      <point x="351" y="150" type="curve" smooth="yes"/>
      <point x="441" y="5" type="line" smooth="yes"/>
      <point x="456" y="-19"/>
      <point x="489" y="1"/>
      <point x="475" y="24" type="curve" smooth="yes"/>
      <point x="393" y="156" type="line" smooth="yes"/>
      <point x="339" y="243"/>
      <point x="315" y="262"/>
      <point x="258" y="268" type="curve"/>
      <point x="277" y="256" type="line"/>
      <point x="437" y="453" type="line" smooth="yes"/>
      <point x="457" y="477"/>
      <point x="426" y="501"/>
      <point x="408" y="478" type="curve" smooth="yes"/>
      <point x="238" y="269" type="line"/>
      <point x="130" y="269" type="line"/>
      <point x="130" y="465" type="line" smooth="yes"/>
      <point x="130" y="479"/>
      <point x="122" y="487"/>
      <point x="109" y="487" type="curve" smooth="yes"/>
      <point x="96" y="487"/>
      <point x="88" y="479"/>
      <point x="88" y="465" type="curve" smooth="yes"/>
      <point x="88" y="16" type="line" smooth="yes"/>
      <point x="88" y="2"/>
      <point x="96" y="-6"/>
    </contour>
  </outline>
</glyph>
<glyph name="el-cy" format="2">
  <advance width="554"/>
  <unicode hex="043B"/>
  <anchor x="424" y="0" name="bottomright"/>
  <outline>
    <contour>
      <point x="445" y="-6" type="curve" smooth="yes"/>
      <point x="458" y="-6"/>
      <point x="466" y="2"/>
      <point x="466" y="16" type="curve" smooth="yes"/>
      <point x="466" y="459" type="line" smooth="yes"/>
      <point x="466" y="475"/>
      <point x="457" y="484"/>
      <point x="441" y="484" type="curve" smooth="yes"/>
      <point x="174" y="484" type="line" smooth="yes"/>
      <point x="158" y="484"/>
      <point x="149" y="475"/>
      <point x="149" y="459" type="curve" smooth="yes"/>
      <point x="149" y="383" type="line" smooth="yes"/>
      <point x="149" y="168"/>
      <point x="125" y="80"/>
      <point x="40" y="32" type="curve" smooth="yes"/>
      <point x="14" y="17"/>
      <point x="35" y="-16"/>
      <point x="59" y="-3" type="curve" smooth="yes"/>
      <point x="159" y="52"/>
      <point x="190" y="152"/>
      <point x="190" y="382" type="curve" smooth="yes"/>
      <point x="190" y="448" type="line"/>
      <point x="424" y="448" type="line"/>
      <point x="424" y="16" type="line" smooth="yes"/>
      <point x="424" y="2"/>
      <point x="432" y="-6"/>
    </contour>
  </outline>
</glyph>
<glyph name="pe-cy" format="2">
  <advance width="565"/>
  <unicode hex="043F"/>
  <anchor x="435" y="0" name="bottomright"/>
  <outline>
    <contour>
      <point x="109" y="-6" type="curve" smooth="yes"/>
      <point x="123" y="-6"/>
      <point x="130" y="2"/>
      <point x="130" y="16" type="curve" smooth="yes"/>
      <point x="130" y="448" type="line"/>
      <point x="435" y="448" type="line"/>
      <point x="435" y="16" type="line" smooth="yes"/>
      <point x="435" y="2"/>
      <point x="443" y="-6"/>
      <point x="456" y="-6" type="curve" smooth="yes"/>
      <point x="469" y="-6"/>
      <point x="477" y="2"/>
      <point x="477" y="16" type="curve" smooth="yes"/>
      <point x="477" y="459" type="line" smooth="yes"/>
      <point x="477" y="475"/>
      <point x="468" y="484"/>
      <point x="452" y="484" type="curve" smooth="yes"/>
      <point x="113" y="484" type="line" smooth="yes"/>
      <point x="97" y="484"/>
      <point x="88" y="475"/>
      <point x="88" y="459" type="curve" smooth="yes"/>
      <point x="88" y="16" type="line" smooth="yes"/>
      <point x="88" y="2"/>
      <point x="96" y="-6"/>
    </contour>
  </outline>
</glyph>
<glyph name="te-cy" format="2">
  <advance width="418"/>
  <unicode hex="0442"/>
  <anchor x="188" y="0" name="bottomright"/>
  <outline>
    <contour>
      <point x="209" y="-6" type="curve" smooth="yes"/>
      <point x="223" y="-6"/>
      <point x="230" y="2"/>
      <point x="230" y="16" type="curve" smooth="yes"/>
      <point x="230" y="447" type="line"/>
      <point x="399" y="447" type="line" smooth="yes"/>
      <point x="413" y="447"/>
      <point x="421" y="454"/>
      <point x="421" y="466" type="curve" smooth="yes"/>
      <point x="421" y="478"/>
      <point x="413" y="484"/>
      <point x="399" y="484" type="curve" smooth="yes"/>
      <point x="19" y="484" type="line" smooth="yes"/>
      <point x="5" y="484"/>
      <point x="-3" y="477"/>
      <point x="-3" y="466" type="curve" smooth="yes"/>
      <point x="-3" y="454"/>
      <point x="5" y="447"/>
      <point x="19" y="447" type="curve" smooth="yes"/>
      <point x="188" y="447" type="line"/>
      <point x="188" y="16" type="line" smooth="yes"/>
      <point x="188" y="2"/>
      <point x="196" y="-6"/>
    </contour>
  </outline>
</glyph>
<glyph name="che-cy" format="2">
  <advance width="532"/>
  <unicode hex="0447"/>
  <anchor x="402" y="0" name="bottomright"/>
  <anchor x="256" y="200" name="center"/>
  <anchor x="256" y="484" name="top"/>
  <outline>
    <contour>
      <point x="423" y="-6" type="curve" smooth="yes"/>
      <point x="437" y="-6"/>
      <point x="444" y="2"/>
      <point x="444" y="16" type="curve" smooth="yes"/>
      <point x="444" y="468" type="line" smooth="yes"/>
      <point x="444" y="482"/>
      <point x="436" y="490"/>
      <point x="423" y="490" type="curve" smooth="yes"/>
      <point x="410" y="490"/>
      <point x="402" y="482"/>
      <point x="402" y="468" type="curve" smooth="yes"/>
      <point x="402" y="255" type="line"/>
      <point x="359" y="224"/>
      <point x="318" y="212"/>
      <point x="259" y="212" type="curve" smooth="yes"/>
      <point x="155" y="212"/>
      <point x="109" y="259"/>
      <point x="109" y="365" type="curve" smooth="yes"/>
      <point x="109" y="468" type="line" smooth="yes"/>
      <point x="109" y="482"/>
      <point x="101" y="490"/>
      <point x="88" y="490" type="curve" smooth="yes"/>
      <point x="75" y="490"/>
      <point x="67" y="482"/>
      <point x="67" y="468" type="curve" smooth="yes"/>
      <point x="67" y="364" type="line" smooth="yes"/>
      <point x="67" y="235"/>
      <point x="127" y="173"/>
      <point x="260" y="173" type="curve" smooth="yes"/>
      <point x="316" y="173"/>
      <point x="363" y="187"/>
      <point x="402" y="214" type="curve"/>
      <point x="402" y="16" type="line" smooth="yes"/>
      <point x="402" y="2"/>
      <point x="410" y="-6"/>
    </contour>
  </outline>
</glyph>
<glyph name="ereversed-cy" format="2">
  <advance width="471"/>
  <unicode hex="044D"/>
  <anchor x="207" y="484" name="top"/>
  <outline>
    <contour>
      <point x="194" y="-8" type="curve" smooth="yes"/>
      <point x="332" y="-8"/>
      <point x="415" y="92"/>
      <point x="415" y="246" type="curve" smooth="yes"/>
      <point x="415" y="398"/>
      <point x="333" y="492"/>
      <point x="196" y="492" type="curve" smooth="yes"/>
      <point x="142" y="492"/>
      <point x="79" y="471"/>
      <point x="38" y="436" type="curve" smooth="yes"/>
      <point x="14" y="415"/>
      <point x="37" y="382"/>
      <point x="65" y="406" type="curve" smooth="yes"/>
      <point x="105" y="440"/>
      <point x="155" y="453"/>
      <point x="195" y="453" type="curve" smooth="yes"/>
      <point x="321" y="453"/>
      <point x="370" y="360"/>
      <point x="372" y="257" type="curve"/>
      <point x="381" y="266" type="line"/>
      <point x="128" y="266" type="line" smooth="yes"/>
      <point x="114" y="266"/>
      <point x="106" y="259"/>
      <point x="106" y="248" type="curve" smooth="yes"/>
      <point x="106" y="237"/>
      <point x="114" y="230"/>
      <point x="128" y="230" type="curve" smooth="yes"/>
      <point x="381" y="230" type="line"/>
      <point x="372" y="240" type="line"/>
      <point x="370" y="110"/>
      <point x="309" y="31"/>
      <point x="195" y="31" type="curve" smooth="yes"/>
      <point x="152" y="31"/>
      <point x="103" y="46"/>
      <point x="64" y="79" type="curve" smooth="yes"/>
      <point x="34" y="104"/>
      <point x="18" y="66"/>
      <point x="38" y="47" type="curve" smooth="yes"/>
      <point x="76" y="11"/>
      <point x="140" y="-8"/>
    </contour>
  </outline>
</glyph>
<glyph name="ia-cy" format="2">
  <advance width="520"/>
  <unicode hex="044F"/>
  <outline>
    <contour>
      <point x="411" y="-6" type="curve" smooth="yes"/>
      <point x="424" y="-6"/>
      <point x="432" y="2"/>
      <point x="432" y="16" type="curve" smooth="yes"/>
      <point x="432" y="459" type="line" smooth="yes"/>
      <point x="432" y="475"/>
      <point x="423" y="484"/>
      <point x="407" y="484" type="curve" smooth="yes"/>
      <point x="239" y="484" type="line" smooth="yes"/>
      <point x="124" y="484"/>
      <point x="70" y="427"/>
      <point x="70" y="343" type="curve" smooth="yes"/>
      <point x="70" y="255"/>
      <point x="134" y="202"/>
      <point x="237" y="202" type="curve"/>
      <point x="237" y="208" type="line"/>
      <point x="231" y="208" type="line" smooth="yes"/>
      <point x="193" y="208"/>
      <point x="152" y="177"/>
      <point x="127" y="134" type="curve" smooth="yes"/>
      <point x="65" y="26" type="line" smooth="yes"/>
      <point x="51" y="2"/>
      <point x="88" y="-21"/>
      <point x="104" y="7" type="curve" smooth="yes"/>
      <point x="168" y="118" type="line" smooth="yes"/>
      <point x="195" y="165"/>
      <point x="236" y="200"/>
      <point x="302" y="200" type="curve" smooth="yes"/>
      <point x="390" y="200" type="line"/>
      <point x="390" y="16" type="line" smooth="yes"/>
      <point x="390" y="2"/>
      <point x="398" y="-6"/>
    </contour>
    <contour>
      <point x="245" y="237" type="line" smooth="yes"/>
      <point x="154" y="237"/>
      <point x="113" y="276"/>
      <point x="113" y="343" type="curve" smooth="yes"/>
      <point x="113" y="409"/>
      <point x="154" y="448"/>
      <point x="245" y="448" type="curve" smooth="yes"/>
      <point x="390" y="448" type="line"/>
      <point x="390" y="237" type="line"/>
    </contour>
  </outline>
</glyph>
<glyph name="lje-cy" format="2">
  <advance width="859"/>
  <unicode hex="0459"/>
  <outline>
    <contour>
      <point x="59" y="-3" type="curve" smooth="yes"/>
      <point x="159" y="51"/>
      <point x="190" y="152"/>
      <point x="190" y="382" type="curve" smooth="yes"/>
      <point x="190" y="448" type="line"/>
      <point x="424" y="448" type="line"/>
      <point x="424" y="25" type="line" smooth="yes"/>
      <point x="424" y="9"/>
      <point x="433" y="0"/>
      <point x="449" y="0" type="curve" smooth="yes"/>
      <point x="629" y="0" type="line" smooth="yes"/>
      <point x="748" y="0"/>
      <point x="811" y="55"/>
      <point x="811" y="150" type="curve" smooth="yes"/>
      <point x="811" y="245"/>
      <point x="748" y="300"/>
      <point x="629" y="300" type="curve" smooth="yes"/>
      <point x="466" y="300" type="line"/>
      <point x="466" y="459" type="line" smooth="yes"/>
      <point x="466" y="475"/>
      <point x="457" y="484"/>
      <point x="441" y="484" type="curve" smooth="yes"/>
      <point x="174" y="484" type="line" smooth="yes"/>
      <point x="158" y="484"/>
      <point x="149" y="475"/>
      <point x="149" y="459" type="curve" smooth="yes"/>
      <point x="149" y="383" type="line" smooth="yes"/>
      <point x="149" y="168"/>
      <point x="125" y="81"/>
      <point x="40" y="32" type="curve" smooth="yes"/>
      <point x="14" y="17"/>
      <point x="35" y="-16"/>
    </contour>
    <contour>
      <point x="466" y="36" type="line"/>
      <point x="466" y="264" type="line"/>
      <point x="631" y="264" type="line" smooth="yes"/>
      <point x="717" y="264"/>
      <point x="767" y="228"/>
      <point x="767" y="150" type="curve" smooth="yes"/>
      <point x="767" y="72"/>
      <point x="717" y="36"/>
      <point x="631" y="36" type="curve" smooth="yes"/>
    </contour>
  </outline>
</glyph>
<glyph name="dzhe-cy" format="2">
  <advance width="565"/>
  <unicode hex="045F"/>
  <outline>
    <contour>
      <point x="282" y="-136" type="curve" smooth="yes"/>
      <point x="294" y="-136"/>
      <point x="301" y="-129"/>
      <point x="301" y="-116" type="curve" smooth="yes"/>
      <point x="301" y="0" type="line"/>
      <point x="452" y="0" type="line" smooth="yes"/>
      <point x="468" y="0"/>
      <point x="477" y="9"/>
      <point x="477" y="25" type="curve" smooth="yes"/>
      <point x="477" y="468" type="line" smooth="yes"/>
      <point x="477" y="482"/>
      <point x="469" y="490"/>
      <point x="456" y="490" type="curve" smooth="yes"/>
      <point x="443" y="490"/>
      <point x="435" y="482"/>
      <point x="435" y="468" type="curve" smooth="yes"/>
      <point x="435" y="36" type="line"/>
      <point x="130" y="36" type="line"/>
      <point x="130" y="468" type="line" smooth="yes"/>
      <point x="130" y="482"/>
      <point x="122" y="490"/>
      <point x="109" y="490" type="curve" smooth="yes"/>
      <point x="96" y="490"/>
      <point x="88" y="482"/>
      <point x="88" y="468" type="curve" smooth="yes"/>
      <point x="88" y="25" type="line" smooth="yes"/>
      <point x="88" y="9"/>
      <point x="97" y="0"/>
      <point x="113" y="0" type="curve" smooth="yes"/>
      <point x="263" y="0" type="line"/>
      <point x="263" y="-116" type="line" smooth="yes"/>
      <point x="263" y="-129"/>
      <point x="270" y="-136"/>
    </contour>
  </outline>
</glyph>
<glyph name="Yat-cy" format="2">
  <advance width="707"/>
  <unicode hex="0462"/>
  <outline>
    <contour>
      <point x="179" y="0" type="curve" smooth="yes"/>
      <point x="425" y="0" type="line" smooth="yes"/>
      <point x="571" y="0"/>
      <point x="653" y="64"/>
      <point x="653" y="191" type="curve" smooth="yes"/>
      <point x="653" y="318"/>
      <point x="571" y="379"/>
      <point x="425" y="379" type="curve" smooth="yes"/>
      <point x="196" y="379" type="line"/>
      <point x="196" y="548" type="line"/>
      <point x="420" y="548" type="line" smooth="yes"/>
      <point x="434" y="548"/>
      <point x="442" y="555"/>
      <point x="442" y="568" type="curve" smooth="yes"/>
      <point x="442" y="580"/>
      <point x="434" y="587"/>
      <point x="420" y="587" type="curve" smooth="yes"/>
      <point x="187" y="587" type="line"/>
      <point x="196" y="568" type="line"/>
      <point x="196" y="689" type="line" smooth="yes"/>
      <point x="196" y="703"/>
      <point x="188" y="711"/>
      <point x="175" y="711" type="curve" smooth="yes"/>
      <point x="162" y="711"/>
      <point x="154" y="703"/>
      <point x="154" y="689" type="curve" smooth="yes"/>
      <point x="154" y="568" type="line"/>
      <point x="163" y="587" type="line"/>
      <point x="-4" y="587" type="line" smooth="yes"/>
      <point x="-18" y="587"/>
      <point x="-26" y="580"/>
      <point x="-26" y="568" type="curve" smooth="yes"/>
      <point x="-26" y="556"/>
      <point x="-18" y="548"/>
      <point x="-4" y="548" type="curve" smooth="yes"/>
      <point x="154" y="548" type="line"/>
      <point x="154" y="25" type="line" smooth="yes"/>
      <point x="154" y="9"/>
      <point x="163" y="0"/>
    </contour>
    <contour>
      <point x="196" y="39" type="line"/>
      <point x="196" y="340" type="line"/>
      <point x="424" y="340" type="line" smooth="yes"/>
      <point x="547" y="340"/>
      <point x="609" y="292"/>
      <point x="609" y="190" type="curve" smooth="yes"/>
      <point x="609" y="88"/>
      <point x="547" y="39"/>
      <point x="424" y="39" type="curve" smooth="yes"/>
    </contour>
  </outline>
</glyph>
<glyph name="Izhitsa-cy" format="2">
  <advance width="719"/>
  <unicode hex="0474"/>
  <outline>
    <contour>
      <point x="334" y="-6" type="curve" smooth="yes"/>
      <point x="349" y="-6"/>
      <point x="357" y="2"/>
      <point x="363" y="17" type="curve" smooth="yes"/>
      <point x="577" y="532" type="line" smooth="yes"/>
      <point x="620" y="636"/>
      <point x="660" y="671"/>
      <point x="739" y="676" type="curve" smooth="yes"/>
      <point x="763" y="678"/>
      <point x="767" y="713"/>
      <point x="735" y="713" type="curve" smooth="yes"/>
      <point x="633" y="709"/>
      <point x="584" y="661"/>
      <point x="531" y="533" type="curve" smooth="yes"/>
      <point x="323" y="24" type="line"/>
      <point x="346" y="24" type="line"/>
      <point x="58" y="694" type="line" smooth="yes"/>
      <point x="53" y="705"/>
      <point x="47" y="711"/>
      <point x="35" y="711" type="curve" smooth="yes"/>
      <point x="21" y="711"/>
      <point x="10" y="702"/>
      <point x="17" y="685" type="curve" smooth="yes"/>
      <point x="304" y="17" type="line" smooth="yes"/>
      <point x="310" y="2"/>
      <point x="319" y="-6"/>
    </contour>
  </outline>
</glyph>
<glyph name="Semisoftsign-cy" format="2">
  <advance width="697"/>
  <unicode hex="048C"/>
  <outline>
    <contour>
      <point x="169" y="0" type="curve" smooth="yes"/>
      <point x="415" y="0" type="line" smooth="yes"/>
      <point x="561" y="0"/>
      <point x="643" y="64"/>
      <point x="643" y="191" type="curve" smooth="yes"/>
      <point x="643" y="318"/>
      <point x="561" y="379"/>
      <point x="415" y="379" type="curve" smooth="yes"/>
      <point x="186" y="379" type="line"/>
      <point x="186" y="548" type="line"/>
      <point x="314" y="548" type="line" smooth="yes"/>
      <point x="328" y="548"/>
      <point x="336" y="555"/>
      <point x="336" y="568" type="curve" smooth="yes"/>
      <point x="336" y="580"/>
      <point x="328" y="587"/>
      <point x="314" y="587" type="curve" smooth="yes"/>
      <point x="177" y="587" type="line"/>
      <point x="186" y="568" type="line"/>
      <point x="186" y="689" type="line" smooth="yes"/>
      <point x="186" y="703"/>
      <point x="178" y="711"/>
      <point x="165" y="711" type="curve" smooth="yes"/>
      <point x="152" y="711"/>
      <point x="144" y="703"/>
      <point x="144" y="689" type="curve" smooth="yes"/>
      <point x="144" y="568" type="line"/>
      <point x="153" y="587" type="line"/>
      <point x="16" y="587" type="line" smooth="yes"/>
      <point x="2" y="587"/>
      <point x="-6" y="580"/>
      <point x="-6" y="568" type="curve" smooth="yes"/>
      <point x="-6" y="556"/>
      <point x="2" y="548"/>
      <point x="16" y="548" type="curve" smooth="yes"/>
      <point x="144" y="548" type="line"/>
      <point x="144" y="25" type="line" smooth="yes"/>
      <point x="144" y="9"/>
      <point x="153" y="0"/>
    </contour>
    <contour>
      <point x="186" y="39" type="line"/>
      <point x="186" y="340" type="line"/>
      <point x="414" y="340" type="line" smooth="yes"/>
      <point x="537" y="340"/>
      <point x="599" y="292"/>
      <point x="599" y="190" type="curve" smooth="yes"/>
      <point x="599" y="88"/>
      <point x="537" y="39"/>
      <point x="414" y="39" type="curve" smooth="yes"/>
    </contour>
  </outline>
</glyph>
<glyph name="Ertick-cy" format="2">
  <advance width="616"/>
  <unicode hex="048E"/>
  <outline>
    <contour>
      <point x="117" y="-6" type="curve" smooth="yes"/>
      <point x="131" y="-6"/>
      <point x="138" y="2"/>
      <point x="138" y="16" type="curve" smooth="yes"/>
      <point x="138" y="297" type="line"/>
      <point x="351" y="297" type="line" smooth="yes"/>
      <point x="383" y="297"/>
      <point x="409" y="300"/>
      <point x="437" y="307" type="curve"/>
      <point x="423" y="313" type="line"/>
      <point x="479" y="229" type="line" smooth="yes"/>
      <point x="496" y="204"/>
      <point x="526" y="224"/>
      <point x="510" y="248" type="curve" smooth="yes"/>
      <point x="461" y="323" type="line"/>
      <point x="457" y="313" type="line"/>
      <point x="536" y="341"/>
      <point x="580" y="404"/>
      <point x="580" y="501" type="curve" smooth="yes"/>
      <point x="580" y="632"/>
      <point x="499" y="705"/>
      <point x="351" y="705" type="curve" smooth="yes"/>
      <point x="118" y="705" type="line" smooth="yes"/>
      <point x="104" y="705"/>
      <point x="96" y="697"/>
      <point x="96" y="683" type="curve" smooth="yes"/>
      <point x="96" y="16" type="line" smooth="yes"/>
      <point x="96" y="2"/>
      <point x="104" y="-6"/>
    </contour>
    <contour>
      <point x="138" y="666" type="line"/>
      <point x="350" y="666" type="line" smooth="yes"/>
      <point x="474" y="666"/>
      <point x="536" y="609"/>
      <point x="536" y="501" type="curve" smooth="yes"/>
      <point x="536" y="420"/>
      <point x="502" y="369"/>
      <point x="433" y="347" type="curve"/>
      <point x="446" y="346" type="line"/>
      <point x="392" y="429" type="line" smooth="yes"/>
      <point x="375" y="455"/>
      <point x="344" y="432"/>
      <point x="360" y="408" type="curve" smooth="yes"/>
      <point x="409" y="334" type="line"/>
      <point x="416" y="342" type="line"/>
      <point x="396" y="338"/>
      <point x="375" y="336"/>
      <point x="350" y="336" type="curve" smooth="yes"/>
      <point x="138" y="336" type="line"/>
    </contour>
  </outline>
</glyph>
<glyph name="ertick-cy" format="2">
  <advance width="574"/>
  <unicode hex="048F"/>
  <outline>
    <contour>
      <point x="109" y="-186" type="curve" smooth="yes"/>
      <point x="122" y="-186"/>
      <point x="130" y="-178"/>
      <point x="130" y="-164" type="curve" smooth="yes"/>
      <point x="130" y="126" type="line"/>
      <point x="119" y="126" type="line"/>
      <point x="141" y="44"/>
      <point x="210" y="-8"/>
      <point x="303" y="-8" type="curve" smooth="yes"/>
      <point x="351" y="-8"/>
      <point x="389" y="5"/>
      <point x="418" y="23" type="curve"/>
      <point x="411" y="25" type="line"/>
      <point x="452" y="-27" type="line" smooth="yes"/>
      <point x="468" y="-47"/>
      <point x="493" y="-27"/>
      <point x="478" y="-8" type="curve" smooth="yes"/>
      <point x="436" y="45" type="line"/>
      <point x="437" y="37" type="line"/>
      <point x="485" y="75"/>
      <point x="518" y="148"/>
      <point x="518" y="242" type="curve" smooth="yes"/>
      <point x="518" y="395"/>
      <point x="434" y="492"/>
      <point x="303" y="492" type="curve" smooth="yes"/>
      <point x="210" y="492"/>
      <point x="141" y="440"/>
      <point x="119" y="358" type="curve"/>
      <point x="130" y="358" type="line"/>
      <point x="130" y="468" type="line" smooth="yes"/>
      <point x="130" y="482"/>
      <point x="122" y="490"/>
      <point x="109" y="490" type="curve" smooth="yes"/>
      <point x="96" y="490"/>
      <point x="88" y="482"/>
      <point x="88" y="468" type="curve" smooth="yes"/>
      <point x="88" y="-164" type="line" smooth="yes"/>
      <point x="88" y="-178"/>
      <point x="96" y="-186"/>
    </contour>
    <contour>
      <point x="302" y="31" type="curve" smooth="yes"/>
      <point x="196" y="31"/>
      <point x="129" y="109"/>
      <point x="129" y="242" type="curve" smooth="yes"/>
      <point x="129" y="375"/>
      <point x="196" y="453"/>
      <point x="302" y="453" type="curve" smooth="yes"/>
      <point x="408" y="453"/>
      <point x="475" y="375"/>
      <point x="475" y="242" type="curve" smooth="yes"/>
      <point x="475" y="161"/>
      <point x="450" y="103"/>
      <point x="412" y="70" type="curve"/>
      <point x="419" y="67" type="line"/>
      <point x="375" y="123" type="line" smooth="yes"/>
      <point x="359" y="143"/>
      <point x="334" y="123"/>
      <point x="349" y="104" type="curve" smooth="yes"/>
      <point x="393" y="48" type="line"/>
      <point x="395" y="57" type="line"/>
      <point x="373" y="42"/>
      <point x="341" y="31"/>
    </contour>
  </outline>
</glyph>
<glyph name="ghestroke-cy" format="2">
  <advance width="432"/>
  <unicode hex="0493"/>
  <outline>
    <contour>
      <point x="126" y="-6" type="curve" smooth="yes"/>
      <point x="140" y="-6"/>
      <point x="147" y="3"/>
      <point x="147" y="19" type="curve" smooth="yes"/>
      <point x="147" y="225" type="line"/>
      <point x="281" y="225" type="line" smooth="yes"/>
      <point x="295" y="225"/>
      <point x="303" y="232"/>
      <point x="303" y="244" type="curve" smooth="yes"/>
      <point x="303" y="256"/>
      <point x="295" y="262"/>
      <point x="281" y="262" type="curve" smooth="yes"/>
      <point x="147" y="262" type="line"/>
      <point x="147" y="447" type="line"/>
      <point x="404" y="447" type="line" smooth="yes"/>
      <point x="418" y="447"/>
      <point x="426" y="454"/>
      <point x="426" y="466" type="curve" smooth="yes"/>
      <point x="426" y="478"/>
      <point x="418" y="484"/>
      <point x="404" y="484" type="curve" smooth="yes"/>
      <point x="130" y="484" type="line" smooth="yes"/>
      <point x="114" y="484"/>
      <point x="105" y="475"/>
      <point x="105" y="459" type="curve" smooth="yes"/>
      <point x="105" y="262" type="line"/>
      <point x="21" y="262" type="line" smooth="yes"/>
      <point x="7" y="262"/>
      <point x="-1" y="255"/>
      <point x="-1" y="244" type="curve" smooth="yes"/>
      <point x="-1" y="232"/>
      <point x="7" y="225"/>
      <point x="21" y="225" type="curve" smooth="yes"/>
      <point x="105" y="225" type="line"/>
      <point x="105" y="19" type="line" smooth="yes"/>
      <point x="105" y="3"/>
      <point x="113" y="-6"/>
    </contour>
  </outline>
</glyph>
<glyph name="ghemiddlehook-cy" format="2">
  <advance width="529"/>
  <unicode hex="0495"/>
  <outline>
    <contour>
      <point x="320" y="-181" type="curve" smooth="yes"/>
      <point x="441" y="-148"/>
      <point x="477" y="-74"/>
      <point x="477" y="55" type="curve" smooth="yes"/>
      <point x="477" y="129" type="line" smooth="yes"/>
      <point x="477" y="263"/>
      <point x="418" y="323"/>
      <point x="301" y="323" type="curve" smooth="yes"/>
      <point x="214" y="323"/>
      <point x="141" y="277"/>
      <point x="118" y="199" type="curve"/>
      <point x="130" y="199" type="line"/>
      <point x="130" y="447" type="line"/>
      <point x="387" y="447" type="line" smooth="yes"/>
      <point x="401" y="447"/>
      <point x="409" y="454"/>
      <point x="409" y="466" type="curve" smooth="yes"/>
      <point x="409" y="478"/>
      <point x="401" y="484"/>
      <point x="387" y="484" type="curve" smooth="yes"/>
      <point x="113" y="484" type="line" smooth="yes"/>
      <point x="97" y="484"/>
      <point x="88" y="475"/>
      <point x="88" y="459" type="curve" smooth="yes"/>
      <point x="88" y="19" type="line" smooth="yes"/>
      <point x="88" y="3"/>
      <point x="96" y="-6"/>
      <point x="109" y="-6" type="curve" smooth="yes"/>
      <point x="123" y="-6"/>
      <point x="130" y="3"/>
      <point x="130" y="19" type="curve" smooth="yes"/>
      <point x="130" y="109" type="line" smooth="yes"/>
      <point x="130" y="215"/>
      <point x="197" y="284"/>
      <point x="302" y="284" type="curve" smooth="yes"/>
      <point x="396" y="284"/>
      <point x="435" y="237"/>
      <point x="435" y="125" type="curve" smooth="yes"/>
      <point x="435" y="52" type="line" smooth="yes"/>
      <point x="435" y="-54"/>
      <point x="412" y="-116"/>
      <point x="311" y="-144" type="curve" smooth="yes"/>
      <point x="279" y="-153"/>
      <point x="291" y="-189"/>
    </contour>
  </outline>
</glyph>
<glyph name="Zhedescender-cy" format="2">
  <advance width="928"/>
  <unicode hex="0496"/>
  <outline>
    <contour>
      <point x="947" y="-156" type="curve" smooth="yes"/>
      <point x="960" y="-156"/>
      <point x="967" y="-148"/>
      <point x="967" y="-134" type="curve" smooth="yes"/>
      <point x="967" y="14" type="line" smooth="yes"/>
      <point x="967" y="30"/>
      <point x="958" y="39"/>
      <point x="942" y="39" type="curve" smooth="yes"/>
      <point x="874" y="39" type="line"/>
      <point x="901" y="22" type="line"/>
      <point x="794" y="239" type="line" smooth="yes"/>
      <point x="753" y="322"/>
      <point x="698" y="370"/>
      <point x="623" y="376" type="curve"/>
      <point x="636" y="359" type="line"/>
      <point x="855" y="680" type="line" smooth="yes"/>
      <point x="871" y="703"/>
      <point x="835" y="723"/>
      <point x="819" y="699" type="curve" smooth="yes"/>
      <point x="590" y="363" type="line"/>
      <point x="613" y="378" type="line"/>
      <point x="485" y="378" type="line"/>
      <point x="485" y="689" type="line" smooth="yes"/>
      <point x="485" y="703"/>
      <point x="477" y="711"/>
      <point x="464" y="711" type="curve" smooth="yes"/>
      <point x="451" y="711"/>
      <point x="443" y="703"/>
      <point x="443" y="689" type="curve" smooth="yes"/>
      <point x="443" y="378" type="line"/>
      <point x="317" y="378" type="line"/>
      <point x="338" y="363" type="line"/>
      <point x="109" y="699" type="line" smooth="yes"/>
      <point x="93" y="723"/>
      <point x="57" y="703"/>
      <point x="73" y="680" type="curve" smooth="yes"/>
      <point x="292" y="359" type="line"/>
      <point x="305" y="376" type="line"/>
      <point x="230" y="370"/>
      <point x="173" y="322"/>
      <point x="132" y="239" type="curve" smooth="yes"/>
      <point x="25" y="22" type="line" smooth="yes"/>
      <point x="13" y="-3"/>
      <point x="51" y="-17"/>
      <point x="64" y="9" type="curve" smooth="yes"/>
      <point x="162" y="210" type="line" smooth="yes"/>
      <point x="206" y="301"/>
      <point x="259" y="339"/>
      <point x="340" y="339" type="curve" smooth="yes"/>
      <point x="443" y="339" type="line"/>
      <point x="443" y="16" type="line" smooth="yes"/>
      <point x="443" y="2"/>
      <point x="451" y="-6"/>
      <point x="464" y="-6" type="curve" smooth="yes"/>
      <point x="477" y="-6"/>
      <point x="485" y="2"/>
      <point x="485" y="16" type="curve" smooth="yes"/>
      <point x="485" y="339" type="line"/>
      <point x="588" y="339" type="line" smooth="yes"/>
      <point x="667" y="339"/>
      <point x="719" y="303"/>
      <point x="764" y="210" type="curve" smooth="yes"/>
      <point x="858" y="17" type="line" smooth="yes"/>
      <point x="863" y="6"/>
      <point x="875" y="0"/>
      <point x="883" y="0" type="curve" smooth="yes"/>
      <point x="946" y="0" type="line"/>
      <point x="927" y="19" type="line"/>
      <point x="927" y="-134" type="line" smooth="yes"/>
      <point x="927" y="-148"/>
      <point x="934" y="-156"/>
    </contour>
  </outline>
</glyph>
<glyph name="kaverticalstroke-cy" format="2">
  <advance width="497"/>
  <unicode hex="049D"/>
  <outline>
    <contour>
      <point x="109" y="-6" type="curve" smooth="yes"/>
      <point x="122" y="-6"/>
      <point x="130" y="2"/>
      <point x="130" y="16" type="curve" smooth="yes"/>
      <point x="130" y="233" type="line"/>
      <point x="190" y="233" type="line"/>
      <point x="190" y="124" type="line" smooth="yes"/>
      <point x="190" y="111"/>
      <point x="197" y="104"/>
      <point x="208" y="104" type="curve" smooth="yes"/>
      <point x="219" y="104"/>
      <point x="226" y="111"/>
      <point x="226" y="124" type="curve" smooth="yes"/>
      <point x="226" y="242" type="line"/>
      <point x="208" y="233" type="line"/>
      <point x="218" y="233" type="line" smooth="yes"/>
      <point x="283" y="233"/>
      <point x="311" y="214"/>
      <point x="351" y="150" type="curve" smooth="yes"/>
      <point x="441" y="5" type="line" smooth="yes"/>
      <point x="456" y="-19"/>
      <point x="489" y="1"/>
      <point x="475" y="24" type="curve" smooth="yes"/>
      <point x="393" y="156" type="line" smooth="yes"/>
      <point x="339" y="243"/>
      <point x="315" y="262"/>
      <point x="258" y="268" type="curve"/>
      <point x="277" y="256" type="line"/>
      <point x="437" y="453" type="line" smooth="yes"/>
      <point x="457" y="477"/>
      <point x="426" y="501"/>
      <point x="408" y="478" type="curve" smooth="yes"/>
      <point x="238" y="269" type="line"/>
      <point x="226" y="269" type="line"/>
      <point x="226" y="370" type="line" smooth="yes"/>
      <point x="226" y="383"/>
      <point x="219" y="390"/>
      <point x="208" y="390" type="curve" smooth="yes"/>
      <point x="197" y="390"/>
      <point x="190" y="383"/>
      <point x="190" y="370" type="curve" smooth="yes"/>
      <point x="190" y="269" type="line"/>
      <point x="130" y="269" type="line"/>
      <point x="130" y="465" type="line" smooth="yes"/>
      <point x="130" y="479"/>
      <point x="122" y="487"/>
      <point x="109" y="487" type="curve" smooth="yes"/>
      <point x="96" y="487"/>
      <point x="88" y="479"/>
      <point x="88" y="465" type="curve" smooth="yes"/>
      <point x="88" y="16" type="line" smooth="yes"/>
      <point x="88" y="2"/>
      <point x="96" y="-6"/>
    </contour>
  </outline>
</glyph>
<glyph name="kastroke-cy" format="2">
  <advance width="497"/>
  <unicode hex="049F"/>
  <outline>
    <contour>
      <point x="109" y="-6" type="curve" smooth="yes"/>
      <point x="122" y="-6"/>
      <point x="130" y="2"/>
      <point x="130" y="16" type="curve" smooth="yes"/>
      <point x="130" y="233" type="line"/>
      <point x="218" y="233" type="line" smooth="yes"/>
      <point x="284" y="233"/>
      <point x="311" y="214"/>
      <point x="351" y="150" type="curve" smooth="yes"/>
      <point x="441" y="5" type="line" smooth="yes"/>
      <point x="456" y="-19"/>
      <point x="489" y="1"/>
      <point x="475" y="24" type="curve" smooth="yes"/>
      <point x="393" y="156" type="line" smooth="yes"/>
      <point x="339" y="243"/>
      <point x="315" y="262"/>
      <point x="258" y="268" type="curve"/>
      <point x="277" y="256" type="line"/>
      <point x="437" y="453" type="line" smooth="yes"/>
      <point x="457" y="477"/>
      <point x="426" y="501"/>
      <point x="408" y="478" type="curve" smooth="yes"/>
      <point x="238" y="269" type="line"/>
      <point x="130" y="269" type="line"/>
      <point x="130" y="562" type="line"/>
      <point x="311" y="562" type="line" smooth="yes"/>
      <point x="325" y="562"/>
      <point x="333" y="569"/>
      <point x="333" y="580" type="curve" smooth="yes"/>
      <point x="333" y="591"/>
      <point x="325" y="598"/>
      <point x="311" y="598" type="curve" smooth="yes"/>
      <point x="121" y="598" type="line"/>
      <point x="130" y="589" type="line"/>
      <point x="130" y="689" type="line" smooth="yes"/>
      <point x="130" y="703"/>
      <point x="122" y="711"/>
      <point x="109" y="711" type="curve" smooth="yes"/>
      <point x="96" y="711"/>
      <point x="88" y="703"/>
      <point x="88" y="689" type="curve" smooth="yes"/>
      <point x="88" y="589" type="line"/>
      <point x="97" y="598" type="line"/>
      <point x="9" y="598" type="line" smooth="yes"/>
      <point x="-5" y="598"/>
      <point x="-13" y="591"/>
      <point x="-13" y="580" type="curve" smooth="yes"/>
      <point x="-13" y="569"/>
      <point x="-5" y="562"/>
      <point x="9" y="562" type="curve" smooth="yes"/>
      <point x="88" y="562" type="line"/>
      <point x="88" y="16" type="line" smooth="yes"/>
      <point x="88" y="2"/>
      <point x="96" y="-6"/>
    </contour>
  </outline>
</glyph>
<glyph name="Kabashkir-cy" format="2">
  <advance width="738"/>
  <unicode hex="04A0"/>
  <outline>
    <contour>
      <point x="244" y="-6" type="curve" smooth="yes"/>
      <point x="258" y="-6"/>
      <point x="265" y="2"/>
      <point x="265" y="16" type="curve" smooth="yes"/>
      <point x="265" y="339" type="line"/>
      <point x="398" y="339" type="line" smooth="yes"/>
      <point x="477" y="339"/>
      <point x="529" y="303"/>
      <point x="574" y="210" type="curve" smooth="yes"/>
      <point x="672" y="9" type="line" smooth="yes"/>
      <point x="685" y="-17"/>
      <point x="723" y="-3"/>
      <point x="711" y="22" type="curve" smooth="yes"/>
      <point x="604" y="239" type="line" smooth="yes"/>
      <point x="563" y="322"/>
      <point x="508" y="370"/>
      <point x="433" y="376" type="curve"/>
      <point x="446" y="359" type="line"/>
      <point x="665" y="680" type="line" smooth="yes"/>
      <point x="681" y="703"/>
      <point x="645" y="723"/>
      <point x="629" y="699" type="curve" smooth="yes"/>
      <point x="400" y="363" type="line"/>
      <point x="423" y="378" type="line"/>
      <point x="265" y="378" type="line"/>
      <point x="265" y="683" type="line" smooth="yes"/>
      <point x="265" y="697"/>
      <point x="257" y="705"/>
      <point x="244" y="705" type="curve" smooth="yes"/>
      <point x="19" y="705" type="line" smooth="yes"/>
      <point x="5" y="705"/>
      <point x="-3" y="698"/>
      <point x="-3" y="686" type="curve" smooth="yes"/>
      <point x="-3" y="674"/>
      <point x="5" y="667"/>
      <point x="19" y="667" type="curve" smooth="yes"/>
      <point x="223" y="667" type="line"/>
      <point x="223" y="16" type="line" smooth="yes"/>
      <point x="223" y="2"/>
      <point x="231" y="-6"/>
    </contour>
  </outline>
</glyph>
<glyph name="Endescender-cy" format="2">
  <advance width="785"/>
  <unicode hex="04A2"/>
  <outline>
    <contour>
      <point x="735" y="-156" type="curve" smooth="yes"/>
      <point x="748" y="-156"/>
      <point x="755" y="-148"/>
      <point x="755" y="-134" type="curve" smooth="yes"/>
      <point x="755" y="14" type="line" smooth="yes"/>
      <point x="755" y="30"/>
      <point x="746" y="39"/>
      <point x="730" y="39" type="curve" smooth="yes"/>
      <point x="636" y="39" type="line"/>
      <point x="655" y="20" type="line"/>
      <point x="655" y="689" type="line" smooth="yes"/>
      <point x="655" y="703"/>
      <point x="647" y="711"/>
      <point x="634" y="711" type="curve" smooth="yes"/>
      <point x="621" y="711"/>
      <point x="613" y="703"/>
      <point x="613" y="689" type="curve" smooth="yes"/>
      <point x="613" y="377" type="line"/>
      <point x="138" y="377" type="line"/>
      <point x="138" y="689" type="line" smooth="yes"/>
      <point x="138" y="703"/>
      <point x="130" y="711"/>
      <point x="117" y="711" type="curve" smooth="yes"/>
      <point x="104" y="711"/>
      <point x="96" y="703"/>
      <point x="96" y="689" type="curve" smooth="yes"/>
      <point x="96" y="16" type="line" smooth="yes"/>
      <point x="96" y="2"/>
      <point x="104" y="-6"/>
      <point x="117" y="-6" type="curve" smooth="yes"/>
      <point x="131" y="-6"/>
      <point x="138" y="2"/>
      <point x="138" y="16" type="curve" smooth="yes"/>
      <point x="138" y="338" type="line"/>
      <point x="613" y="338" type="line"/>
      <point x="613" y="22" type="line" smooth="yes"/>
      <point x="613" y="4"/>
      <point x="621" y="0"/>
      <point x="634" y="0" type="curve" smooth="yes"/>
      <point x="715" y="0" type="line"/>
      <point x="715" y="-134" type="line" smooth="yes"/>
      <point x="715" y="-148"/>
      <point x="722" y="-156"/>
    </contour>
  </outline>
</glyph>
<glyph name="endescender-cy" format="2">
  <advance width="588"/>
  <unicode hex="04A3"/>
  <outline>
    <contour>
      <point x="534" y="-136" type="curve" smooth="yes"/>
      <point x="546" y="-136"/>
      <point x="554" y="-129"/>
      <point x="554" y="-115" type="curve" smooth="yes"/>
      <point x="554" y="12" type="line" smooth="yes"/>
      <point x="554" y="28"/>
      <point x="545" y="37"/>
      <point x="529" y="37" type="curve" smooth="yes"/>
      <point x="461" y="37" type="line"/>
      <point x="480" y="18" type="line"/>
      <point x="480" y="468" type="line" smooth="yes"/>
      <point x="480" y="482"/>
      <point x="472" y="490"/>
      <point x="459" y="490" type="curve" smooth="yes"/>
      <point x="446" y="490"/>
      <point x="438" y="482"/>
      <point x="438" y="468" type="curve" smooth="yes"/>
      <point x="438" y="269" type="line"/>
      <point x="130" y="269" type="line"/>
      <point x="130" y="468" type="line" smooth="yes"/>
      <point x="130" y="482"/>
      <point x="122" y="490"/>
      <point x="109" y="490" type="curve" smooth="yes"/>
      <point x="96" y="490"/>
      <point x="88" y="482"/>
      <point x="88" y="468" type="curve" smooth="yes"/>
      <point x="88" y="16" type="line" smooth="yes"/>
      <point x="88" y="2"/>
      <point x="96" y="-6"/>
      <point x="109" y="-6" type="curve" smooth="yes"/>
      <point x="123" y="-6"/>
      <point x="130" y="2"/>
      <point x="130" y="16" type="curve" smooth="yes"/>
      <point x="130" y="232" type="line"/>
      <point x="438" y="232" type="line"/>
      <point x="438" y="22" type="line" smooth="yes"/>
      <point x="438" y="8"/>
      <point x="446" y="0"/>
      <point x="459" y="0" type="curve" smooth="yes"/>
      <point x="533" y="0" type="line"/>
      <point x="514" y="19" type="line"/>
      <point x="514" y="-115" type="line" smooth="yes"/>
      <point x="514" y="-129"/>
      <point x="522" y="-136"/>
    </contour>
  </outline>
</glyph>
<glyph name="Enghe-cy" format="2">
  <advance width="927"/>
  <unicode hex="04A4"/>
  <outline>
    <contour>
      <point x="117" y="-6" type="curve" smooth="yes"/>
      <point x="131" y="-6"/>
      <point x="138" y="2"/>
      <point x="138" y="16" type="curve" smooth="yes"/>
      <point x="138" y="338" type="line"/>
      <point x="613" y="338" type="line"/>
      <point x="613" y="16" type="line" smooth="yes"/>
      <point x="613" y="2"/>
      <point x="621" y="-6"/>
      <point x="634" y="-6" type="curve" smooth="yes"/>
      <point x="647" y="-6"/>
      <point x="655" y="2"/>
      <point x="655" y="16" type="curve" smooth="yes"/>
      <point x="655" y="666" type="line"/>
      <point x="908" y="666" type="line" smooth="yes"/>
      <point x="922" y="666"/>
      <point x="930" y="673"/>
      <point x="930" y="686" type="curve" smooth="yes"/>
      <point x="930" y="698"/>
      <point x="922" y="705"/>
      <point x="908" y="705" type="curve" smooth="yes"/>
      <point x="635" y="705" type="line" smooth="yes"/>
      <point x="621" y="705"/>
      <point x="613" y="697"/>
      <point x="613" y="683" type="curve" smooth="yes"/>
      <point x="613" y="377" type="line"/>
      <point x="138" y="377" type="line"/>
      <point x="138" y="689" type="line" smooth="yes"/>
      <point x="138" y="703"/>
      <point x="130" y="711"/>
      <point x="117" y="711" type="curve" smooth="yes"/>
      <point x="104" y="711"/>
      <point x="96" y="703"/>
      <point x="96" y="689" type="curve" smooth="yes"/>
      <point x="96" y="16" type="line" smooth="yes"/>
      <point x="96" y="2"/>
      <point x="104" y="-6"/>
    </contour>
  </outline>
</glyph>
<glyph name="enghe-cy" format="2">
  <advance width="727"/>
  <unicode hex="04A5"/>
  <outline>
    <contour>
      <point x="109" y="-6" type="curve" smooth="yes"/>
      <point x="123" y="-6"/>
      <point x="130" y="2"/>
      <point x="130" y="16" type="curve" smooth="yes"/>
      <point x="130" y="232" type="line"/>
      <point x="438" y="232" type="line"/>
      <point x="438" y="16" type="line" smooth="yes"/>
      <point x="438" y="2"/>
      <point x="446" y="-6"/>
      <point x="459" y="-6" type="curve" smooth="yes"/>
      <point x="472" y="-6"/>
      <point x="480" y="2"/>
      <point x="480" y="16" type="curve" smooth="yes"/>
      <point x="480" y="447" type="line"/>
      <point x="699" y="447" type="line" smooth="yes"/>
      <point x="713" y="447"/>
      <point x="721" y="454"/>
      <point x="721" y="466" type="curve" smooth="yes"/>
      <point x="721" y="478"/>
      <point x="713" y="484"/>
      <point x="699" y="484" type="curve" smooth="yes"/>
      <point x="463" y="484" type="line" smooth="yes"/>
      <point x="447" y="484"/>
      <point x="438" y="475"/>
      <point x="438" y="459" type="curve" smooth="yes"/>
      <point x="438" y="269" type="line"/>
      <point x="130" y="269" type="line"/>
      <point x="130" y="468" type="line" smooth="yes"/>
      <point x="130" y="482"/>
      <point x="122" y="490"/>
      <point x="109" y="490" type="curve" smooth="yes"/>
      <point x="96" y="490"/>
      <point x="88" y="482"/>
      <point x="88" y="468" type="curve" smooth="yes"/>
      <point x="88" y="16" type="line" smooth="yes"/>
      <point x="88" y="2"/>
      <point x="96" y="-6"/>
    </contour>
  </outline>
</glyph>
<glyph name="ustraightstroke-cy" format="2">
  <advance width="510"/>
  <unicode hex="04B1"/>
  <outline>
    <contour>
      <point x="255" y="-186" type="curve" smooth="yes"/>
      <point x="269" y="-186"/>
      <point x="276" y="-178"/>
      <point x="276" y="-164" type="curve" smooth="yes"/>
      <point x="276" y="-27" type="line"/>
      <point x="267" y="-36" type="line"/>
      <point x="378" y="-36" type="line" smooth="yes"/>
      <point x="392" y="-36"/>
      <point x="400" y="-29"/>
      <point x="400" y="-18" type="curve" smooth="yes"/>
      <point x="400" y="-7"/>
      <point x="392" y="0"/>
      <point x="378" y="0" type="curve" smooth="yes"/>
      <point x="272" y="0" type="line"/>
      <point x="272" y="-16" type="line"/>
      <point x="473" y="456" type="line" smooth="yes"/>
      <point x="480" y="473"/>
      <point x="476" y="490"/>
      <point x="457" y="490" type="curve" smooth="yes"/>
      <point x="444" y="490"/>
      <point x="439" y="484"/>
      <point x="434" y="473" type="curve" smooth="yes"/>
      <point x="243" y="15" type="line"/>
      <point x="267" y="15" type="line"/>
      <point x="78" y="473" type="line" smooth="yes"/>
      <point x="73" y="484"/>
      <point x="68" y="490"/>
      <point x="56" y="490" type="curve" smooth="yes"/>
      <point x="36" y="490"/>
      <point x="29" y="474"/>
      <point x="37" y="455" type="curve" smooth="yes"/>
      <point x="238" y="-16" type="line"/>
      <point x="238" y="0" type="line"/>
      <point x="132" y="0" type="line" smooth="yes"/>
      <point x="118" y="0"/>
      <point x="110" y="-7"/>
      <point x="110" y="-18" type="curve" smooth="yes"/>
      <point x="110" y="-29"/>
      <point x="118" y="-36"/>
      <point x="132" y="-36" type="curve" smooth="yes"/>
      <point x="243" y="-36" type="line"/>
      <point x="234" y="-27" type="line"/>
      <point x="234" y="-164" type="line" smooth="yes"/>
      <point x="234" y="-178"/>
      <point x="242" y="-186"/>
    </contour>
  </outline>
</glyph>
<glyph name="hadescender-cy" format="2">
  <advance width="519"/>
  <unicode hex="04B3"/>
  <outline>
    <contour>
      <point x="487" y="-134" type="curve" smooth="yes"/>
      <point x="499" y="-134"/>
      <point x="507" y="-126"/>
      <point x="507" y="-112" type="curve" smooth="yes"/>
      <point x="507" y="12" type="line" smooth="yes"/>
      <point x="507" y="28"/>
      <point x="498" y="37"/>
      <point x="482" y="37" type="curve" smooth="yes"/>
      <point x="444" y="37" type="line"/>
      <point x="464" y="22" type="line"/>
      <point x="274" y="259" type="line"/>
      <point x="274" y="240" type="line"/>
      <point x="448" y="457" type="line" smooth="yes"/>
      <point x="464" y="477"/>
      <point x="450" y="490"/>
      <point x="438" y="490" type="curve" smooth="yes"/>
      <point x="427" y="490"/>
      <point x="420" y="485"/>
      <point x="413" y="476" type="curve" smooth="yes"/>
      <point x="249" y="270" type="line"/>
      <point x="264" y="270" type="line"/>
      <point x="100" y="476" type="line" smooth="yes"/>
      <point x="93" y="485"/>
      <point x="86" y="490"/>
      <point x="75" y="490" type="curve" smooth="yes"/>
      <point x="63" y="490"/>
      <point x="49" y="477"/>
      <point x="65" y="457" type="curve" smooth="yes"/>
      <point x="241" y="237" type="line"/>
      <point x="241" y="263" type="line"/>
      <point x="52" y="26" type="line" smooth="yes"/>
      <point x="36" y="6"/>
      <point x="50" y="-7"/>
      <point x="62" y="-7" type="curve" smooth="yes"/>
      <point x="73" y="-7"/>
      <point x="81" y="-2"/>
      <point x="88" y="7" type="curve" smooth="yes"/>
      <point x="264" y="227" type="line"/>
      <point x="248" y="227" type="line"/>
      <point x="418" y="14" type="line" smooth="yes"/>
      <point x="426" y="4"/>
      <point x="434" y="0"/>
      <point x="445" y="0" type="curve" smooth="yes"/>
      <point x="472" y="0" type="line"/>
      <point x="467" y="7" type="line"/>
      <point x="467" y="-112" type="line" smooth="yes"/>
      <point x="467" y="-126"/>
      <point x="475" y="-134"/>
    </contour>
  </outline>
</glyph>
<glyph name="cheverticalstroke-cy" format="2">
  <advance width="532"/>
  <unicode hex="04B9"/>
  <outline>
    <contour>
      <point x="423" y="-6" type="curve" smooth="yes"/>
      <point x="437" y="-6"/>
      <point x="444" y="2"/>
      <point x="444" y="16" type="curve" smooth="yes"/>
      <point x="444" y="468" type="line" smooth="yes"/>
      <point x="444" y="482"/>
      <point x="436" y="490"/>
      <point x="423" y="490" type="curve" smooth="yes"/>
      <point x="410" y="490"/>
      <point x="402" y="482"/>
      <point x="402" y="468" type="curve" smooth="yes"/>
      <point x="402" y="255" type="line"/>
      <point x="359" y="224"/>
      <point x="315" y="212"/>
      <point x="266" y="212" type="curve"/>
      <point x="279" y="204" type="line"/>
      <point x="279" y="325" type="line" smooth="yes"/>
      <point x="279" y="339"/>
      <point x="272" y="347"/>
      <point x="261" y="347" type="curve" smooth="yes"/>
      <point x="250" y="347"/>
      <point x="243" y="339"/>
      <point x="243" y="325" type="curve" smooth="yes"/>
      <point x="243" y="204" type="line"/>
      <point x="255" y="212" type="line"/>
      <point x="157" y="212"/>
      <point x="109" y="259"/>
      <point x="109" y="365" type="curve" smooth="yes"/>
      <point x="109" y="468" type="line" smooth="yes"/>
      <point x="109" y="482"/>
      <point x="101" y="490"/>
      <point x="88" y="490" type="curve" smooth="yes"/>
      <point x="75" y="490"/>
      <point x="67" y="482"/>
      <point x="67" y="468" type="curve" smooth="yes"/>
      <point x="67" y="364" type="line" smooth="yes"/>
      <point x="67" y="235"/>
      <point x="127" y="173"/>
      <point x="260" y="173" type="curve"/>
      <point x="243" y="183" type="line"/>
      <point x="243" y="86" type="line" smooth="yes"/>
      <point x="243" y="72"/>
      <point x="250" y="64"/>
      <point x="261" y="64" type="curve" smooth="yes"/>
      <point x="272" y="64"/>
      <point x="279" y="72"/>
      <point x="279" y="86" type="curve" smooth="yes"/>
      <point x="279" y="183" type="line"/>
      <point x="270" y="173" type="line"/>
      <point x="313" y="174"/>
      <point x="363" y="187"/>
      <point x="402" y="214" type="curve"/>
      <point x="402" y="16" type="line" smooth="yes"/>
      <point x="402" y="2"/>
      <point x="410" y="-6"/>
    </contour>
  </outline>
</glyph>
<glyph name="Shha-cy" format="2">
  <advance width="657"/>
  <unicode hex="04BA"/>
  <anchor x="553" y="0" name="bottomright"/>
  <outline>
    <contour>
      <point x="117" y="-6" type="curve" smooth="yes"/>
      <point x="130" y="-6"/>
      <point x="138" y="2"/>
      <point x="138" y="16" type="curve" smooth="yes"/>
      <point x="138" y="341" type="line"/>
      <point x="194" y="376"/>
      <point x="259" y="388"/>
      <point x="328" y="388" type="curve" smooth="yes"/>
      <point x="476" y="388"/>
      <point x="553" y="310"/>
      <point x="553" y="140" type="curve" smooth="yes"/>
      <point x="553" y="16" type="line" smooth="yes"/>
      <point x="553" y="2"/>
      <point x="561" y="-6"/>
      <point x="574" y="-6" type="curve" smooth="yes"/>
      <point x="587" y="-6"/>
      <point x="595" y="2"/>
      <point x="595" y="16" type="curve" smooth="yes"/>
      <point x="595" y="146" type="line" smooth="yes"/>
      <point x="595" y="333"/>
      <point x="502" y="429"/>
      <point x="328" y="429" type="curve" smooth="yes"/>
      <point x="259" y="429"/>
      <point x="184" y="415"/>
      <point x="138" y="387" type="curve"/>
      <point x="138" y="689" type="line" smooth="yes"/>
      <point x="138" y="703"/>
      <point x="130" y="711"/>
      <point x="117" y="711" type="curve" smooth="yes"/>
      <point x="103" y="711"/>
      <point x="96" y="703"/>
      <point x="96" y="689" type="curve" smooth="yes"/>
      <point x="96" y="16" type="line" smooth="yes"/>
      <point x="96" y="2"/>
      <point x="104" y="-6"/>
    </contour>
  </outline>
</glyph>
<glyph name="cheabkhasian-cy" format="2">
  <advance width="599"/>
  <unicode hex="04BD"/>
  <anchor x="430" y="0" name="ogonek"/>
  <outline>
    <contour>
      <point x="382" y="-8" type="curve" smooth="yes"/>
      <point x="444" y="-8"/>
      <point x="507" y="14"/>
      <point x="550" y="48" type="curve" smooth="yes"/>
      <point x="576" y="69"/>
      <point x="549" y="99"/>
      <point x="524" y="79" type="curve" smooth="yes"/>
      <point x="479" y="43"/>
      <point x="433" y="31"/>
      <point x="380" y="31" type="curve" smooth="yes"/>
      <point x="262" y="31"/>
      <point x="193" y="106"/>
      <point x="192" y="238" type="curve"/>
      <point x="187" y="234" type="line"/>
      <point x="549" y="234" type="line" smooth="yes"/>
      <point x="564" y="234"/>
      <point x="571" y="242"/>
      <point x="571" y="260" type="curve" smooth="yes"/>
      <point x="571" y="405"/>
      <point x="498" y="492"/>
      <point x="373" y="492" type="curve" smooth="yes"/>
      <point x="248" y="492"/>
      <point x="160" y="404"/>
      <point x="150" y="267" type="curve"/>
      <point x="157" y="271" type="line"/>
      <point x="140" y="271" type="line" smooth="yes"/>
      <point x="82" y="271"/>
      <point x="62" y="296"/>
      <point x="62" y="352" type="curve" smooth="yes"/>
      <point x="62" y="361"/>
      <point x="62" y="367"/>
      <point x="62" y="374" type="curve" smooth="yes"/>
      <point x="62" y="388"/>
      <point x="55" y="396"/>
      <point x="42" y="396" type="curve" smooth="yes"/>
      <point x="29" y="396"/>
      <point x="22" y="388"/>
      <point x="22" y="374" type="curve" smooth="yes"/>
      <point x="22" y="369"/>
      <point x="22" y="362"/>
      <point x="22" y="353" type="curve" smooth="yes"/>
      <point x="22" y="278"/>
      <point x="62" y="234"/>
      <point x="142" y="234" type="curve" smooth="yes"/>
      <point x="155" y="234" type="line"/>
      <point x="149" y="239" type="line"/>
      <point x="149" y="86"/>
      <point x="237.99" y="-8"/>
    </contour>
    <contour>
      <point x="532" y="259" type="curve"/>
      <point x="549" y="271" type="line"/>
      <point x="186" y="271" type="line"/>
      <point x="193" y="269" type="line"/>
      <point x="201" y="374"/>
      <point x="261" y="454"/>
      <point x="372" y="454" type="curve" smooth="yes"/>
      <point x="478" y="454"/>
      <point x="532" y="379"/>
    </contour>
  </outline>
</glyph>
<glyph name="kahook-cy" format="2">
  <advance width="514"/>
  <unicode hex="04C4"/>
  <outline>
    <contour>
      <point x="304" y="-181" type="curve" smooth="yes"/>
      <point x="425" y="-146"/>
      <point x="462" y="-75"/>
      <point x="462" y="55" type="curve" smooth="yes"/>
      <point x="462" y="75" type="line" smooth="yes"/>
      <point x="462" y="209"/>
      <point x="385" y="269"/>
      <point x="262" y="269" type="curve"/>
      <point x="277" y="256" type="line"/>
      <point x="437" y="453" type="line" smooth="yes"/>
      <point x="457" y="477"/>
      <point x="426" y="501"/>
      <point x="408" y="478" type="curve" smooth="yes"/>
      <point x="238" y="269" type="line"/>
      <point x="130" y="269" type="line"/>
      <point x="130" y="465" type="line" smooth="yes"/>
      <point x="130" y="479"/>
      <point x="122" y="487"/>
      <point x="109" y="487" type="curve" smooth="yes"/>
      <point x="96" y="487"/>
      <point x="88" y="479"/>
      <point x="88" y="465" type="curve" smooth="yes"/>
      <point x="88" y="16" type="line" smooth="yes"/>
      <point x="88" y="2"/>
      <point x="96" y="-6"/>
      <point x="109" y="-6" type="curve" smooth="yes"/>
      <point x="122" y="-6"/>
      <point x="130" y="2"/>
      <point x="130" y="16" type="curve" smooth="yes"/>
      <point x="130" y="233" type="line"/>
      <point x="266" y="233" type="line" smooth="yes"/>
      <point x="371" y="233"/>
      <point x="420" y="183"/>
      <point x="420" y="71" type="curve" smooth="yes"/>
      <point x="420" y="52" type="line" smooth="yes"/>
      <point x="420" y="-55"/>
      <point x="396" y="-118"/>
      <point x="295" y="-144" type="curve" smooth="yes"/>
      <point x="264" y="-152"/>
      <point x="276" y="-189"/>
    </contour>
  </outline>
</glyph>
<glyph name="Enhook-cy" format="2">
  <advance width="751"/>
  <unicode hex="04C7"/>
  <outline>
    <contour>
      <point x="489" y="-192" type="curve" smooth="yes"/>
      <point x="590" y="-192"/>
      <point x="655" y="-138"/>
      <point x="655" y="-21" type="curve" smooth="yes"/>
      <point x="655" y="689" type="line" smooth="yes"/>
      <point x="655" y="703"/>
      <point x="647" y="711"/>
      <point x="634" y="711" type="curve" smooth="yes"/>
      <point x="621" y="711"/>
      <point x="613" y="703"/>
      <point x="613" y="689" type="curve" smooth="yes"/>
      <point x="613" y="377" type="line"/>
      <point x="138" y="377" type="line"/>
      <point x="138" y="689" type="line" smooth="yes"/>
      <point x="138" y="703"/>
      <point x="130" y="711"/>
      <point x="117" y="711" type="curve" smooth="yes"/>
      <point x="104" y="711"/>
      <point x="96" y="703"/>
      <point x="96" y="689" type="curve" smooth="yes"/>
      <point x="96" y="16" type="line" smooth="yes"/>
      <point x="96" y="2"/>
      <point x="104" y="-6"/>
      <point x="117" y="-6" type="curve" smooth="yes"/>
      <point x="131" y="-6"/>
      <point x="138" y="2"/>
      <point x="138" y="16" type="curve" smooth="yes"/>
      <point x="138" y="338" type="line"/>
      <point x="613" y="338" type="line"/>
      <point x="613" y="-22" type="line" smooth="yes"/>
      <point x="613" y="-114"/>
      <point x="571" y="-151"/>
      <point x="486" y="-154" type="curve" smooth="yes"/>
      <point x="457" y="-155"/>
      <point x="460" y="-192"/>
    </contour>
  </outline>
</glyph>
<glyph name="enhook-cy" format="2">
  <advance width="568"/>
  <unicode hex="04C8"/>
  <outline>
    <contour>
      <point x="314" y="-192" type="curve" smooth="yes"/>
      <point x="415" y="-192"/>
      <point x="480" y="-138"/>
      <point x="480" y="-21" type="curve" smooth="yes"/>
      <point x="480" y="468" type="line" smooth="yes"/>
      <point x="480" y="482"/>
      <point x="472" y="490"/>
      <point x="459" y="490" type="curve" smooth="yes"/>
      <point x="446" y="490"/>
      <point x="438" y="482"/>
      <point x="438" y="468" type="curve" smooth="yes"/>
      <point x="438" y="269" type="line"/>
      <point x="130" y="269" type="line"/>
      <point x="130" y="468" type="line" smooth="yes"/>
      <point x="130" y="482"/>
      <point x="122" y="490"/>
      <point x="109" y="490" type="curve" smooth="yes"/>
      <point x="96" y="490"/>
      <point x="88" y="482"/>
      <point x="88" y="468" type="curve" smooth="yes"/>
      <point x="88" y="16" type="line" smooth="yes"/>
      <point x="88" y="2"/>
      <point x="96" y="-6"/>
      <point x="109" y="-6" type="curve" smooth="yes"/>
      <point x="123" y="-6"/>
      <point x="130" y="2"/>
      <point x="130" y="16" type="curve" smooth="yes"/>
      <point x="130" y="232" type="line"/>
      <point x="438" y="232" type="line"/>
      <point x="438" y="-22" type="line" smooth="yes"/>
      <point x="438" y="-114"/>
      <point x="396" y="-151"/>
      <point x="311" y="-154" type="curve" smooth="yes"/>
      <point x="282" y="-155"/>
      <point x="285" y="-192"/>
    </contour>
  </outline>
</glyph>
<glyph name="Entail-cy" format="2">
  <advance width="761"/>
  <unicode hex="04C9"/>
  <guideline x="755" y="355" angle="90"/>
  <outline>
    <contour>
      <point x="702" y="-140" type="curve" smooth="yes"/>
      <point x="753" y="12" type="line" smooth="yes"/>
      <point x="759" y="30"/>
      <point x="750" y="39"/>
      <point x="730" y="39" type="curve" smooth="yes"/>
      <point x="636" y="39" type="line"/>
      <point x="655" y="20" type="line"/>
      <point x="655" y="689" type="line" smooth="yes"/>
      <point x="655" y="703"/>
      <point x="647" y="711"/>
      <point x="634" y="711" type="curve" smooth="yes"/>
      <point x="621" y="711"/>
      <point x="613" y="703"/>
      <point x="613" y="689" type="curve" smooth="yes"/>
      <point x="613" y="377" type="line"/>
      <point x="138" y="377" type="line"/>
      <point x="138" y="689" type="line" smooth="yes"/>
      <point x="138" y="703"/>
      <point x="130" y="711"/>
      <point x="117" y="711" type="curve" smooth="yes"/>
      <point x="104" y="711"/>
      <point x="96" y="703"/>
      <point x="96" y="689" type="curve" smooth="yes"/>
      <point x="96" y="16" type="line" smooth="yes"/>
      <point x="96" y="2"/>
      <point x="104" y="-6"/>
      <point x="117" y="-6" type="curve" smooth="yes"/>
      <point x="131" y="-6"/>
      <point x="138" y="2"/>
      <point x="138" y="16" type="curve" smooth="yes"/>
      <point x="138" y="338" type="line"/>
      <point x="613" y="338" type="line"/>
      <point x="613" y="22" type="line" smooth="yes"/>
      <point x="613" y="8"/>
      <point x="621" y="0"/>
      <point x="634" y="0" type="curve" smooth="yes"/>
      <point x="730" y="0" type="line"/>
      <point x="717" y="18" type="line"/>
      <point x="668" y="-129" type="line" smooth="yes"/>
      <point x="659" y="-155"/>
      <point x="693" y="-166"/>
    </contour>
  </outline>
</glyph>
<glyph name="Chekhakassian-cy" format="2">
  <advance width="657"/>
  <unicode hex="04CB"/>
  <outline>
    <contour>
      <point x="439" y="-156" type="curve" smooth="yes"/>
      <point x="452" y="-156"/>
      <point x="459" y="-148"/>
      <point x="459" y="-134" type="curve" smooth="yes"/>
      <point x="459" y="0" type="line"/>
      <point x="540" y="0" type="line" smooth="yes"/>
      <point x="553" y="0"/>
      <point x="561" y="4"/>
      <point x="561" y="22" type="curve"/>
      <point x="561" y="689" type="line"/>
      <point x="561" y="703"/>
      <point x="553" y="711"/>
      <point x="540" y="711" type="curve" smooth="yes"/>
      <point x="527" y="711"/>
      <point x="519" y="703"/>
      <point x="519" y="689" type="curve" smooth="yes"/>
      <point x="519" y="364" type="line"/>
      <point x="463" y="329"/>
      <point x="398" y="317"/>
      <point x="329" y="317" type="curve" smooth="yes"/>
      <point x="181" y="317"/>
      <point x="104" y="395"/>
      <point x="104" y="565" type="curve" smooth="yes"/>
      <point x="104" y="689" type="line" smooth="yes"/>
      <point x="104" y="703"/>
      <point x="96" y="711"/>
      <point x="83" y="711" type="curve" smooth="yes"/>
      <point x="70" y="711"/>
      <point x="62" y="703"/>
      <point x="62" y="689" type="curve" smooth="yes"/>
      <point x="62" y="559" type="line" smooth="yes"/>
      <point x="62" y="372"/>
      <point x="155" y="276"/>
      <point x="329" y="276" type="curve" smooth="yes"/>
      <point x="398" y="276"/>
      <point x="473" y="290"/>
      <point x="519" y="318" type="curve"/>
      <point x="519" y="20" type="line"/>
      <point x="538" y="39" type="line"/>
      <point x="444" y="39" type="line" smooth="yes"/>
      <point x="428" y="39"/>
      <point x="419" y="30"/>
      <point x="419" y="14" type="curve" smooth="yes"/>
      <point x="419" y="-134" type="line" smooth="yes"/>
      <point x="419" y="-148"/>
      <point x="426" y="-156"/>
    </contour>
  </outline>
</glyph>
